<svg version="1.1" id="Layer_1" xmlns="http://www.w3.org/2000/svg" xmlns:xlink="http://www.w3.org/1999/xlink" x="0px" y="0px"
	 width="100%" viewBox="0 0 512 512" enable-background="new 0 0 512 512" xml:space="preserve">
<path fill="#000000" opacity="0.000000" stroke="none" 
	d="
M284.217682,512.674622 
	C263.645782,513.000000 243.291550,513.000000 222.468658,513.000000 
	C220.681320,509.835327 223.589798,509.013458 225.146088,507.597687 
	C232.328827,501.063416 233.832428,489.940826 228.388901,482.143250 
	C224.662384,476.805206 219.491516,474.538635 212.966675,474.558472 
	C184.638916,474.644623 156.309341,474.763214 127.983070,474.532257 
	C111.669151,474.399292 95.760300,471.997437 81.369522,463.456177 
	C56.345104,448.603577 42.656712,426.825989 40.251457,397.691101 
	C39.233295,385.358032 39.450619,373.056824 39.439472,360.741760 
	C39.369793,283.756073 39.314835,206.770126 39.473801,129.784698 
	C39.508778,112.845390 41.604443,96.237808 50.592632,81.189827 
	C65.335175,56.507938 86.918953,43.047668 115.505180,40.275719 
	C125.832764,39.274273 136.136475,39.437328 146.455185,39.427143 
	C196.945786,39.377308 247.436905,39.285580 297.926880,39.470676 
	C314.930908,39.533009 331.465668,42.168293 346.289764,51.451649 
	C369.899933,66.237137 383.323761,87.283730 385.603424,115.196320 
	C385.875305,118.525436 386.288513,121.835464 386.900085,125.102684 
	C388.729553,134.875839 396.477356,140.124542 407.674805,139.341003 
	C416.356110,138.733521 423.283112,131.493729 423.504272,122.337746 
	C424.274780,90.436172 413.410858,62.884155 391.774811,39.617867 
	C375.446411,22.059107 355.466248,10.600172 332.067932,5.136014 
	C329.961945,4.644207 327.187927,4.840834 326.787476,1.377345 
	C387.293152,1.000000 447.586395,1.037787 507.879272,0.912551 
	C511.779938,0.904449 513.142090,1.308742 513.137268,5.872936 
	C512.972168,160.936050 513.000000,315.999390 513.000000,471.531342 
	C509.849304,473.079987 509.837372,470.441681 509.430023,468.737488 
	C507.995422,462.735352 506.377716,456.811523 503.901917,451.134583 
	C486.625397,411.519684 456.715607,387.735626 413.768127,383.056915 
	C394.134277,380.917999 373.851044,380.342255 354.251617,386.183960 
	C321.511261,395.942322 298.099731,416.478607 283.732056,447.303345 
	C277.026764,461.688995 273.995300,476.917297 274.364075,492.881348 
	C274.514740,499.403656 276.645264,504.494904 281.747650,508.445038 
	C283.036835,509.443054 284.576324,510.336700 284.217682,512.674622 
z"/>
<path fill="#F0F0F5" opacity="1.000000" stroke="none" 
	d="
M326.531342,1.000000 
	C326.095306,2.651392 327.316589,2.786760 328.424713,2.985028 
	C348.353760,6.550761 365.905212,14.999620 381.537354,27.903872 
	C394.949493,38.975491 405.592407,52.102711 413.189178,67.670006 
	C420.728546,83.119514 425.178925,99.349731 425.061523,116.716698 
	C425.022491,122.487152 425.618134,128.065750 421.562469,133.116364 
	C417.428528,138.264435 412.625366,140.691177 405.934052,141.164795 
	C394.956207,141.941803 387.482269,134.837646 385.499451,126.949112 
	C384.672852,123.660561 384.186646,120.224327 384.049805,116.834892 
	C383.325409,98.895195 376.864014,83.439964 365.305695,69.683075 
	C352.197418,54.081448 335.369415,45.493992 315.736816,42.241867 
	C310.827698,41.428677 305.627747,40.992092 300.515442,40.993046 
	C242.363464,41.003883 184.211273,40.906822 126.059662,41.053158 
	C107.091850,41.100883 89.142563,45.554684 73.776161,57.114349 
	C57.427906,69.412628 46.880447,85.784241 43.081703,106.038101 
	C41.357483,115.231186 40.975098,124.610504 40.979061,133.992935 
	C41.014759,218.471573 40.870495,302.950592 41.100452,387.428589 
	C41.151295,406.107513 45.122890,423.871826 56.693413,439.396362 
	C69.454956,456.518890 86.082283,467.102692 107.011269,470.985840 
	C115.754501,472.608063 124.596512,473.043762 133.485413,473.023010 
	C160.645065,472.959686 187.804962,472.998596 214.964767,473.000824 
	C224.752975,473.001617 232.419983,481.174347 233.155899,490.780212 
	C233.931549,500.904572 229.365768,507.407013 221.701218,512.709229 
	C181.312439,513.000000 140.624878,513.000000 99.468658,513.000000 
	C89.761719,510.960815 80.653305,508.563080 71.947670,504.715210 
	C48.178860,494.209442 29.680246,477.761475 16.294880,455.566559 
	C8.834699,443.196503 3.572800,429.956665 1.242667,415.284851 
	C1.000000,309.979095 1.000000,204.958206 1.000000,99.468658 
	C3.039701,89.761650 5.332014,80.607460 9.305350,71.955902 
	C25.765862,36.114731 52.993660,13.025787 91.091194,2.760843 
	C93.507408,2.109823 96.059654,2.338927 98.715141,1.242674 
	C174.687561,1.000000 250.375122,1.000000 326.531342,1.000000 
z"/>
<path fill="#F0F0F5" opacity="1.000000" stroke="none" 
	d="
M284.467957,513.000000 
	C284.931396,511.387238 283.533722,511.404297 282.638031,510.854767 
	C275.861542,506.697083 272.955414,500.802460 272.873932,492.652679 
	C272.599884,465.240356 281.605499,441.429016 298.991425,420.433929 
	C316.208588,399.642700 338.368866,387.302094 364.513824,382.139893 
	C377.057037,379.663269 389.950897,381.204987 402.687683,381.003021 
	C429.593933,380.576385 452.989807,389.694214 473.452667,406.922119 
	C493.605743,423.889252 506.419678,445.106506 511.086884,471.135986 
	C511.185516,471.685822 511.891663,472.126740 512.657227,472.309235 
	C513.000000,481.687561 513.000000,491.375122 513.000000,501.531342 
	C510.557434,506.563599 507.525726,510.539124 502.248627,512.760681 
	C496.311951,513.000000 490.623932,513.000000 484.467957,513.000000 
	C473.665985,508.425110 470.856812,499.440887 470.639069,489.313751 
	C469.949127,457.224121 443.040344,428.426025 413.232483,424.138885 
	C394.307892,421.417053 375.110779,420.510498 357.332764,428.838043 
	C332.261810,440.581696 317.507782,460.301300 315.458710,488.537262 
	C315.205017,492.033264 314.896088,495.553101 314.031372,498.904327 
	C312.418488,505.155060 308.784241,509.967407 302.295654,512.745850 
	C296.311951,513.000000 290.623932,513.000000 284.467957,513.000000 
z"/>
<path fill="#000000" opacity="0.000000" stroke="none" 
	d="
M302.468658,513.000000 
	C300.879944,512.092773 301.964264,511.365906 302.437927,511.160156 
	C311.847626,507.072937 313.765503,498.573517 313.870941,489.906189 
	C314.252197,458.564148 338.777130,429.911865 368.700012,423.354889 
	C380.098877,420.857086 391.907898,420.442078 403.867798,421.683441 
	C413.687866,422.702728 423.226685,423.992065 431.897583,428.520966 
	C452.511963,439.288147 465.756409,455.939484 471.126770,478.834106 
	C472.377960,484.167938 472.016876,489.521484 472.719696,494.839630 
	C473.710266,502.335876 476.863892,507.505676 483.242401,511.075897 
	C483.777100,511.375214 484.149689,511.964081 484.298798,512.709229 
	C423.645782,513.000000 363.291534,513.000000 302.468658,513.000000 
z"/>
<path fill="#000000" opacity="0.000000" stroke="none" 
	d="
M1.000000,415.468658 
	C2.650127,414.107300 2.788642,415.324158 2.985026,416.432678 
	C6.515243,436.359222 15.081540,453.843323 27.877769,469.500885 
	C38.987488,483.094788 52.311848,493.798767 67.999336,501.405151 
	C77.368095,505.947815 87.120682,509.809998 97.647491,510.997406 
	C98.601883,511.105103 99.099655,511.672394 99.309982,512.657349 
	C67.570457,513.000000 36.140659,512.942688 4.711783,513.087219 
	C1.517683,513.101868 0.912344,512.272522 0.924435,509.227844 
	C1.047921,478.131378 1.000000,447.034271 1.000000,415.468658 
z"/>
<path fill="#000000" opacity="0.000000" stroke="none" 
	d="
M98.531342,1.000000 
	C99.905708,2.650707 98.683754,2.785703 97.576790,2.984981 
	C77.501465,6.598954 59.856407,15.135784 44.141483,28.208103 
	C30.383129,39.652866 19.543747,53.198128 12.025874,69.347771 
	C7.758499,78.514801 4.021218,87.931015 2.906721,98.144714 
	C2.848780,98.675697 2.107227,99.132088 1.341969,99.311600 
	C1.000000,67.570457 1.057259,36.140656 0.912719,4.711778 
	C0.898029,1.517673 1.727504,0.912346 4.772148,0.924436 
	C35.868603,1.047919 66.965736,1.000000 98.531342,1.000000 
z"/>
<path fill="#000000" opacity="0.000000" stroke="none" 
	d="
M502.482971,513.000000 
	C501.669861,512.681580 501.164459,512.199951 501.774261,511.912537 
	C506.568115,509.653809 509.420898,505.460541 512.709229,501.701233 
	C513.000000,502.326111 513.000000,502.652222 513.000000,502.978333 
	C513.000000,506.239410 514.283508,510.990479 512.670959,512.379639 
	C510.711761,514.067444 506.310608,512.920532 502.482971,513.000000 
z"/>
<path fill="#F0F0F5" opacity="1.000000" stroke="none" 
	d="
M319.205078,311.627258 
	C314.926941,302.782745 310.080627,294.498199 308.544281,285.042694 
	C305.573425,266.758453 305.763794,248.796234 313.807434,231.433945 
	C318.076599,222.218948 323.244110,213.675537 330.193359,206.441360 
	C341.154633,195.030609 354.579498,186.758652 369.860596,183.263779 
	C394.321869,177.669312 417.949249,180.402786 439.445129,194.799896 
	C458.641022,207.656586 471.371796,225.486176 475.596466,247.789200 
	C480.819305,275.361664 475.421265,301.065033 455.859467,322.776428 
	C443.677582,336.296936 429.065521,345.460632 411.363617,349.133331 
	C392.987823,352.945862 374.932037,352.073059 357.373688,344.179077 
	C347.753387,339.853851 339.283875,334.055878 331.727631,327.013641 
	C327.024597,322.630524 323.470856,317.014221 319.205078,311.627258 
z"/>
<path fill="#F0F0F5" opacity="1.000000" stroke="none" 
	d="
M167.000000,170.999954 
	C157.174057,170.999954 147.848099,170.999969 138.522156,170.999969 
	C125.218681,170.999969 118.223885,163.859390 117.921005,150.716248 
	C117.720596,142.019775 121.843132,136.421494 129.030991,132.428024 
	C130.939926,131.367447 132.888916,130.958542 135.096497,130.960724 
	C186.389160,131.011566 237.682373,131.107437 288.974060,130.877853 
	C296.209961,130.845459 306.156372,140.801102 306.232880,148.285187 
	C306.330597,157.843719 303.757263,165.092041 294.977600,169.589264 
	C292.863770,170.672028 290.748962,171.033401 288.404175,171.030899 
	C248.102814,170.987869 207.801407,170.999954 167.000000,170.999954 
z"/>
<path fill="#F0F0F5" opacity="1.000000" stroke="none" 
	d="
M186.000000,247.999954 
	C168.849548,247.999954 152.185242,247.601212 135.554916,248.179825 
	C128.023819,248.441849 117.614662,238.059784 117.729767,230.237793 
	C117.867928,220.849609 120.412987,213.806076 128.999283,209.435577 
	C130.947266,208.444061 132.858246,207.960770 135.061264,207.963699 
	C173.024231,208.014191 210.988297,208.145279 248.949371,207.872742 
	C256.206665,207.820633 266.154449,217.816849 266.231232,225.255844 
	C266.329773,234.801910 263.797272,242.065918 255.004517,246.570831 
	C252.885040,247.656738 250.783554,248.036545 248.439590,248.030563 
	C227.793167,247.977768 207.146561,247.999954 186.000000,247.999954 
z"/>
<path fill="#F0F0F5" opacity="1.000000" stroke="none" 
	d="
M165.000000,284.000031 
	C193.139725,284.000031 220.784225,284.282104 248.416077,283.815338 
	C255.975327,283.687653 266.382080,293.963684 266.267273,301.730103 
	C266.128754,311.103241 263.641663,318.181824 255.023254,322.542206 
	C253.077118,323.526825 251.176437,324.039734 248.970703,324.036743 
	C211.007767,323.985626 173.043625,323.849915 135.082718,324.131104 
	C127.801682,324.185059 117.849724,314.173553 117.771309,306.776306 
	C117.670242,297.242004 120.149910,289.938599 128.976517,285.458740 
	C130.921555,284.471558 132.821091,283.940552 135.028976,283.960815 
	C144.851929,284.051117 154.676208,284.000000 165.000000,284.000031 
z"/>
<path fill="#F0F0F5" opacity="1.000000" stroke="none" 
	d="
M231.999786,400.999969 
	C199.530991,400.999969 167.558685,400.748047 135.595810,401.184906 
	C128.024033,401.288391 117.619720,391.028748 117.733635,383.282471 
	C117.871407,373.914062 120.343857,366.825867 128.968201,362.467285 
	C130.912201,361.484833 132.809052,360.959656 135.016663,360.962677 
	C172.979614,361.014587 210.943787,361.151794 248.904678,360.867523 
	C256.196625,360.812897 266.147675,370.826599 266.227234,378.211182 
	C266.329926,387.740417 263.868164,395.055542 255.031876,399.531952 
	C253.088684,400.516327 251.195541,401.088867 248.982864,401.039917 
	C243.490875,400.918427 237.994400,400.999969 231.999786,400.999969 
z"/>
<path fill="#000000" opacity="1.000000" stroke="none" 
	d="
M371.743225,226.691376 
	C398.994507,213.032288 430.109192,228.591339 435.583679,257.672791 
	C440.031738,281.301666 426.969574,302.613983 403.096588,308.865509 
	C377.210815,315.644135 354.254242,299.437073 348.192871,274.489563 
	C344.746155,260.303558 352.424927,239.392609 364.537140,231.252548 
	C366.765442,229.754974 368.470459,227.267181 371.743225,226.691376 
z"/>
</svg>