<svg version="1.1" id="Layer_1" xmlns="http://www.w3.org/2000/svg" xmlns:xlink="http://www.w3.org/1999/xlink" x="0px" y="0px"
	 width="100%" viewBox="0 0 512 512" enable-background="new 0 0 512 512" xml:space="preserve">
<path fill="#000000" opacity="0.000000" stroke="none" 
	d="
M512.610229,369.772552 
	C513.000000,416.428772 512.960632,462.857635 513.085938,509.286072 
	C513.094543,512.481995 512.270081,513.081360 509.224976,513.074341 
	C463.129272,512.967285 417.033264,513.000000 370.468658,513.000000 
	C369.530640,507.484528 373.617157,509.450958 376.760986,509.098419 
	C383.510864,507.631622 389.940826,507.031677 396.743286,506.201569 
	C402.847321,504.337097 408.640839,502.878754 414.869995,501.606323 
	C419.952454,499.447815 424.752869,497.604645 429.908508,495.704285 
	C433.240479,493.745392 436.533203,492.536713 439.963104,490.832489 
	C442.364502,489.365479 444.505951,488.130096 446.993896,486.831024 
	C449.500702,485.165710 451.522217,483.396271 454.095398,481.819946 
	C457.612335,479.504700 460.390686,476.795166 463.704010,474.214722 
	C467.813538,469.506409 472.080750,465.435333 476.577881,461.127869 
	C480.100067,456.555359 483.073730,451.999298 486.580994,447.408508 
	C489.805328,441.769226 492.333252,436.151642 495.542755,430.486725 
	C497.710785,424.529297 500.092804,419.028229 501.600433,412.823761 
	C504.201599,405.813171 505.094360,398.745239 507.182007,391.576843 
	C507.871277,384.265350 508.097809,377.308960 510.189026,370.230164 
	C511.029388,369.575012 511.602997,369.455261 512.610229,369.772552 
z"/>
<path fill="#000000" opacity="0.000000" stroke="none" 
	d="
M368.784729,1.421230 
	C415.762085,1.000000 462.524292,1.039083 509.286041,0.914089 
	C512.481995,0.905546 513.081299,1.729936 513.074280,4.775046 
	C512.967468,51.204067 513.000000,97.633415 513.000000,144.531342 
	C508.286377,145.691238 509.238068,142.126907 508.927490,139.088684 
	C508.763092,133.087234 507.514069,127.677132 506.603424,122.226517 
	C506.224884,119.960632 505.845612,117.695984 505.513428,115.014633 
	C504.618744,109.764236 502.769287,105.184181 501.583496,100.036026 
	C498.455017,89.091209 493.854950,79.122246 488.144531,69.810509 
	C473.030396,45.164440 452.341553,26.873274 425.106720,16.438179 
	C422.010651,15.251904 419.060455,13.712319 415.521790,12.658470 
	C410.041748,11.732937 405.234619,9.760498 399.821899,8.505638 
	C391.693939,7.276784 383.955841,6.157819 375.803741,4.863875 
	C372.609314,4.956256 369.544006,5.731088 368.784729,1.421230 
z"/>
<path fill="#000000" opacity="0.000000" stroke="none" 
	d="
M1.413640,144.215576 
	C1.000000,97.571228 1.039353,51.142349 0.914066,4.713915 
	C0.905442,1.517994 1.729896,0.918626 4.775001,0.925697 
	C50.870705,1.032742 96.966728,1.000000 143.531342,1.000000 
	C144.387283,1.491902 144.542114,2.048324 144.270782,3.072098 
	C142.100937,5.492025 139.483749,4.988098 137.058258,5.280797 
	C132.302643,5.854686 127.568085,6.609028 122.366814,6.921453 
	C114.748505,8.603545 107.613266,10.563793 100.031219,12.264588 
	C93.891563,14.601954 88.050148,16.649965 82.007988,19.184788 
	C75.981140,21.533531 71.053375,25.192261 65.325676,28.055218 
	C61.233753,31.102877 57.310890,33.806225 53.443306,37.147091 
	C48.345310,41.468044 44.504475,46.595745 39.307838,50.812237 
	C35.822994,54.757454 32.987656,58.797421 29.614388,62.826172 
	C27.336172,66.944771 25.114185,70.702461 22.521194,74.641251 
	C20.488544,78.987617 18.953203,83.182709 16.652176,87.404892 
	C15.531336,91.557167 14.047423,95.207367 12.591625,99.268456 
	C10.821798,105.363121 9.777494,111.263161 7.766236,117.312424 
	C6.967291,124.406532 6.135520,131.088394 4.901548,138.161499 
	C4.491258,140.883896 5.428285,143.824814 1.413640,144.215576 
z"/>
<path fill="#000000" opacity="0.000000" stroke="none" 
	d="
M144.217316,512.603577 
	C97.571228,513.000000 51.142349,512.960632 4.713915,513.085938 
	C1.517979,513.094543 0.918625,512.270081 0.925697,509.224976 
	C1.032744,463.129272 1.000000,417.033264 1.000000,370.468658 
	C2.325771,369.084290 3.213658,369.759186 4.151768,371.233398 
	C5.655151,379.195099 6.564266,386.809235 7.545018,394.826202 
	C7.987059,399.183563 9.923779,402.753174 10.446827,407.062073 
	C12.256309,414.705811 14.928712,421.672882 17.820278,428.536987 
	C29.723989,456.794495 49.790630,477.645691 76.548248,492.131409 
	C85.750206,497.113037 95.761673,500.346832 106.123184,503.515778 
	C110.464317,503.834503 114.075760,505.532257 118.309082,506.406311 
	C126.333763,507.231445 133.916763,508.266541 141.900375,509.615967 
	C143.587051,510.066162 144.442032,510.777435 144.217316,512.603577 
z"/>
<path fill="#DE009F" opacity="1.000000" stroke="none" 
	d="
M510.618195,137.720230 
	C511.674103,140.432968 509.750885,143.389679 512.626892,145.254791 
	C513.000000,147.370560 513.000000,149.741104 513.000000,152.555832 
	C510.066559,155.368179 507.991486,153.270020 506.085297,151.471848 
	C501.241364,146.902313 496.575958,142.144806 491.902924,137.400314 
	C479.757690,125.069511 467.123566,113.220711 455.442047,100.433487 
	C454.822388,99.755188 454.036560,99.611351 452.873566,99.361893 
	C450.904846,98.609627 449.921631,97.295982 449.022797,95.880478 
	C441.376160,83.838722 431.757080,73.740555 419.666046,66.071068 
	C418.541016,65.357460 417.603485,64.410042 416.799072,62.893021 
	C416.489807,61.032372 415.922241,59.841366 414.713348,58.708839 
	C397.461121,42.546585 381.119202,25.462488 364.366577,8.793649 
	C362.429504,6.866298 359.927246,4.946356 361.762207,1.269040 
	C364.041656,1.000000 366.083344,1.000000 368.562500,1.000000 
	C369.785675,2.972358 369.785675,2.972358 375.565796,3.095294 
	C381.101044,6.134230 384.997192,10.486091 389.101227,14.593153 
	C427.693451,53.213783 466.292450,91.827591 504.936035,130.396805 
	C507.067841,132.524506 509.132660,134.664108 510.618195,137.720230 
z"/>
<path fill="#FFB600" opacity="1.000000" stroke="none" 
	d="
M3.383914,372.282990 
	C3.080324,370.832214 2.646515,369.873322 1.262334,369.669373 
	C1.000000,366.638702 1.000000,363.277435 1.000000,359.458069 
	C3.912770,356.640259 5.992751,358.707916 7.887704,360.502991 
	C13.060925,365.403473 18.041723,370.504486 23.065527,375.558746 
	C34.162540,386.723022 45.488876,397.660370 56.307552,409.099548 
	C57.033329,409.866943 57.801823,410.372406 59.165684,410.640503 
	C61.658970,411.676300 62.637386,413.651642 63.690056,415.530060 
	C72.020195,430.394257 83.612000,441.989227 98.470566,450.325470 
	C100.065392,451.220276 101.683990,452.094238 103.043167,453.882141 
	C103.623535,456.100616 105.013863,457.305878 106.289406,458.616150 
	C121.459145,474.199768 137.075546,489.338654 152.301804,504.865143 
	C154.308853,506.911774 157.114395,508.809570 155.237869,512.730469 
	C151.638718,513.000000 148.277420,513.000000 144.458069,513.000000 
	C144.861893,511.582153 143.895157,511.255676 142.401154,510.916412 
	C138.878922,509.174042 136.307327,506.868713 133.820587,504.376038 
	C92.166122,462.622101 50.457695,420.922089 8.713431,379.257904 
	C6.692791,377.241119 4.808656,375.172943 3.383914,372.282990 
z"/>
<path fill="#ED0157" opacity="1.000000" stroke="none" 
	d="
M183.768250,1.289974 
	C195.354233,1.000000 206.708450,1.000000 218.531342,1.000000 
	C222.712311,2.982975 225.550797,6.003448 228.474426,8.933214 
	C238.905624,19.386303 249.403290,29.773613 259.759064,40.301003 
	C262.172028,42.753960 265.035858,45.404858 261.246155,49.421604 
	C250.335724,50.825485 239.763016,50.200283 228.783203,49.930885 
	C224.620514,47.801720 222.626648,43.982185 219.682068,41.104725 
	C208.617706,30.292467 197.706680,19.321939 186.845291,8.304364 
	C185.037781,6.470851 182.611420,4.813970 183.768250,1.289974 
z"/>
<path fill="#FFA900" opacity="1.000000" stroke="none" 
	d="
M192.230667,512.717896 
	C183.979095,513.000000 175.958191,513.000000 167.468643,513.000000 
	C150.804703,497.934326 135.567230,481.901306 119.899200,466.303436 
	C118.054062,464.466583 115.973610,462.418732 118.412857,459.203735 
	C125.125824,458.356018 131.147385,460.682556 137.379929,461.312103 
	C140.447342,461.621918 143.727463,461.262085 146.968323,463.003052 
	C148.572830,465.148468 150.153122,466.758057 151.807037,468.389252 
	C164.578049,480.984741 177.253021,493.678406 189.879196,506.419800 
	C191.484848,508.040161 193.350784,509.683105 192.230667,512.717896 
z"/>
<path fill="#E8006D" opacity="1.000000" stroke="none" 
	d="
M240.768372,1.289370 
	C249.020905,1.000000 257.041809,1.000000 265.531372,1.000000 
	C269.711365,2.998095 272.550507,6.023199 275.483582,8.958512 
	C286.177277,19.660316 296.925201,30.308592 307.533630,41.094501 
	C309.655304,43.251678 312.528229,45.524429 309.266174,49.352669 
	C300.963074,50.822086 292.975983,50.209564 284.593689,49.855652 
	C280.858093,47.258160 279.082062,43.426170 276.121307,40.539776 
	C265.223541,29.915630 254.486816,19.123178 243.810135,8.274312 
	C242.012375,6.447568 239.611130,4.791391 240.768372,1.289370 
z"/>
<path fill="#E60078" opacity="1.000000" stroke="none" 
	d="
M310.239807,48.250015 
	C309.673584,45.655811 307.946899,44.468761 306.556000,43.074295 
	C294.320343,30.807333 282.054169,18.570850 269.822571,6.299881 
	C268.429993,4.902817 266.714264,3.730299 266.065582,1.336886 
	C274.354218,1.000000 282.708466,1.000000 291.531342,1.000000 
	C296.611389,4.352005 300.190125,8.787744 304.239258,12.726225 
	C314.028900,22.248392 323.418457,32.174740 333.349884,41.558208 
	C335.598907,43.683140 337.437592,46.223328 334.071716,49.476547 
	C327.166687,50.715408 320.601288,50.195015 314.044952,50.074287 
	C312.700195,50.049526 311.445953,49.693188 310.239807,48.250015 
z"/>
<path fill="#EA0062" opacity="1.000000" stroke="none" 
	d="
M512.749573,272.724030 
	C513.000000,281.020905 513.000000,289.041809 513.000000,297.531372 
	C509.536072,300.023224 507.764069,297.163818 505.877563,295.313019 
	C493.641724,283.308960 481.600220,271.108521 469.486084,258.981750 
	C467.959686,257.453766 466.075836,256.382629 464.501251,254.361145 
	C463.351776,246.660294 463.685883,239.308060 464.197327,231.560410 
	C466.133606,228.040817 468.576935,228.507431 471.129883,230.035507 
	C472.712006,230.982498 473.927551,232.385605 475.218689,233.680252 
	C485.910583,244.401047 496.627411,255.097046 507.347961,265.789032 
	C509.370880,267.806580 511.156921,269.937775 512.749573,272.724030 
z"/>
<path fill="#ED0157" opacity="1.000000" stroke="none" 
	d="
M465.753235,255.232849 
	C468.859161,254.836029 470.293976,256.804321 471.914795,258.423157 
	C483.855286,270.348663 495.776733,282.293243 507.729248,294.206665 
	C509.116852,295.589722 510.282837,297.292206 512.663086,297.934387 
	C513.000000,306.020905 513.000000,314.041809 513.000000,322.531372 
	C510.606171,324.745422 508.824371,323.177979 507.312500,321.687164 
	C494.143402,308.701904 480.928192,295.759521 468.177032,282.361572 
	C466.939423,281.061188 465.186249,280.199249 464.289581,278.027588 
	C463.479065,271.761627 463.763184,265.875275 463.860657,259.993439 
	C463.887848,258.353638 464.008636,256.701569 465.753235,255.232849 
z"/>
<path fill="#E8006D" opacity="1.000000" stroke="none" 
	d="
M513.000000,272.531372 
	C510.618683,272.724335 509.361023,270.834778 507.864288,269.342896 
	C495.915070,257.432495 484.002655,245.485168 472.052673,233.575516 
	C470.559784,232.087692 469.308350,230.171890 466.518738,230.019043 
	C463.785065,228.834869 463.887848,226.572205 463.845276,224.469910 
	C463.729126,218.737396 463.549011,213.000732 464.141998,206.861374 
	C465.607300,203.642181 467.692810,203.769882 470.039886,205.034378 
	C470.622375,205.348206 471.161560,205.746933 471.629303,206.216919 
	C485.280914,219.934235 499.365570,233.222855 512.738525,247.737457 
	C513.000000,256.020905 513.000000,264.041809 513.000000,272.531372 
z"/>
<path fill="#F10142" opacity="1.000000" stroke="none" 
	d="
M513.000000,369.531372 
	C512.709412,369.342651 512.312866,369.266663 511.432495,369.952301 
	C507.707397,370.750763 505.882538,368.353729 503.918243,366.403473 
	C492.386536,354.954254 480.900635,343.458527 469.454315,331.924377 
	C467.936066,330.394440 466.010712,329.381775 464.482849,327.322144 
	C463.372589,319.640289 463.663177,312.309082 464.218201,304.586182 
	C466.142181,301.168060 468.446869,301.927063 470.680359,303.484680 
	C472.726562,304.911713 474.383118,306.812683 476.120087,308.593903 
	C488.172913,320.953979 500.875275,332.673798 512.739258,345.738342 
	C513.000000,353.687592 513.000000,361.375153 513.000000,369.531372 
z"/>
<path fill="#EF014C" opacity="1.000000" stroke="none" 
	d="
M513.000000,345.531372 
	C510.320190,346.204041 508.826202,344.326202 507.192688,342.692719 
	C495.255096,330.755066 483.325745,318.809143 471.368317,306.891388 
	C469.978149,305.505859 468.809143,303.815643 466.491486,303.073975 
	C465.414948,302.614227 464.600586,302.096985 464.506500,301.285034 
	C463.662598,294.002869 462.501129,286.695801 465.729370,279.270264 
	C468.346375,279.326965 469.532593,281.054657 470.926941,282.445404 
	C483.193665,294.680511 495.429779,306.946259 507.700378,319.177429 
	C509.097443,320.569946 510.269714,322.285767 512.663086,322.934448 
	C513.000000,330.354248 513.000000,337.708496 513.000000,345.531372 
z"/>
<path fill="#FF4800" opacity="1.000000" stroke="none" 
	d="
M378.237976,510.550781 
	C375.253326,511.718140 372.025787,509.656250 369.779785,512.610596 
	C365.643097,513.000000 361.286194,513.000000 356.464661,513.000000 
	C342.220215,500.357880 329.367645,486.777252 316.171875,473.545532 
	C313.878479,471.245850 311.392517,468.570831 314.619507,464.704468 
	C321.621490,463.143738 328.330627,463.847260 335.430481,464.099792 
	C339.804840,467.183533 343.289001,470.718506 346.784851,474.238678 
	C356.179688,483.698883 365.696259,493.038116 375.019287,502.569061 
	C377.068909,504.664459 379.601898,506.684326 378.237976,510.550781 
z"/>
<path fill="#E30083" opacity="1.000000" stroke="none" 
	d="
M335.227722,48.240868 
	C334.664337,46.177010 334.033875,44.673775 332.728851,43.528889 
	C319.781128,32.169807 308.277008,19.339226 295.897552,7.401008 
	C294.212463,5.776012 292.664825,4.070768 292.061401,1.347359 
	C299.354248,1.000000 306.708496,1.000000 314.531372,1.000000 
	C329.567413,14.427809 343.178436,28.822912 357.202026,42.800140 
	C359.179138,44.770706 361.307861,47.070164 358.266296,50.342957 
	C350.263641,51.845760 342.784698,51.104527 335.227722,48.240868 
z"/>
<path fill="#E60078" opacity="1.000000" stroke="none" 
	d="
M513.000000,247.531372 
	C510.320190,248.203735 508.826294,246.325684 507.192841,244.692215 
	C495.255188,232.754532 483.325836,220.808548 471.368378,208.890717 
	C469.978149,207.505127 468.808746,205.815445 466.491821,205.072235 
	C463.783661,203.834015 463.896301,201.571716 463.844788,199.469620 
	C463.720428,194.393387 463.572601,189.312698 464.149170,183.831726 
	C465.849335,180.332687 468.125488,180.810394 470.470673,182.333405 
	C472.424469,183.602234 473.909790,185.425720 475.555664,187.050980 
	C487.093201,198.443939 498.403961,210.064972 510.044525,221.353897 
	C511.012634,222.292694 511.697296,223.408737 512.749268,224.727295 
	C513.000000,232.354248 513.000000,239.708496 513.000000,247.531372 
z"/>
<path fill="#FF5400" opacity="1.000000" stroke="none" 
	d="
M313.761658,465.752075 
	C314.458374,468.978394 316.341614,470.857758 318.242767,472.754791 
	C329.673523,484.160645 341.093689,495.577087 352.493561,507.013733 
	C353.992157,508.517120 355.909180,509.795044 355.969788,512.639893 
	C348.979034,513.000000 341.958099,513.000000 334.468567,513.000000 
	C329.954651,510.895508 326.988892,507.513763 323.838043,504.362274 
	C313.757446,494.279724 303.586945,484.285370 293.650604,474.061249 
	C291.192413,471.531830 288.096832,468.780365 291.911316,464.531860 
	C299.397247,463.936279 306.572266,462.335083 313.761658,465.752075 
z"/>
<path fill="#FF9F00" opacity="1.000000" stroke="none" 
	d="
M1.249425,329.273773 
	C1.000000,322.312347 1.000000,315.624725 1.000000,308.468536 
	C4.184446,305.539886 6.289185,307.931946 8.262399,309.827332 
	C14.355396,315.679993 20.258829,321.727631 26.231705,327.703735 
	C34.296658,335.773041 42.444237,343.761017 50.462975,352.426025 
	C51.018967,359.304352 52.345108,365.770020 51.671806,372.724182 
	C48.994320,376.582947 46.269497,375.202911 43.846973,373.153503 
	C40.418285,370.252838 37.371689,366.925415 34.200653,363.741974 
	C25.038326,354.543579 15.849994,345.371002 6.648565,336.212067 
	C4.621871,334.194702 2.846090,332.055054 1.249425,329.273773 
z"/>
<path fill="#FF8500" opacity="1.000000" stroke="none" 
	d="
M1.249134,274.272766 
	C1.000000,266.979065 1.000000,259.958099 1.000000,252.468567 
	C4.463673,249.977600 6.232694,252.838531 8.122103,254.687500 
	C18.112896,264.464386 27.948822,274.398590 37.811775,284.304657 
	C41.563080,288.072327 45.473045,291.666565 49.550289,295.650452 
	C50.575577,302.696838 50.347359,309.386688 49.761623,316.465576 
	C47.278206,320.358704 44.750755,318.778748 42.536430,316.867218 
	C38.904503,313.731964 35.663296,310.171844 32.265984,306.781921 
	C23.713631,298.248260 15.200428,289.675140 6.613951,281.176239 
	C4.591959,279.174835 2.842052,277.035156 1.249134,274.272766 
z"/>
<path fill="#FF7900" opacity="1.000000" stroke="none" 
	d="
M276.231537,512.711304 
	C268.979065,513.000000 261.958099,513.000000 254.468567,513.000000 
	C250.052383,511.006165 247.196701,507.715637 244.145660,504.665863 
	C233.775360,494.299500 223.339066,483.998352 213.083588,473.518463 
	C210.757462,471.141510 208.180145,468.581573 211.559586,464.698792 
	C218.257339,463.183838 224.659241,463.830383 231.450897,464.116638 
	C235.160172,466.243439 237.090988,469.639832 239.776779,472.299866 
	C250.966049,483.382080 262.127136,494.494324 273.177460,505.715851 
	C274.978302,507.544586 277.388580,509.202362 276.231537,512.711304 
z"/>
<path fill="#F10142" opacity="1.000000" stroke="none" 
	d="
M143.735596,3.171110 
	C144.188126,2.395127 144.425034,1.921444 144.330963,1.223881 
	C150.687637,1.000000 157.375290,1.000000 164.531464,1.000000 
	C179.222305,14.070422 192.468933,28.128183 206.154877,41.740883 
	C208.128998,43.704445 210.283356,45.983273 207.346664,49.299835 
	C200.336929,50.844070 193.623077,50.176315 186.519928,49.855648 
	C173.171646,36.638840 160.087143,23.658056 147.080048,10.600097 
	C146.257721,9.774560 145.402908,8.974714 144.700058,8.042800 
	C143.680344,6.690720 142.758957,5.293886 143.735596,3.171110 
z"/>
<path fill="#EA0062" opacity="1.000000" stroke="none" 
	d="
M240.531433,1.000000 
	C241.276031,3.382745 243.167267,4.640564 244.659927,6.138237 
	C256.342987,17.860643 268.052673,29.556520 279.759216,41.255501 
	C281.400970,42.896175 283.225739,44.423073 282.996674,47.464622 
	C282.616302,48.582047 282.102020,49.384342 281.290741,49.491688 
	C275.003143,50.323608 268.687012,51.455807 262.271790,48.270500 
	C262.162842,45.138752 260.192474,43.705170 258.574066,42.084671 
	C246.649017,30.144405 234.704590,18.223480 222.791473,6.271341 
	C221.408493,4.883838 219.705872,3.717926 219.065125,1.337026 
	C226.020950,1.000000 233.041901,1.000000 240.531433,1.000000 
z"/>
<path fill="#DF0098" opacity="1.000000" stroke="none" 
	d="
M452.594055,98.325790 
	C455.805023,97.737709 457.351593,99.860237 459.095154,101.602463 
	C475.073212,117.568359 491.036896,133.548630 507.024292,149.505127 
	C508.523956,151.001877 509.803864,152.907364 512.639648,152.972351 
	C513.000000,159.021149 513.000000,165.042297 513.000000,171.531723 
	C509.555115,174.033768 507.760834,171.185806 505.905518,169.343674 
	C492.975006,156.505219 480.089142,143.621277 467.191681,130.749329 
	C465.476807,129.037872 464.158844,126.728165 461.136627,126.007782 
	C459.253937,124.640121 458.628693,122.864815 458.244904,121.142006 
	C456.917267,115.182220 454.848541,109.489159 452.525513,103.866470 
	C451.826660,102.174942 451.463409,100.402565 452.594055,98.325790 
z"/>
<path fill="#FF6000" opacity="1.000000" stroke="none" 
	d="
M290.761536,465.752991 
	C291.458496,468.976532 293.339417,470.856171 295.239929,472.752625 
	C306.901520,484.389221 318.552948,496.036011 330.181976,507.705109 
	C331.572845,509.100769 333.286560,510.272003 333.934357,512.663147 
	C327.312347,513.000000 320.624725,513.000000 313.468536,513.000000 
	C308.942505,510.920929 306.010284,507.512848 302.862244,504.370544 
	C292.320221,493.847504 281.721680,483.380096 271.308563,472.729645 
	C269.181854,470.554504 266.404846,468.228546 269.920593,464.541321 
	C277.071716,463.908691 283.910614,462.405426 290.761536,465.752991 
z"/>
<path fill="#FF5400" opacity="1.000000" stroke="none" 
	d="
M1.249104,178.272675 
	C1.000000,171.645599 1.000000,165.291214 1.000000,158.468414 
	C4.461423,155.449036 6.574122,158.164322 8.626712,160.164459 
	C16.457529,167.795151 24.133425,175.583984 31.859308,183.321472 
	C37.587723,189.058472 43.281597,194.828217 49.524181,200.595016 
	C50.590401,207.331345 50.343243,213.714355 49.753765,220.485382 
	C47.252422,224.362930 44.759098,222.737686 42.519375,220.858673 
	C39.606010,218.414474 37.039646,215.582123 34.353161,212.887253 
	C25.125162,203.630463 15.885196,194.385391 6.611615,185.174591 
	C4.593918,183.170563 2.841878,181.033936 1.249104,178.272675 
z"/>
<path fill="#FF4800" opacity="1.000000" stroke="none" 
	d="
M48.244720,199.771545 
	C45.021866,199.541397 43.142189,197.658585 41.245144,195.757370 
	C29.839369,184.326569 18.422958,172.906357 6.986342,161.506454 
	C5.482947,160.007874 4.205021,158.090805 1.360106,158.030243 
	C1.000000,153.643097 1.000000,149.286194 1.000000,144.464645 
	C4.784752,143.511047 2.234970,140.523926 3.097483,138.428406 
	C5.598604,136.293076 7.324146,137.963501 8.817871,139.436203 
	C21.262466,151.705765 33.751957,163.933807 45.794865,176.599594 
	C47.031616,177.900299 48.761562,178.779205 49.689453,180.921143 
	C49.918369,187.418671 51.585323,193.630371 48.244720,199.771545 
z"/>
<path fill="#FF9300" opacity="1.000000" stroke="none" 
	d="
M49.230309,351.767517 
	C46.658081,351.672943 45.470871,349.949432 44.077496,348.559540 
	C31.703623,336.216705 19.358822,323.844757 6.984031,311.502838 
	C5.478871,310.001678 4.190775,308.103607 1.361118,308.017761 
	C1.000000,301.312347 1.000000,294.624725 1.000000,287.468536 
	C4.462285,284.976196 6.234291,287.834869 8.119768,289.684448 
	C20.350954,301.682800 32.383141,313.882294 44.498005,325.998077 
	C46.023987,327.524170 47.889271,328.615509 49.483711,330.623566 
	C50.737808,336.406525 49.829739,341.971100 50.958710,347.393585 
	C51.269463,348.886169 50.750938,350.369751 49.230309,351.767517 
z"/>
<path fill="#E1008F" opacity="1.000000" stroke="none" 
	d="
M461.535645,125.324554 
	C464.584686,124.750740 466.111359,126.607979 467.760895,128.258148 
	C481.068115,141.570816 494.371674,154.887146 507.700653,168.178024 
	C509.097260,169.570648 510.269928,171.285919 512.663086,171.934418 
	C513.000000,177.688034 513.000000,183.376083 513.000000,189.532059 
	C509.807800,192.464539 507.693634,190.070709 505.730133,188.163193 
	C497.280609,179.954575 489.005371,171.568069 480.702362,163.211182 
	C476.029541,158.508011 471.019226,154.116028 466.869171,148.926865 
	C465.750336,147.527893 463.842224,147.527039 462.712280,145.693588 
	C461.303619,140.222717 461.110657,134.946640 460.145355,129.784668 
	C459.865814,128.289948 460.195007,126.835854 461.535645,125.324554 
z"/>
<path fill="#EF014C" opacity="1.000000" stroke="none" 
	d="
M208.277191,48.272186 
	C207.678452,45.670231 205.968872,44.488274 204.587845,43.103745 
	C192.559235,31.044643 180.501877,19.014204 168.474106,6.954271 
	C166.982269,5.458441 165.100723,4.175127 165.019318,1.360975 
	C171.021149,1.000000 177.042297,1.000000 183.531723,1.000000 
	C184.284836,3.393311 186.187897,4.656163 187.688583,6.162030 
	C199.317795,17.831390 210.972412,29.475441 222.629242,41.117237 
	C224.401642,42.887329 226.223419,44.607208 226.937195,47.497204 
	C226.058487,49.741238 224.270859,50.143826 222.441849,50.084003 
	C217.786652,49.931751 212.956116,51.406540 208.277191,48.272186 
z"/>
<path fill="#FF7000" opacity="1.000000" stroke="none" 
	d="
M276.468262,513.000000 
	C275.722931,510.602936 273.816498,509.341980 272.316254,507.836517 
	C260.687256,496.166809 249.032303,484.522980 237.375580,472.880951 
	C235.603424,471.110962 233.779541,469.392487 233.069763,466.500488 
	C234.037460,463.982452 236.077621,463.939087 238.052063,463.860443 
	C241.992340,463.703461 245.934555,463.658173 250.285614,464.102661 
	C260.399353,472.227783 268.894775,481.517700 277.848267,490.331909 
	C282.944244,495.348663 288.008301,500.398682 292.995941,505.521942 
	C294.810944,507.386292 297.003571,509.287842 295.241333,512.715210 
	C288.978851,513.000000 282.957703,513.000000 276.468262,513.000000 
z"/>
<path fill="#FF9300" opacity="1.000000" stroke="none" 
	d="
M223.231293,512.713013 
	C216.645599,513.000000 210.291214,513.000000 203.468414,513.000000 
	C188.692078,499.829895 175.329102,485.704102 161.572235,471.977234 
	C159.416489,469.826233 157.520782,467.335846 160.328369,463.877319 
	C166.600266,461.723541 172.432358,464.424683 178.729736,464.199280 
	C192.509964,478.161987 206.261398,491.654022 219.830948,505.326599 
	C220.650879,506.152771 221.505478,506.950623 222.216843,507.873871 
	C223.248825,509.213165 224.184860,510.598145 223.231293,512.713013 
z"/>
<path fill="#E30083" opacity="1.000000" stroke="none" 
	d="
M513.000000,224.532059 
	C510.162933,224.623413 508.259430,222.774628 506.357971,220.868805 
	C494.717987,209.202118 483.066589,197.546768 471.392975,185.913712 
	C469.994629,184.520203 468.819061,182.820511 466.492462,182.069977 
	C464.833649,181.418976 464.055115,180.299744 464.065765,178.956589 
	C464.105682,173.918961 462.528290,168.986450 463.283081,163.528503 
	C465.039459,160.363007 467.185852,160.904510 469.373810,162.262161 
	C470.938019,163.232773 472.157471,164.632080 473.449860,165.924637 
	C485.097473,177.574005 496.726929,189.241745 508.423431,200.841751 
	C510.117035,202.521362 511.258789,204.501770 512.751099,206.727997 
	C513.000000,212.688034 513.000000,218.376083 513.000000,224.532059 
z"/>
<path fill="#FF7000" opacity="1.000000" stroke="none" 
	d="
M1.249402,235.273590 
	C1.000000,228.978851 1.000000,222.957703 1.000000,216.468277 
	C4.453507,213.977554 6.227281,216.825668 8.109787,218.672302 
	C20.318937,230.648682 32.321308,242.833923 44.426670,254.915359 
	C45.952377,256.438080 47.760139,257.587921 49.424973,259.504395 
	C50.625957,265.285217 50.318089,270.733124 49.724083,276.565430 
	C47.964275,279.617462 45.789017,279.125336 43.518726,278.001251 
	C41.389996,276.947266 39.760159,275.260773 38.110241,273.618225 
	C27.137327,262.694305 16.226559,251.707947 5.228596,240.809509 
	C3.647228,239.242462 2.709307,237.322098 1.249402,235.273590 
z"/>
<path fill="#E2008C" opacity="1.000000" stroke="none" 
	d="
M359.218445,49.237717 
	C358.673553,46.656876 356.948853,45.470497 355.559082,44.077248 
	C343.216400,31.703421 330.844513,19.358738 318.502716,6.984052 
	C317.001556,5.478903 315.103546,4.190785 315.017761,1.361122 
	C320.354919,1.000000 325.709869,1.000000 331.532410,1.000000 
	C335.698547,2.992346 338.535095,6.000369 341.456268,8.929644 
	C352.456268,19.960123 363.561249,30.886799 374.440308,42.036255 
	C376.808319,44.463116 379.694489,47.082535 376.411377,51.265205 
	C370.314178,52.766785 364.763275,52.197033 359.218445,49.237717 
z"/>
<path fill="#DF0098" opacity="1.000000" stroke="none" 
	d="
M361.533875,1.000000 
	C361.807373,3.900459 363.938843,5.429149 365.676605,7.168472 
	C381.857422,23.363640 398.056305,39.540813 414.223816,55.749256 
	C415.827698,57.357204 417.926636,58.698967 417.952301,61.748856 
	C416.743439,63.383057 415.220123,63.260933 413.846191,62.705017 
	C407.931396,60.311813 401.755829,58.588531 395.719055,55.512222 
	C394.237793,52.347683 391.447632,50.945354 389.369659,48.871456 
	C376.119385,35.647194 362.846313,22.445471 349.690399,9.127485 
	C347.681641,7.094002 344.889832,5.189694 346.761200,1.273551 
	C351.689240,1.000000 356.378510,1.000000 361.533875,1.000000 
z"/>
<path fill="#FFA900" opacity="1.000000" stroke="none" 
	d="
M1.000000,329.466858 
	C3.394112,329.278748 4.655285,331.181946 6.159451,332.681458 
	C18.759619,345.242676 31.323317,357.840454 43.924213,370.400940 
	C45.424496,371.896393 46.679874,373.825470 49.482254,373.982208 
	C51.420021,374.440887 52.463657,375.656311 52.634865,377.088898 
	C53.209507,381.897217 55.005455,386.547211 54.399258,391.868225 
	C52.359577,395.097534 50.051060,394.293213 47.769630,392.889984 
	C46.204258,391.927185 44.993229,390.515533 43.700985,389.224396 
	C30.995604,376.529816 18.321480,363.803802 5.569530,351.156219 
	C3.876686,349.477264 2.741717,347.493774 1.248580,345.271057 
	C1.000000,339.977905 1.000000,334.955811 1.000000,329.466858 
z"/>
<path fill="#FF6900" opacity="1.000000" stroke="none" 
	d="
M295.467957,513.000000 
	C295.185852,510.536224 293.594208,509.041565 292.027618,507.525940 
	C279.021240,494.942841 266.860382,481.498840 253.295670,469.484772 
	C252.493057,468.773926 252.137924,467.895660 252.019714,466.518372 
	C257.279846,462.134216 262.839630,463.283569 268.720795,465.726685 
	C269.326996,468.344971 271.053467,469.532013 272.444397,470.926453 
	C284.679810,483.193237 296.945770,495.429565 309.177216,507.700317 
	C310.569733,509.097382 312.285492,510.269836 312.934326,512.663147 
	C307.311951,513.000000 301.623932,513.000000 295.467957,513.000000 
z"/>
<path fill="#FF7900" opacity="1.000000" stroke="none" 
	d="
M1.000000,235.467606 
	C3.394022,235.278732 4.654745,237.182251 6.159259,238.681351 
	C17.466688,249.947876 28.756750,261.231903 40.020634,272.541962 
	C42.149670,274.679749 44.411110,276.590790 47.504047,277.926178 
	C51.865433,283.287109 50.717628,288.848572 48.272087,294.731415 
	C45.022758,294.542145 43.142662,292.662018 41.246178,290.761475 
	C29.609791,279.100037 17.963161,267.448730 6.294219,255.819870 
	C4.898519,254.428955 3.726933,252.715759 1.336684,252.066223 
	C1.000000,246.645065 1.000000,241.290146 1.000000,235.467606 
z"/>
<path fill="#FF6900" opacity="1.000000" stroke="none" 
	d="
M48.240486,258.776917 
	C45.140564,259.163940 43.705437,257.196259 42.084595,255.577408 
	C30.144207,243.651947 18.222900,231.707336 6.270524,219.793915 
	C4.882931,218.410828 3.716701,216.708694 1.336818,216.065796 
	C1.000000,210.645065 1.000000,205.290146 1.000000,199.467606 
	C3.386296,197.255188 5.167418,198.817276 6.676179,200.302856 
	C19.825018,213.249603 32.982880,226.190277 45.739086,239.525131 
	C46.978622,240.820877 48.661720,241.739838 49.650459,243.827805 
	C50.000820,249.038651 51.376163,253.962021 48.240486,258.776917 
z"/>
<path fill="#E2008C" opacity="1.000000" stroke="none" 
	d="
M513.000000,206.532394 
	C510.606049,206.716019 509.343201,204.812546 507.837524,203.311554 
	C495.344177,190.857132 482.886841,178.366547 470.393311,165.912308 
	C468.995514,164.518890 467.819580,162.820480 465.494507,162.068604 
	C460.998138,157.273880 462.834534,151.871918 463.795044,146.304932 
	C466.877533,145.834991 468.314117,147.824341 469.942871,149.450958 
	C482.304749,161.796494 494.647675,174.160995 507.017792,186.498276 
	C508.522461,187.998962 509.810455,189.895676 512.638916,189.982025 
	C513.000000,195.354935 513.000000,200.709854 513.000000,206.532394 
z"/>
<path fill="#FF8500" opacity="1.000000" stroke="none" 
	d="
M210.768585,465.754272 
	C210.838577,468.856018 212.805176,470.291931 214.424271,471.912994 
	C226.350311,483.853607 238.295242,495.775360 250.209030,507.728180 
	C251.592026,509.115753 253.295074,510.281494 253.935089,512.662903 
	C248.645065,513.000000 243.290146,513.000000 237.467606,513.000000 
	C222.736191,499.864868 209.405807,485.785645 195.698883,472.088104 
	C193.718781,470.109314 191.683228,467.774384 194.831650,464.595093 
	C200.360687,463.843536 205.577240,462.573181 210.768585,465.754272 
z"/>
<path fill="#FFAF00" opacity="1.000000" stroke="none" 
	d="
M1.000000,345.464661 
	C3.385811,345.276428 4.644806,347.170502 6.143658,348.665253 
	C19.753578,362.238098 33.329453,375.845093 46.940018,389.417267 
	C48.435062,390.908112 49.688698,392.827423 52.482407,392.982300 
	C53.502995,393.025665 54.320419,393.113068 54.605183,393.663025 
	C57.486397,399.227295 60.785854,404.688171 59.431473,411.677734 
	C56.187561,412.263062 54.640739,410.131500 52.894238,408.386475 
	C37.589455,393.094696 22.300253,377.787292 6.985507,362.505554 
	C5.484035,361.007294 4.207901,359.087036 1.359769,359.033661 
	C1.000000,354.643097 1.000000,350.286194 1.000000,345.464661 
z"/>
<path fill="#E1008F" opacity="1.000000" stroke="none" 
	d="
M346.533875,1.000000 
	C346.792877,3.682830 348.674561,5.176389 350.308716,6.810586 
	C364.244720,20.746830 378.188049,34.675713 392.105530,48.630405 
	C393.492432,50.020985 395.182739,51.191708 395.926025,53.510101 
	C395.430573,54.774422 394.507751,55.299629 393.500458,55.187023 
	C387.818268,54.551838 381.940155,54.629826 376.985382,50.564919 
	C376.687958,47.033569 374.597290,45.087872 372.582458,43.075573 
	C360.319214,30.827803 348.059326,18.576633 335.823578,6.301439 
	C334.430573,4.903924 332.713898,3.731278 332.065430,1.336940 
	C336.689240,1.000000 341.378510,1.000000 346.533875,1.000000 
z"/>
<path fill="#FF8E00" opacity="1.000000" stroke="none" 
	d="
M193.718384,465.724335 
	C194.323029,468.328247 196.031815,469.510742 197.412994,470.895386 
	C209.441910,482.954681 221.499359,494.985474 233.527481,507.045563 
	C235.019608,508.541595 236.899384,509.825928 236.982285,512.638916 
	C232.643097,513.000000 228.286194,513.000000 223.464645,513.000000 
	C222.720810,510.603973 220.815292,509.342621 219.314926,507.837067 
	C207.686005,496.167694 196.031387,484.523926 184.374832,472.882111 
	C182.602676,471.112152 180.779251,469.393402 180.067780,466.502319 
	C184.244110,462.308899 188.812790,463.355316 193.718384,465.724335 
z"/>
<path fill="#FFAF00" opacity="1.000000" stroke="none" 
	d="
M117.937843,459.745605 
	C118.384315,462.522888 120.299843,463.769440 121.802467,465.276703 
	C135.685074,479.202148 149.604324,493.091034 163.492661,507.010803 
	C164.995667,508.517181 166.896667,509.806122 166.982437,512.638855 
	C163.307098,513.000000 159.614182,513.000000 155.460632,513.000000 
	C155.170517,510.328064 153.319916,508.815338 151.676483,507.172607 
	C136.999161,492.501953 122.332870,477.820282 107.646080,463.159119 
	C105.402733,460.919678 103.267891,458.625488 102.093277,455.233398 
	C106.215683,452.969574 113.585518,455.036469 117.937843,459.745605 
z"/>
<path fill="#FF8E00" opacity="1.000000" stroke="none" 
	d="
M48.275204,329.721313 
	C45.139511,330.164398 43.704967,328.195709 42.084251,326.577026 
	C30.143938,314.651764 18.222784,302.707245 6.270538,290.793915 
	C4.882956,289.410828 3.716623,287.708801 1.336803,287.065857 
	C1.000000,282.975464 1.000000,278.950897 1.000000,274.463196 
	C3.398562,274.281799 4.661592,276.190002 6.169124,277.692596 
	C18.325956,289.809509 30.445646,301.963654 42.602501,314.080536 
	C44.002148,315.475616 45.178707,317.177368 47.507351,317.928650 
	C51.471996,321.556396 50.609375,325.458191 48.275204,329.721313 
z"/>
<path fill="#FF9F00" opacity="1.000000" stroke="none" 
	d="
M159.724487,464.727051 
	C159.837982,467.877747 161.829590,469.316193 163.458420,470.947205 
	C175.466858,482.972198 187.494720,494.977783 199.494629,507.011230 
	C200.997009,508.517761 202.898056,509.806244 202.982773,512.638794 
	C199.638718,513.000000 196.277420,513.000000 192.458069,513.000000 
	C191.718170,510.616425 189.825882,509.356171 188.330795,507.856598 
	C175.811142,495.298798 163.256027,482.776306 150.736893,470.218048 
	C149.353928,468.830750 147.630783,467.669769 147.087845,465.230713 
	C151.031815,461.717346 155.203857,462.220978 159.724487,464.727051 
z"/>
<path fill="#FF6000" opacity="1.000000" stroke="none" 
	d="
M48.240108,242.777954 
	C45.654552,242.673538 44.467426,240.947250 43.072956,239.556335 
	C30.806238,227.320969 18.570013,215.055023 6.299323,202.823654 
	C4.902268,201.431107 3.729647,199.715607 1.336775,199.065933 
	C1.000000,195.638718 1.000000,192.277420 1.000000,188.458069 
	C4.466919,185.446014 6.586052,188.163712 8.632484,190.171188 
	C17.511475,198.881073 26.245319,207.738342 35.060780,216.513062 
	C39.740902,221.171555 44.266201,225.991638 49.502033,230.656616 
	C50.060429,234.934692 51.224903,238.914276 48.240108,242.777954 
z"/>
<path fill="#FF5A00" opacity="1.000000" stroke="none" 
	d="
M48.270630,229.703857 
	C45.139969,230.164291 43.704903,228.194458 42.083481,226.575134 
	C30.371979,214.878845 18.678776,203.164230 6.958646,191.476608 
	C5.461228,189.983337 4.176445,188.100922 1.361129,188.017715 
	C1.000000,184.969406 1.000000,181.938812 1.000000,178.454102 
	C3.400045,178.278854 4.662243,180.188507 6.169641,181.690918 
	C18.326752,193.807877 30.446545,205.962296 42.603638,218.079285 
	C44.003223,219.474228 45.178902,221.177231 47.509247,221.925537 
	C50.656551,224.170334 50.518383,226.689789 48.270630,229.703857 
z"/>
<path fill="#F30137" opacity="1.000000" stroke="none" 
	d="
M465.762360,328.219971 
	C468.873596,327.835510 470.300903,329.829987 471.938751,331.445129 
	C484.834991,344.162628 497.723663,356.887817 510.835632,369.866150 
	C511.193665,377.217743 510.397614,384.221436 508.903381,391.581940 
	C506.143707,394.196869 504.020721,392.472382 502.310181,390.705536 
	C489.379639,377.349304 475.176300,365.222137 463.364380,350.238617 
	C463.847198,342.707306 462.549530,335.367371 465.762360,328.219971 
z"/>
<path fill="#F6012C" opacity="1.000000" stroke="none" 
	d="
M464.757355,351.229340 
	C473.292908,359.016022 481.430298,367.019562 489.541290,375.049805 
	C494.258118,379.719635 498.927155,384.437683 503.629669,389.122009 
	C504.913025,390.400391 506.081940,391.886200 508.482178,391.980316 
	C508.079834,399.112427 506.145782,405.951233 503.937500,413.103210 
	C500.548920,414.251740 498.585419,412.143066 496.591827,410.138916 
	C488.892273,402.398468 481.097137,394.752899 473.458893,386.952087 
	C469.989471,383.408783 466.244781,380.166199 462.473694,376.362244 
	C461.672882,367.699432 461.943512,359.488342 464.757355,351.229340 
z"/>
<path fill="#FF3D00" opacity="1.000000" stroke="none" 
	d="
M378.414978,510.902100 
	C377.545471,508.015991 375.655487,506.140259 373.754822,504.243774 
	C362.794464,493.307495 351.843109,482.362091 340.915741,471.392883 
	C339.522339,469.994141 337.821533,468.819275 337.071869,466.491943 
	C339.705048,462.465149 344.006592,463.852173 347.565216,463.033417 
	C350.608582,462.333191 353.869385,462.721375 357.439789,463.107941 
	C364.105103,468.073578 369.827637,473.602997 374.891968,479.623230 
	C380.885834,486.748505 388.245270,492.407257 394.441284,499.258392 
	C396.483734,501.516785 399.223785,503.544647 398.235657,507.547577 
	C391.610168,508.879486 385.222046,509.925293 378.414978,510.902100 
z"/>
<path fill="#F80120" opacity="1.000000" stroke="none" 
	d="
M463.434753,376.981201 
	C466.523712,376.791565 468.082581,378.573944 469.735931,380.230133 
	C479.483215,389.993958 489.232880,399.755463 499.011169,409.488190 
	C500.299377,410.770447 501.755585,411.883881 503.483582,413.265564 
	C502.354675,419.392365 499.991425,425.016113 497.426392,430.861084 
	C493.985687,432.945282 492.134827,430.591766 490.345612,428.796478 
	C479.853821,418.269104 469.080353,408.020050 458.769653,396.770996 
	C458.572876,389.601196 459.379700,382.980042 463.434753,376.981201 
z"/>
<path fill="#FF2F00" opacity="1.000000" stroke="none" 
	d="
M398.392059,507.892029 
	C395.068115,501.721344 389.866333,497.580414 385.100647,493.083527 
	C375.959259,484.457733 367.554871,475.137817 359.073883,465.491333 
	C361.154388,461.916748 364.765259,462.400299 367.863770,462.007294 
	C371.260529,461.576447 374.732635,461.529816 378.577332,461.487549 
	C387.261871,469.663391 395.701447,477.612762 403.342133,486.314148 
	C406.547424,489.964478 410.713898,492.501221 413.766449,496.255371 
	C415.212524,498.033783 417.231995,499.508942 416.236115,502.548462 
	C410.595367,505.659607 404.415802,505.880280 398.392059,507.892029 
z"/>
<path fill="#FA0117" opacity="1.000000" stroke="none" 
	d="
M459.460388,396.948120 
	C462.247925,397.209839 463.541534,399.064728 465.046448,400.563843 
	C473.972931,409.455811 482.863495,418.383850 491.793030,427.272736 
	C493.185089,428.658447 494.364685,430.354736 496.769348,430.973572 
	C494.968140,436.929138 491.841461,442.320923 488.411316,447.881287 
	C485.793579,449.144257 484.251556,447.656464 482.868896,446.273895 
	C472.646759,436.052277 462.140259,426.111267 452.190369,415.110229 
	C452.540833,408.094757 454.933319,402.169220 459.460388,396.948120 
z"/>
<path fill="#FD010B" opacity="1.000000" stroke="none" 
	d="
M452.776489,415.004578 
	C455.331787,415.321289 456.505310,417.040009 457.897522,418.413605 
	C467.783051,428.167053 477.646698,437.942688 487.812073,447.880249 
	C485.667023,453.085815 481.820923,457.161041 478.426636,461.899689 
	C475.528473,463.617340 473.677032,462.077972 472.004364,460.438049 
	C463.505646,452.105652 455.089142,443.690094 446.745331,435.201843 
	C445.183624,433.613129 444.322449,431.687744 443.557098,429.258728 
	C444.810577,423.210541 447.259460,418.248077 452.776489,415.004578 
z"/>
<path fill="#FF0202" opacity="1.000000" stroke="none" 
	d="
M444.166504,428.149811 
	C445.626007,430.619537 447.176300,432.728180 449.101654,434.634705 
	C457.260071,442.713440 465.351318,450.859924 473.479706,458.969025 
	C474.647858,460.134369 475.696594,461.484650 477.771851,461.972961 
	C473.963928,466.304626 469.811462,470.567078 465.352631,474.970093 
	C462.310425,475.264587 460.351044,473.776947 458.554321,471.995209 
	C450.687683,464.194275 442.833801,456.380493 435.038666,448.507843 
	C433.383972,446.836731 432.107605,444.938080 431.242584,442.354126 
	C433.172974,435.369720 438.420868,431.701599 444.166504,428.149811 
z"/>
<path fill="#FF2500" opacity="1.000000" stroke="none" 
	d="
M416.381409,502.893921 
	C415.681396,500.669403 413.968842,499.489716 412.588867,498.104858 
	C402.927765,488.409607 393.230682,478.750214 383.574768,469.049805 
	C382.088348,467.556549 380.171509,466.306793 380.021454,463.516876 
	C383.873383,458.544220 389.455872,459.301056 394.940430,458.635529 
	C405.708191,469.180786 416.140747,479.579987 426.503998,490.047821 
	C428.334442,491.896790 430.690643,493.421600 431.121063,496.683990 
	C426.502655,499.442505 421.753601,501.492706 416.381409,502.893921 
z"/>
<path fill="#FF0D00" opacity="1.000000" stroke="none" 
	d="
M431.525757,441.793640 
	C440.252167,450.472382 448.594482,459.012421 457.012634,467.477112 
	C459.460632,469.938599 462.125275,472.184601 464.868439,474.820068 
	C462.647705,478.570251 459.124420,480.704010 455.390442,483.061157 
	C453.042053,482.903564 451.902863,481.402435 450.628937,480.133881 
	C442.321686,471.861664 434.038361,463.565399 425.776184,455.248108 
	C424.146942,453.607971 422.448151,452.002625 421.980499,449.190063 
	C423.406189,444.333496 426.600800,442.098145 431.525757,441.793640 
z"/>
<path fill="#FF1E00" opacity="1.000000" stroke="none" 
	d="
M431.471161,497.017120 
	C419.256348,486.430420 408.464050,474.737640 397.186676,463.537354 
	C396.549622,462.904663 396.411621,461.769379 396.021210,460.517303 
	C397.396393,455.857635 401.347443,456.272949 405.039703,455.508362 
	C407.718719,455.920013 409.146851,457.648224 410.625732,459.130646 
	C419.838470,468.365540 429.135651,477.516266 438.284851,486.814423 
	C439.553528,488.103729 440.936218,489.341187 441.120728,491.682495 
	C438.304718,494.233978 434.985474,495.454193 431.471161,497.017120 
z"/>
<path fill="#FF1100" opacity="1.000000" stroke="none" 
	d="
M422.652893,448.609497 
	C431.715637,458.942047 441.684753,467.813019 450.901337,477.420593 
	C452.381042,478.963104 454.277130,480.195374 454.970398,482.773804 
	C452.939667,484.746582 450.840424,486.374664 448.394470,488.055847 
	C445.560364,487.866241 443.839264,486.360046 442.160858,484.681274 
	C434.051880,476.570648 425.931183,468.471619 417.847534,460.335815 
	C415.867432,458.342926 413.666138,456.409973 414.104828,452.769897 
	C416.077301,449.349823 418.535706,447.488647 422.652893,448.609497 
z"/>
<path fill="#FF1700" opacity="1.000000" stroke="none" 
	d="
M414.786804,452.863770 
	C415.377838,455.508850 417.285492,456.739197 418.768188,458.244690 
	C428.396881,468.021271 438.059326,477.764618 447.879211,487.813965 
	C446.100739,489.614777 444.192169,491.182281 441.460266,492.019104 
	C429.057068,480.979828 417.575623,469.340729 406.141052,457.179718 
	C405.933594,453.602173 408.904449,453.493927 411.332458,452.277924 
	C412.184692,452.085358 412.681122,452.055481 413.546021,452.153839 
	C414.131470,452.336365 414.351868,452.448669 414.786804,452.863770 
z"/>
<path fill="#DC00A4" opacity="1.000000" stroke="none" 
	d="
M510.903503,137.569458 
	C508.303772,137.555847 506.995178,135.462616 505.379974,133.848969 
	C464.424316,92.932938 423.467834,52.017567 382.623444,10.990616 
	C380.363861,8.720945 376.773621,7.570526 376.022461,3.517403 
	C383.985565,3.264205 391.739929,5.141225 399.816284,6.557600 
	C404.635406,9.955601 408.432770,13.913140 412.308441,17.795435 
	C441.500092,47.037018 470.713287,76.257095 499.967834,105.435722 
	C502.456848,107.918243 504.759979,110.509979 506.861206,113.734222 
	C509.284424,121.538162 510.079651,129.347305 510.903503,137.569458 
z"/>
<path fill="#DA00B1" opacity="1.000000" stroke="none" 
	d="
M415.740265,11.419827 
	C430.906128,15.072680 444.486481,21.862856 456.545624,31.289288 
	C478.870483,48.740292 495.053192,70.652672 503.067139,98.570267 
	C501.299438,100.639526 499.733124,99.463593 498.216614,98.459091 
	C496.967682,97.631828 495.964813,96.496552 494.908569,95.439186 
	C469.779785,70.283836 444.608704,45.170685 419.518250,19.977234 
	C417.303223,17.753107 413.985168,15.811050 415.740265,11.419827 
z"/>
<path fill="#DB00AC" opacity="1.000000" stroke="none" 
	d="
M415.654785,10.992434 
	C415.859985,13.426177 417.305298,14.814431 418.734436,16.242887 
	C445.433868,42.929417 472.124329,69.624878 498.821503,96.313667 
	C499.873352,97.365227 500.848877,98.545364 502.774170,98.910172 
	C505.386383,103.420334 506.116699,108.300880 507.078796,113.543228 
	C504.885895,113.846474 503.659973,112.149490 502.265961,110.756104 
	C469.304230,77.809875 436.349731,44.856422 403.406403,11.891822 
	C402.129333,10.613954 400.574341,9.515629 400.088074,7.239970 
	C405.294739,7.546956 410.399078,8.803713 415.654785,10.992434 
z"/>
<path fill="#F30137" opacity="1.000000" stroke="none" 
	d="
M143.496826,2.922868 
	C144.222046,5.253803 146.074692,6.553692 147.579102,8.062156 
	C158.845306,19.358757 170.143265,30.623701 181.403458,41.926285 
	C182.897675,43.426151 184.826523,44.680264 184.981476,47.481888 
	C184.193176,49.607960 182.605347,50.094410 180.891891,50.060112 
	C174.916473,49.940506 169.006989,51.013458 162.626984,50.888000 
	C159.316010,48.885475 156.904144,46.393902 154.463104,43.969391 
	C144.211945,33.787640 133.979187,23.586573 123.827629,13.305625 
	C121.815529,11.267893 119.001274,9.388043 120.752380,5.445689 
	C128.316422,4.125571 135.590332,2.654437 143.496826,2.922868 
z"/>
<path fill="#F6012C" opacity="1.000000" stroke="none" 
	d="
M120.599998,5.110223 
	C120.835922,7.863567 122.810143,9.298805 124.430786,10.921840 
	C135.319153,21.826323 146.228638,32.709728 157.104294,43.626850 
	C158.491058,45.018890 160.183685,46.188683 160.926178,48.508522 
	C160.084518,50.845367 158.248535,51.103729 156.392853,51.099468 
	C150.241745,51.085354 144.191742,52.545719 137.619568,52.287254 
	C134.476501,51.283016 132.646179,49.043198 130.708160,47.139233 
	C121.159897,37.758633 111.666656,28.318821 102.308052,18.747427 
	C100.372932,16.768303 98.197838,14.788669 98.782837,11.218880 
	C105.687019,7.676270 113.173141,7.200621 120.599998,5.110223 
z"/>
<path fill="#FF3D00" opacity="1.000000" stroke="none" 
	d="
M48.241127,179.774719 
	C45.671715,179.676651 44.489952,177.967346 43.105591,176.586700 
	C31.516235,165.028320 19.957689,153.439041 8.363607,141.885422 
	C6.975017,140.501694 5.808594,138.811569 3.491105,138.074799 
	C3.574877,131.195511 4.188799,124.418449 6.083157,117.404442 
	C8.184422,115.216019 10.003333,116.191307 11.435121,117.693764 
	C17.741646,124.311569 24.405825,130.570267 30.860899,137.036377 
	C37.311802,143.498306 43.470119,150.270737 50.555237,156.663818 
	C51.628242,164.690979 51.074638,172.207413 48.241127,179.774719 
z"/>
<path fill="#F80120" opacity="1.000000" stroke="none" 
	d="
M98.562042,10.937487 
	C102.955635,17.719685 109.325737,22.396984 114.591194,28.077435 
	C121.542465,35.576572 129.564209,42.047535 135.924316,50.512772 
	C134.744629,53.556686 131.958847,53.348957 129.718033,53.870049 
	C126.093361,54.712959 122.426895,55.445992 118.329666,55.994476 
	C114.676414,55.423573 112.124031,53.618542 109.850868,51.360107 
	C101.002670,42.569260 92.153381,33.779102 83.411766,24.882214 
	C81.701981,23.142057 79.571693,21.487343 80.737434,18.190723 
	C86.252983,14.480083 92.171745,12.632019 98.562042,10.937487 
z"/>
<path fill="#FF2F00" opacity="1.000000" stroke="none" 
	d="
M49.227062,155.797180 
	C46.809650,155.624115 45.120117,154.633713 43.693237,153.176147 
	C35.059750,144.357010 26.645285,135.306778 17.690048,126.827621 
	C14.179141,123.503365 11.389338,119.274773 6.517395,117.021072 
	C6.789301,110.923492 8.811641,105.173477 10.620043,99.094078 
	C16.351225,98.970413 18.725199,103.722961 21.800114,106.735886 
	C29.092333,113.881065 36.628757,120.838104 43.253284,128.656204 
	C45.724674,131.572876 49.262981,133.276260 51.952950,136.500061 
	C52.177597,143.235962 52.773289,149.664322 49.227062,155.797180 
z"/>
<path fill="#FF0202" opacity="1.000000" stroke="none" 
	d="
M37.826096,50.233700 
	C42.418144,45.315315 46.884163,40.739777 51.656265,36.021267 
	C56.087566,38.495712 58.829998,42.553799 62.290394,45.864735 
	C68.667763,51.966640 74.830284,58.293819 81.054649,64.554749 
	C82.462196,65.970558 83.925858,67.354584 84.705528,69.672157 
	C82.716255,76.743576 77.490486,80.530838 71.510376,84.019882 
	C68.580460,83.993996 66.902573,82.354439 65.241035,80.716370 
	C56.966797,72.559036 48.792793,64.301155 40.586586,56.075706 
	C39.079166,54.564747 37.383575,53.078465 37.826096,50.233700 
z"/>
<path fill="#FA0117" opacity="1.000000" stroke="none" 
	d="
M80.580917,17.933756 
	C81.123772,19.279102 81.862907,20.352785 82.829453,21.318283 
	C93.189896,31.667498 103.535416,42.031719 113.922745,52.353859 
	C114.601357,53.028210 115.588905,53.391670 116.776947,53.970081 
	C117.322937,55.931606 115.939667,56.656013 114.579346,57.174961 
	C109.561867,59.089088 104.733040,61.581886 98.932533,62.279144 
	C96.476830,61.502575 94.751358,60.223907 93.215096,58.691448 
	C84.267715,49.766285 75.288460,40.872887 66.414391,31.874510 
	C65.245514,30.689255 64.056274,29.496576 63.921326,27.315525 
	C69.055199,23.469221 74.147179,19.849010 80.580917,17.933756 
z"/>
<path fill="#FD010B" opacity="1.000000" stroke="none" 
	d="
M63.575073,27.095970 
	C75.667664,37.634792 86.660271,49.107841 97.872849,60.822685 
	C96.623032,65.399384 89.900650,70.146362 84.407486,70.290733 
	C73.314278,60.492409 63.601109,49.836002 53.325424,39.751480 
	C52.460781,38.902920 52.077297,37.817333 51.986511,36.247295 
	C55.445629,32.628006 59.134071,29.646015 63.575073,27.095970 
z"/>
<path fill="#FF2500" opacity="1.000000" stroke="none" 
	d="
M51.227829,135.799469 
	C47.405807,135.785217 45.077621,133.585251 42.896763,131.343903 
	C35.678387,123.925308 28.608402,116.362282 21.385681,108.947998 
	C18.174467,105.651611 14.734289,102.578270 11.174308,99.147598 
	C11.637303,94.938049 12.755437,91.133850 15.000860,87.330246 
	C18.423391,84.557106 20.512754,87.066010 22.424496,88.982880 
	C33.004059,99.590828 43.880795,109.905754 54.248489,121.268204 
	C54.923386,126.580093 54.237522,131.289520 51.227829,135.799469 
z"/>
<path fill="#FF0D00" opacity="1.000000" stroke="none" 
	d="
M37.642174,50.035019 
	C48.305904,61.330048 59.440525,71.994186 70.821671,82.873894 
	C71.531372,88.757408 67.674049,92.093208 63.762184,95.717941 
	C61.176876,96.145195 59.555744,94.942101 58.120090,93.528931 
	C48.749138,84.304657 39.477787,74.980103 30.187822,65.674347 
	C29.336514,64.821594 28.883194,63.761208 28.318823,62.342827 
	C30.702778,57.668518 33.893223,53.827648 37.642174,50.035019 
z"/>
<path fill="#FF1700" opacity="1.000000" stroke="none" 
	d="
M28.009045,62.328827 
	C30.343857,62.315750 31.509581,64.046043 32.900368,65.418007 
	C42.785297,75.169182 52.646889,84.944023 62.810394,94.880142 
	C64.200706,100.402245 61.212334,104.290817 58.036583,108.403870 
	C55.491505,109.057236 53.741154,108.009552 52.310780,106.619255 
	C42.088314,96.683113 31.956429,86.654457 22.069460,76.382317 
	C21.616570,75.911781 21.404913,75.239723 20.995327,74.303238 
	C23.090139,70.116539 24.736982,65.927299 28.009045,62.328827 
z"/>
<path fill="#FF1E00" opacity="1.000000" stroke="none" 
	d="
M20.572035,74.136261 
	C23.268251,74.225014 24.551043,76.093224 26.069986,77.583549 
	C36.257717,87.579361 46.425755,97.595238 56.819946,107.859360 
	C58.862831,112.604271 57.638485,117.266029 53.258125,120.947342 
	C50.668140,120.676346 49.487957,118.962379 48.101871,117.581589 
	C38.958080,108.472725 29.846773,99.331276 20.706514,90.218864 
	C19.320692,88.837257 18.111738,87.135315 15.516350,87.018478 
	C16.169353,82.490028 18.630821,78.567940 20.572035,74.136261 
z"/>
<path fill="#FFBF00" opacity="1.000000" stroke="none" 
	d="
M3.096986,372.453125 
	C5.346777,372.325470 6.530975,374.051270 7.920939,375.440491 
	C51.438484,418.936584 94.945160,462.443573 138.441208,505.961182 
	C139.719635,507.240204 141.261002,508.333832 141.921982,510.506470 
	C134.082123,511.368469 126.409569,509.771912 118.366119,508.022644 
	C115.234169,505.697632 112.735260,503.275391 110.268158,500.803558 
	C77.285805,467.757904 44.275566,434.740082 11.219132,401.768524 
	C9.565065,400.118652 8.077243,398.346619 6.398899,396.262817 
	C3.911321,388.465088 3.112759,380.731873 3.096986,372.453125 
z"/>
<path fill="#FFCA00" opacity="1.000000" stroke="none" 
	d="
M106.219139,504.864319 
	C97.872780,503.934570 90.536858,500.493469 83.025948,497.546143 
	C63.948280,490.059875 48.909740,477.040649 35.656212,461.988739 
	C22.204634,446.711945 13.705481,428.656433 8.934490,408.443268 
	C10.460445,406.485626 11.940931,407.415131 13.391029,408.255463 
	C14.258223,408.758026 14.972944,409.475739 15.679807,410.181763 
	C45.023037,439.491241 74.350906,468.816071 103.645599,498.174011 
	C105.370682,499.902802 107.431061,501.633881 106.219139,504.864319 
z"/>
<path fill="#FFC400" opacity="1.000000" stroke="none" 
	d="
M106.155708,505.459747 
	C105.833710,502.876617 104.139999,501.652985 102.748222,500.260468 
	C73.133881,470.630066 43.512024,441.007172 13.878887,411.395599 
	C12.602558,410.120178 11.504326,408.567596 9.226513,408.091003 
	C7.336535,404.449768 6.467097,400.688629 6.092962,396.410034 
	C8.655378,395.839630 10.068215,397.566528 11.597442,399.095795 
	C45.984390,433.484283 80.374237,467.869843 114.752884,502.266632 
	C116.144341,503.658813 117.862434,504.872437 117.979095,507.484314 
	C113.889343,508.456116 110.343369,505.848755 106.155708,505.459747 
z"/>
<path fill="#000000" opacity="0.000000" stroke="none" 
	d="
M52.902706,121.412956 
	C55.110516,117.262817 55.047535,112.729500 57.008099,108.495560 
	C59.188522,104.080788 60.127125,99.485786 62.953758,95.372940 
	C65.676964,91.255074 68.249054,87.461189 70.969582,83.353668 
	C75.355530,78.911858 79.593040,74.783691 83.972534,70.349564 
	C89.034477,67.910538 92.614380,63.588970 97.868805,61.422401 
	C104.309998,59.116585 110.146606,55.847710 116.916931,54.370926 
	C123.172073,53.284447 128.962555,51.000256 135.567596,50.904091 
	C143.967819,49.482750 151.989532,48.796673 160.539261,48.902081 
	C168.690094,48.495667 176.358536,47.594021 184.538452,47.901497 
	C192.359421,47.878574 199.716751,47.924557 207.538544,47.901489 
	C214.027985,47.878841 220.052933,47.925247 226.542419,47.902328 
	C238.361740,47.878887 249.716537,47.924774 261.535278,47.901039 
	C268.690674,47.878487 275.382111,47.925560 282.537659,47.902805 
	C291.692444,47.880276 300.383148,47.927578 309.538025,47.904644 
	C318.026245,47.881222 326.050293,47.928036 334.538452,47.904217 
	C342.723969,47.645157 350.339203,49.602753 358.542175,48.904175 
	C364.724976,48.677666 370.304535,50.580788 376.507874,50.070351 
	C383.039642,51.397194 389.119141,52.674435 395.599854,53.893372 
	C403.113525,56.456177 410.411194,58.596291 417.590454,62.060513 
	C426.511749,67.674545 434.389435,74.039917 441.169495,81.689331 
	C445.503998,86.579636 449.419647,91.777649 452.574463,97.871521 
	C455.845276,106.842644 460.041840,115.262169 461.547028,124.836258 
	C462.293396,131.761475 464.428436,138.295059 464.098328,145.549271 
	C465.502014,150.963638 464.847382,156.043121 465.100525,161.533966 
	C464.728729,168.387024 466.787140,174.667923 466.099060,181.535339 
	C466.121674,189.352966 466.075897,196.711105 466.098450,204.533295 
	C466.121582,213.021576 466.076324,221.045792 466.099609,229.534180 
	C466.122437,238.022171 466.076782,246.046021 466.099182,254.534027 
	C466.121735,262.689026 466.076172,270.379822 466.098969,278.534851 
	C466.121338,286.689728 466.075348,294.380371 466.097900,302.535217 
	C466.120911,311.023102 466.075348,319.046722 466.098389,327.534485 
	C465.739349,335.372314 466.479034,342.806000 465.098083,350.564240 
	C464.769684,359.351257 464.372772,367.701202 463.920166,376.506622 
	C462.568085,383.355804 461.271637,389.749573 459.916229,396.555115 
	C457.586853,402.732391 455.316406,408.497864 453.106201,414.632874 
	C450.419983,419.212646 447.673523,423.422943 444.733551,427.893005 
	C441.167053,433.256622 436.200897,436.866211 432.022705,441.654419 
	C429.000885,444.062561 426.120819,446.164032 423.101532,448.572906 
	C420.272705,449.750122 417.629303,450.705231 415.316833,453.009766 
	C414.832428,453.129608 414.663483,453.092682 414.241425,453.112305 
	C413.800873,453.297089 413.613434,453.425323 413.153625,453.758179 
	C410.670258,454.752075 408.459290,455.541412 406.067352,456.645325 
	C402.819672,457.912323 399.752991,458.864777 396.343658,459.991913 
	C390.944031,461.119812 385.887024,462.073029 380.415497,463.096252 
	C373.294342,463.786041 366.587738,464.405884 359.440125,465.096069 
	C351.909302,464.086609 344.950592,466.225830 337.446777,466.096375 
	C329.639801,466.119476 322.282684,466.071991 314.461517,466.095642 
	C306.639832,466.119141 299.282166,466.071564 291.460388,466.095428 
	C283.972351,466.119232 276.948456,466.071533 269.460541,466.095520 
	C263.638855,466.119476 258.281219,466.071747 252.460587,466.095459 
	C245.973969,466.118286 239.950348,466.069611 233.463486,466.092834 
	C225.975662,466.116302 218.951096,466.067871 211.463013,466.092133 
	C205.640686,466.116943 200.281860,466.069092 194.460205,466.093933 
	C189.637558,466.118347 185.277771,466.070068 180.458084,466.094238 
	C173.628296,465.783844 167.258408,465.401031 160.443207,465.091766 
	C155.983215,465.104828 151.968521,465.044312 147.495026,464.934509 
	C142.605606,463.283752 137.871292,464.002930 133.329956,463.062683 
	C128.484741,462.059448 123.502998,461.718323 118.396309,460.101135 
	C112.938736,458.438446 107.880058,456.711212 102.430862,454.933838 
	C91.866776,449.512299 82.696709,442.879242 74.800018,434.404236 
	C68.615974,427.767212 63.424088,420.572601 59.434067,412.123840 
	C57.137959,405.873871 55.156746,399.785797 53.004318,393.350525 
	C51.880798,386.947998 50.928493,380.892578 49.904572,374.420227 
	C50.310616,366.946075 48.219231,359.993713 48.903374,352.464508 
	C48.087276,344.997070 47.842461,337.969971 47.902405,330.465210 
	C47.878452,326.307098 47.925636,322.611267 47.902557,318.459595 
	C47.878410,310.647095 47.924522,303.290436 47.900925,295.470398 
	C47.878311,289.647461 47.925407,284.287933 47.902870,278.465515 
	C47.879440,271.978607 47.925644,265.954620 47.901779,259.467346 
	C47.878136,253.978882 47.924557,248.953705 47.901485,243.466583 
	C47.878948,238.975937 47.925896,234.947250 47.903080,230.459869 
	C47.879875,227.627579 47.926434,225.253952 47.903625,222.440216 
	C47.879757,214.976990 47.925251,207.953857 47.901981,200.466797 
	C47.879280,193.644653 47.925343,187.286453 47.902657,180.464188 
	C48.212776,172.305466 48.591637,164.610809 48.902184,156.457886 
	C49.442150,149.601196 50.050426,143.202774 50.747494,136.396439 
	C50.678127,131.137634 52.587490,126.598518 52.902706,121.412956 
z"/>
<path fill="#FF1100" opacity="1.000000" stroke="none" 
	d="
M413.087494,453.862610 
	C413.076111,453.684174 413.270996,453.405579 413.727112,453.147919 
	C413.790802,453.406464 413.559296,453.604370 413.087494,453.862610 
z"/>
<path fill="#FD004E" opacity="1.000000" stroke="none" 
	d="
M282.770813,128.087296 
	C300.650909,130.829163 316.682922,137.809311 331.301300,147.883621 
	C359.999268,167.660934 378.104523,194.742676 385.968506,228.681046 
	C386.077942,229.153397 385.973419,229.675323 385.900238,230.584457 
	C384.172791,232.465500 382.725739,231.436340 381.340912,230.536926 
	C380.083862,229.720459 379.085968,228.577545 378.027771,227.521240 
	C347.559204,197.107178 317.132538,166.651184 286.720367,136.180862 
	C284.598877,134.055328 281.491730,132.244934 282.770813,128.087296 
z"/>
<path fill="#FF4800" opacity="1.000000" stroke="none" 
	d="
M263.229950,388.560883 
	C257.246643,388.728027 251.454239,389.862671 245.378479,388.036682 
	C242.345764,385.812439 239.960236,383.502655 237.604507,381.142761 
	C202.061279,345.536865 166.495361,309.953644 130.870239,274.429657 
	C129.328110,272.891937 127.977982,271.218231 126.399872,269.262299 
	C123.641922,263.452423 125.597321,257.606750 125.098152,251.466492 
	C127.606934,249.264236 129.224823,251.084900 130.817841,252.438431 
	C132.972031,254.268753 134.875244,256.378387 136.872589,258.381622 
	C157.783997,279.354736 178.554443,300.473022 199.564270,321.341705 
	C219.513992,341.157410 239.346420,361.092621 259.322083,380.882935 
	C261.352997,382.894989 264.254211,384.615387 263.229950,388.560883 
z"/>
<path fill="#FE003F" opacity="1.000000" stroke="none" 
	d="
M253.759659,125.430359 
	C258.756012,125.245255 263.555969,124.204453 268.624115,125.963547 
	C272.109558,127.823647 274.681091,130.118958 277.163391,132.608597 
	C312.158722,167.707611 347.211060,202.749771 382.299316,237.755905 
	C384.317291,239.769135 386.194153,241.836746 387.617371,244.721252 
	C389.887939,249.898926 388.699219,255.043121 388.902527,260.536713 
	C387.169403,262.426727 385.716309,261.449158 384.326233,260.528717 
	C383.075409,259.700470 382.071533,258.565094 381.013092,257.507477 
	C339.832306,216.359039 298.661285,175.200806 257.548676,133.984299 
	C255.338989,131.769012 251.972748,129.850433 253.759659,125.430359 
z"/>
<path fill="#FE0039" opacity="1.000000" stroke="none" 
	d="
M253.565369,125.096741 
	C253.841187,127.657784 255.570297,129.069672 257.099426,130.598755 
	C299.500336,172.998367 341.899231,215.399979 384.307404,257.792297 
	C385.473602,258.958069 386.493042,260.337372 388.508575,260.923218 
	C389.621460,266.263733 387.343781,271.327911 387.454498,276.812378 
	C384.548981,278.198669 382.994965,276.420074 381.521301,274.935425 
	C367.846680,261.158508 353.729492,247.819351 340.525024,233.578766 
	C339.462616,232.432983 338.301727,231.630188 336.570129,230.925903 
	C333.555725,227.685837 332.545258,223.743958 330.760895,220.221085 
	C323.059662,205.016037 311.848511,193.224030 296.970947,184.912979 
	C295.236938,183.944321 293.455048,183.038757 291.984558,181.130173 
	C291.150757,178.921387 290.168213,177.359924 288.648987,175.895569 
	C273.831848,161.613495 259.458405,146.882660 244.904633,132.333832 
	C243.398895,130.828613 241.778229,129.232468 242.769089,126.438095 
	C246.328079,125.348785 249.663818,124.617142 253.565369,125.096741 
z"/>
<path fill="#FF4100" opacity="1.000000" stroke="none" 
	d="
M263.413879,388.902832 
	C262.675659,386.653198 260.949158,385.468323 259.559326,384.077759 
	C216.397049,340.893951 173.223801,297.721039 130.039963,254.558777 
	C128.760315,253.279785 127.665756,251.738113 125.492226,251.077026 
	C125.527313,246.454849 125.887230,241.905899 126.602234,237.121384 
	C129.023239,236.999359 130.090973,238.619339 131.352127,239.881912 
	C145.410217,253.955948 159.543350,267.955109 173.530411,282.099579 
	C174.617416,283.198822 175.702179,284.100067 177.482956,284.712158 
	C179.332336,285.749023 180.113617,287.244446 180.776230,288.757294 
	C189.310730,308.243225 203.238297,322.541595 222.246719,331.965271 
	C223.602951,332.637695 224.846420,333.431854 225.984406,334.943390 
	C226.531509,336.709595 227.087601,337.923645 228.274094,339.056885 
	C242.472672,352.618011 256.109619,366.747070 270.035248,380.585205 
	C271.857635,382.396088 274.266113,384.066589 273.230591,387.561279 
	C269.942047,388.212738 266.886688,388.592865 263.413879,388.902832 
z"/>
<path fill="#FF4F00" opacity="1.000000" stroke="none" 
	d="
M126.096878,269.441589 
	C128.654205,268.841187 130.066971,270.565765 131.595474,272.094330 
	C168.316925,308.817383 205.041183,345.537567 241.754578,382.268646 
	C243.145416,383.660187 244.861343,384.873871 244.979828,387.483521 
	C240.371201,388.742798 235.949142,386.884979 231.168991,386.472626 
	C197.968170,353.852936 165.659637,320.906311 132.852936,288.460144 
	C130.945969,286.574127 129.972046,283.972168 127.441841,282.217804 
	C127.093513,277.931763 125.374825,274.019012 126.096878,269.441589 
z"/>
<path fill="#FD0044" opacity="1.000000" stroke="none" 
	d="
M387.901917,244.558960 
	C385.653839,244.675308 384.467834,242.949173 383.076324,241.558502 
	C346.226227,204.730637 309.387421,167.891495 272.559418,131.041489 
	C271.279755,129.761063 269.737976,128.665588 269.074280,126.492233 
	C273.618652,125.225670 278.026855,127.157242 282.802307,127.496780 
	C283.133789,129.873123 284.581207,131.074539 285.872498,132.365982 
	C317.797760,164.294998 349.721344,196.225708 381.669769,228.131516 
	C382.708832,229.169159 384.005646,229.948669 385.507019,230.921661 
	C387.835724,235.158798 388.125488,239.602264 387.901917,244.558960 
z"/>
<path fill="#FE0127" opacity="1.000000" stroke="none" 
	d="
M204.786438,136.218536 
	C211.383774,132.661240 218.177216,130.500397 225.603714,129.098267 
	C227.901840,129.846848 229.499115,130.929596 230.938431,132.376801 
	C241.797348,143.295242 252.735962,154.134720 263.556122,165.091278 
	C265.812775,167.376373 268.699463,169.742050 265.734253,173.807098 
	C257.782013,174.033844 250.210358,174.934708 242.216873,175.214142 
	C236.131424,171.367920 231.738892,166.150696 226.917191,161.413315 
	C220.521866,155.129852 214.194962,148.775024 207.899185,142.390961 
	C206.295715,140.764999 204.355972,139.252533 204.786438,136.218536 
z"/>
<path fill="#FF0202" opacity="1.000000" stroke="none" 
	d="
M154.956116,174.311676 
	C156.370392,169.523376 160.572372,167.432724 163.410522,164.166336 
	C165.867493,161.338669 168.683670,158.823135 171.646698,156.027344 
	C173.326553,156.076477 174.380127,156.772476 175.349533,157.766220 
	C184.384293,167.027695 193.650253,176.059219 202.745148,185.261169 
	C203.917465,186.447281 205.008957,187.691986 205.604919,189.682434 
	C205.586731,192.288193 204.025070,193.656799 202.538025,194.944443 
	C198.154968,198.739853 194.995712,203.832855 189.522522,206.919617 
	C187.183578,207.054504 185.671432,206.039383 184.359482,204.750748 
	C174.815735,195.376389 165.328110,185.945374 155.967651,176.387390 
	C155.496063,175.905838 155.226547,175.302155 154.956116,174.311676 
z"/>
<path fill="#FE0127" opacity="1.000000" stroke="none" 
	d="
M384.999237,286.690063 
	C384.252808,293.816406 382.188232,300.223206 378.999207,306.666992 
	C375.619659,308.849548 373.876923,306.299622 372.100891,304.532410 
	C361.256927,293.742493 350.271271,283.092133 339.548218,271.635620 
	C338.571289,268.165924 338.929443,265.095764 339.506348,261.980652 
	C340.385620,257.233063 339.211670,252.465210 339.535675,247.321228 
	C341.956787,243.667664 344.305634,245.348251 346.385559,247.053146 
	C349.456146,249.570068 352.075195,252.585632 354.894470,255.380219 
	C363.706818,264.115265 372.418610,272.951294 381.244629,281.672729 
	C382.663727,283.075043 384.038086,284.496063 384.999237,286.690063 
z"/>
<path fill="#FE0119" opacity="1.000000" stroke="none" 
	d="
M204.587509,135.944946 
	C214.993347,147.224457 226.245163,157.367813 236.736862,168.257507 
	C238.220093,169.797028 240.092606,171.031677 240.926270,173.508423 
	C240.777557,174.689468 240.263702,175.417160 239.477600,175.701477 
	C233.098999,178.008514 226.866135,180.756409 219.809341,182.113129 
	C213.012772,177.507248 208.113174,171.361786 202.503922,165.967819 
	C197.953918,161.592438 193.515427,157.096893 189.103760,152.579498 
	C187.496338,150.933548 185.653976,149.354706 185.885223,146.315872 
	C191.423462,141.580261 198.020538,139.153442 204.587509,135.944946 
z"/>
<path fill="#FF5400" opacity="1.000000" stroke="none" 
	d="
M127.232079,282.378693 
	C129.653900,281.841705 131.067032,283.565674 132.595612,285.094360 
	C164.374054,316.874573 196.154755,348.652618 227.929123,380.436890 
	C229.328644,381.836853 230.977921,383.107361 230.941162,385.760315 
	C226.730026,385.705109 222.694351,384.534668 218.349548,383.013245 
	C214.859436,380.632324 212.262375,377.855591 209.570465,375.147308 
	C186.347626,351.782837 163.050354,328.492310 139.706879,305.248230 
	C136.894882,302.448242 133.626633,300.080902 131.394440,296.267212 
	C128.988373,291.845734 129.010681,287.048615 127.232079,282.378693 
z"/>
<path fill="#ED0083" opacity="1.000000" stroke="none" 
	d="
M418.180969,138.773911 
	C415.818817,144.717010 410.583527,146.595993 405.408997,149.055542 
	C402.821655,148.750137 401.086090,147.588699 399.509216,146.006592 
	C389.071350,135.534271 378.614441,125.080826 368.145782,114.639198 
	C366.704742,113.201866 365.491608,111.673805 364.953278,109.305183 
	C366.744659,103.745888 369.295868,99.032578 374.541168,95.972855 
	C377.407837,94.981133 379.014191,96.576981 380.541473,98.089310 
	C392.336609,109.768845 404.062653,121.517845 415.761719,133.293549 
	C417.162384,134.703384 418.614441,136.149872 418.180969,138.773911 
z"/>
<path fill="#FE0032" opacity="1.000000" stroke="none" 
	d="
M266.175842,173.213242 
	C266.164490,170.137207 264.191040,168.701584 262.570251,167.078415 
	C251.681610,156.173904 240.771912,145.290421 229.896286,134.372971 
	C228.509705,132.981094 226.815094,131.812881 226.076141,129.491486 
	C231.147675,126.919754 236.612366,126.316910 242.570023,126.097000 
	C243.379898,128.524826 245.296768,129.766647 246.796478,131.271057 
	C260.656982,145.174927 274.546722,159.049683 288.431946,172.928879 
	C290.315948,174.812042 292.328949,176.599747 292.921478,179.755707 
	C292.255280,180.929047 291.229523,181.348114 290.299683,181.033020 
	C282.378937,178.348785 274.020538,177.073364 266.175842,173.213242 
z"/>
<path fill="#FF0202" opacity="1.000000" stroke="none" 
	d="
M360.079865,338.690369 
	C356.784821,345.027527 351.095154,348.859375 346.351196,353.971436 
	C344.254364,354.151489 342.873901,353.298798 341.660126,352.090302 
	C332.493408,342.963440 323.280701,333.882477 314.232147,324.637634 
	C313.409668,323.797302 312.835510,322.789368 312.306335,321.345734 
	C312.193146,320.322815 312.152832,319.587067 312.543213,319.069794 
	C316.570496,313.733490 320.633575,308.423248 326.556641,304.498810 
	C328.137848,304.699066 328.992737,305.484680 329.816406,306.313629 
	C339.054962,315.611725 348.365753,324.837738 357.594696,334.145386 
	C358.762207,335.322876 359.948669,336.518433 360.079865,338.690369 
z"/>
<path fill="#FF0110" opacity="1.000000" stroke="none" 
	d="
M360.422119,338.902527 
	C348.705322,328.283203 337.176239,317.641388 327.029724,305.224426 
	C326.799927,298.053406 330.627045,293.141418 335.215881,288.295685 
	C338.010345,287.848236 339.679138,289.257935 341.236816,290.785522 
	C350.621765,299.989227 359.816193,309.384521 369.176605,318.613037 
	C370.275726,319.696686 371.065186,320.923798 371.202637,322.779297 
	C368.532135,328.934052 364.258545,333.600403 360.422119,338.902527 
z"/>
<path fill="#FF2F00" opacity="1.000000" stroke="none" 
	d="
M303.218597,380.536499 
	C297.974701,382.310638 293.181213,384.613068 287.453888,385.065094 
	C284.632507,384.724335 282.807709,383.375977 281.123291,381.683258 
	C270.222687,370.729309 259.244598,359.852295 248.384293,348.858673 
	C246.099045,346.545380 243.307724,344.131134 246.250977,340.062195 
	C249.125671,338.414642 251.721573,339.645477 254.268280,339.794067 
	C258.361938,340.032898 262.387604,339.126709 266.847229,339.467773 
	C278.470337,351.043884 289.928467,362.286377 301.192932,373.721222 
	C302.925659,375.480133 304.810150,377.340424 303.218597,380.536499 
z"/>
<path fill="#FF0D00" opacity="1.000000" stroke="none" 
	d="
M312.537292,320.795532 
	C324.343353,331.290253 334.981140,342.451019 345.876648,353.816833 
	C341.924835,358.120636 337.571625,361.844391 332.402344,365.054199 
	C329.445099,365.519775 327.637665,364.102844 325.951874,362.431427 
	C317.485657,354.037506 309.054413,345.608521 300.665802,337.137085 
	C299.131989,335.588104 297.819855,333.885529 297.814972,331.170746 
	C301.337769,325.577148 306.117523,322.187592 312.537292,320.795532 
z"/>
<path fill="#FF2500" opacity="1.000000" stroke="none" 
	d="
M303.353516,380.785889 
	C303.156921,378.365723 301.456787,376.956543 299.938232,375.438599 
	C290.475677,365.979919 281.005157,356.529144 271.566895,347.046265 
	C270.081879,345.554199 268.169525,344.304077 268.017029,341.518066 
	C272.586365,336.420990 278.829254,336.572662 285.059692,335.626373 
	C297.622559,346.207794 308.404541,358.122284 319.775116,369.437073 
	C320.369537,370.028534 320.671783,370.819458 320.840027,372.023193 
	C315.152740,375.172546 309.431732,377.955658 303.353516,380.785889 
z"/>
<path fill="#FD010B" opacity="1.000000" stroke="none" 
	d="
M185.568604,146.094681 
	C195.678879,155.892883 205.482880,165.824600 215.261963,175.780838 
	C216.642685,177.186569 218.349045,178.362015 218.979706,180.766785 
	C216.516495,186.894592 211.289032,188.825851 205.458588,190.208679 
	C193.761261,179.259872 182.095398,168.777298 172.100372,156.198242 
	C176.144272,152.334991 180.506653,149.019897 185.568604,146.094681 
z"/>
<path fill="#FF3D00" opacity="1.000000" stroke="none" 
	d="
M177.423630,285.659576 
	C174.856873,285.734833 173.085068,284.582336 171.519821,283.016418 
	C157.336349,268.826965 143.140854,254.649506 128.984467,240.433121 
	C128.194641,239.639984 127.718422,238.534546 127.026779,237.230148 
	C126.507278,232.667435 128.233841,228.822617 129.098465,224.415009 
	C131.851471,222.265503 133.583344,224.198730 135.179489,225.778168 
	C146.840836,237.317276 158.570709,248.790283 169.880188,260.677338 
	C170.834824,261.680725 171.869492,262.363678 173.311188,263.267822 
	C175.606430,270.687469 178.352982,277.707214 177.423630,285.659576 
z"/>
<path fill="#FE0119" opacity="1.000000" stroke="none" 
	d="
M371.360107,322.934387 
	C360.865570,313.073944 350.688477,303.034393 340.496307,293.010162 
	C339.195343,291.730652 337.815643,290.531158 336.175842,289.128906 
	C335.177216,288.442505 334.592468,287.675323 334.711945,286.886017 
	C335.516022,281.574951 335.911682,276.094269 340.451416,271.957703 
	C343.271942,272.224945 344.564636,274.089844 346.073883,275.593384 
	C355.381409,284.865723 364.654572,294.172546 373.962036,303.444946 
	C375.243500,304.721558 376.335846,306.264252 378.508484,306.926025 
	C377.561066,312.759552 373.770660,317.375275 371.360107,322.934387 
z"/>
<path fill="#FF1100" opacity="1.000000" stroke="none" 
	d="
M154.577301,174.097107 
	C157.278275,174.228180 158.566772,176.102798 160.087723,177.601837 
	C169.579956,186.957367 179.049591,196.335861 188.823120,205.872772 
	C189.495331,212.763580 184.929504,216.957214 180.814789,221.693665 
	C178.242920,222.156937 176.601028,220.998627 175.172165,219.584641 
	C165.390701,209.904953 155.597260,200.236786 145.974106,190.398636 
	C145.501831,189.915771 145.227112,189.310699 144.954468,188.316162 
	C147.394012,182.963760 150.329025,178.255798 154.577301,174.097107 
z"/>
<path fill="#FF5A00" opacity="1.000000" stroke="none" 
	d="
M131.105606,296.381958 
	C134.972382,297.781311 138.032883,300.576599 140.949310,303.485077 
	C164.481964,326.953613 187.963699,350.473236 211.476364,373.961823 
	C213.954315,376.437225 216.086105,379.159454 217.924255,382.506256 
	C212.592285,381.740601 207.583313,379.571198 202.331329,376.997772 
	C199.795609,373.388245 196.029022,371.663055 193.231216,368.831390 
	C177.266052,352.673462 161.214233,336.600098 145.067291,320.623535 
	C142.213165,317.799530 140.258545,314.290283 137.157349,311.262512 
	C134.031204,306.653137 132.869720,301.572815 131.105606,296.381958 
z"/>
<path fill="#F10078" opacity="1.000000" stroke="none" 
	d="
M364.553589,109.164604 
	C375.250488,118.018318 384.459686,128.257660 394.310913,137.842896 
	C397.870178,141.306091 401.248749,144.955032 404.877899,148.814453 
	C385.824646,157.164017 364.682617,143.772446 362.883453,124.602036 
	C362.388153,119.324394 363.107544,114.388588 364.553589,109.164604 
z"/>
<path fill="#FF3D00" opacity="1.000000" stroke="none" 
	d="
M245.832886,340.771484 
	C245.834793,343.876831 247.828735,345.309082 249.449692,346.945190 
	C261.864014,359.475372 274.287628,371.996338 286.876465,384.815430 
	C282.806732,386.840179 278.263580,387.159271 273.412323,387.902283 
	C272.621338,385.481659 270.711609,384.242218 269.216278,382.742096 
	C255.631546,369.114166 242.010635,355.522278 228.417740,341.902466 
	C226.919022,340.400787 225.045914,339.096893 225.045532,336.250244 
	C225.688461,335.031647 226.696274,334.452667 227.603226,334.733154 
	C233.630997,336.597107 240.205292,336.729797 245.832886,340.771484 
z"/>
<path fill="#E2008C" opacity="1.000000" stroke="none" 
	d="
M418.375916,138.963257 
	C409.998260,129.774612 400.811279,121.540871 392.203430,112.740273 
	C386.735138,107.149521 381.061127,101.760048 375.184418,96.110580 
	C378.273499,91.672455 382.950287,90.269119 388.534790,89.920303 
	C390.315613,90.085487 391.375732,90.778831 392.351410,91.773712 
	C402.027863,101.640274 411.855652,111.356369 421.629913,121.125648 
	C422.587708,122.082916 423.302124,123.189461 424.029175,124.711884 
	C424.286591,130.410522 422.003540,134.814514 418.375916,138.963257 
z"/>
<path fill="#FF2F00" opacity="1.000000" stroke="none" 
	d="
M172.466385,263.693451 
	C169.673325,263.807190 168.409180,261.888336 166.904877,260.389618 
	C156.054993,249.580139 145.244186,238.731384 134.393127,227.923065 
	C132.994781,226.530273 131.823166,224.825668 129.492966,224.084045 
	C130.448624,219.932800 131.728897,215.853439 133.089325,211.394577 
	C136.375351,209.179459 138.139343,211.683960 139.907928,213.474121 
	C151.328598,225.034241 163.295563,236.059311 174.214386,248.636185 
	C173.854507,253.822220 175.299774,258.835388 172.466385,263.693451 
z"/>
<path fill="#FF6000" opacity="1.000000" stroke="none" 
	d="
M136.941223,311.407379 
	C139.123688,311.166412 140.344543,312.858429 141.734924,314.247467 
	C160.754959,333.249115 179.766235,352.259521 198.766525,371.280914 
	C200.153107,372.669037 201.862045,373.880524 201.979324,376.483093 
	C172.201126,363.270660 150.627884,341.490021 136.941223,311.407379 
z"/>
<path fill="#FF1E00" opacity="1.000000" stroke="none" 
	d="
M144.567047,188.108612 
	C147.272476,188.227203 148.560043,190.096771 150.077103,191.593857 
	C159.900604,201.287994 169.701813,211.004700 179.803680,220.884506 
	C182.212860,226.332199 179.115921,230.237381 176.288422,234.518417 
	C173.427490,235.796570 171.375519,234.678207 169.672928,233.028061 
	C159.589020,223.254868 149.721741,213.262711 139.843597,203.282150 
	C139.125336,202.556473 138.864746,201.572250 138.319397,200.334351 
	C139.985504,195.978470 141.703766,191.902298 144.567047,188.108612 
z"/>
<path fill="#FF1700" opacity="1.000000" stroke="none" 
	d="
M321.164673,372.234863 
	C316.800140,370.235046 314.134125,366.506866 310.940826,363.388977 
	C303.680725,356.300537 296.555328,349.073975 289.396118,341.882660 
	C288.118744,340.599548 286.592621,339.484924 286.012024,337.254700 
	C287.762604,332.820435 292.943665,330.077301 298.664734,330.605225 
	C299.467529,331.897339 299.744598,333.144501 300.507446,333.903229 
	C310.834564,344.174713 321.229218,354.378357 331.828613,364.852570 
	C328.894592,368.002167 325.468964,370.487671 321.164673,372.234863 
z"/>
<path fill="#FE0032" opacity="1.000000" stroke="none" 
	d="
M385.450043,286.821655 
	C382.727844,286.774384 381.433105,284.911896 379.924377,283.407440 
	C368.736450,272.251495 357.580963,261.063019 346.388367,249.911789 
	C344.991302,248.519867 343.817627,246.820602 341.491058,246.074280 
	C336.714386,241.724518 336.270111,236.258713 336.881836,230.266922 
	C339.877228,229.851318 341.315094,231.831879 342.951080,233.455139 
	C357.478241,247.869339 371.997467,262.291595 386.813232,276.881470 
	C386.665466,280.235504 386.223480,283.419586 385.450043,286.821655 
z"/>
<path fill="#FF2500" opacity="1.000000" stroke="none" 
	d="
M138.005478,200.328491 
	C140.347076,200.324341 141.529434,202.054535 142.923370,203.442719 
	C151.886902,212.369370 160.812958,221.333633 169.778793,230.257935 
	C171.176178,231.648849 172.358002,233.355286 174.774017,233.970505 
	C178.362457,238.959000 175.580841,243.226501 173.241638,247.794312 
	C170.656342,247.674194 169.470688,245.948624 168.076767,244.559479 
	C158.055145,234.572083 148.066238,224.551880 138.044403,214.564697 
	C136.762421,213.287140 135.672592,211.738647 133.494354,211.085510 
	C134.769897,207.580551 135.634796,203.814163 138.005478,200.328491 
z"/>
<path fill="#E1008F" opacity="1.000000" stroke="none" 
	d="
M424.485840,124.804794 
	C422.545410,124.878296 421.416748,123.918243 420.339874,122.839844 
	C410.807556,113.293991 401.249237,103.773918 391.757629,94.187798 
	C390.727844,93.147789 390.071350,91.738129 389.093262,90.185921 
	C398.159210,86.854401 412.692627,92.604797 419.048950,101.967377 
	C423.729034,108.860947 425.496857,116.367889 424.485840,124.804794 
z"/>
<path fill="#000000" opacity="0.000000" stroke="none" 
	d="
M172.885681,248.423737 
	C172.541779,243.452820 174.625427,239.298279 175.068604,234.450500 
	C176.743896,229.958710 178.369232,225.878967 180.045807,221.427124 
	C183.004990,216.261978 185.912949,211.468933 188.970215,206.357330 
	C194.047531,200.607193 198.629868,194.823593 204.956970,190.345062 
	C209.507736,187.035629 213.701981,183.717056 218.879425,181.417435 
	C225.976700,178.372849 232.683670,174.987122 240.596039,173.903061 
	C249.020782,172.659973 257.009003,170.624023 265.579498,172.888702 
	C275.234467,173.417923 283.794647,176.464737 292.597046,180.054871 
	C300.875885,184.676453 308.679993,189.279999 315.352692,195.725021 
	C325.221649,205.257217 332.272125,216.457489 337.098145,229.596252 
	C338.795319,234.952911 340.297363,239.968491 341.097443,245.589294 
	C342.852753,254.369934 341.599701,262.718445 340.930420,271.517090 
	C339.247498,277.367218 337.615173,282.771912 335.931030,288.569946 
	C333.001953,294.058594 330.124634,299.153900 327.104523,304.564514 
	C323.020813,310.623413 318.124908,315.515198 313.021698,320.655518 
	C308.351105,324.066376 303.822540,327.170441 299.129303,330.575867 
	C294.463928,332.015747 290.919861,335.395050 286.124390,336.596008 
	C280.155518,337.968781 274.716248,340.453644 268.406952,341.097290 
	C264.565247,340.566956 261.398865,342.357300 257.912720,342.121948 
	C254.205292,341.871643 250.505325,341.759857 246.422562,341.097260 
	C239.050095,340.281769 232.356567,338.422302 225.424744,335.932556 
	C213.237549,330.054840 202.216003,323.120483 193.549545,313.016541 
	C186.729370,305.065094 180.963333,296.441681 177.439941,286.142456 
	C175.336273,278.850281 172.711777,271.912109 172.461578,264.194580 
	C172.288055,258.916138 171.084915,253.797775 172.885681,248.423737 
z"/>
</svg>