<svg version="1.1" id="Layer_1" xmlns="http://www.w3.org/2000/svg" xmlns:xlink="http://www.w3.org/1999/xlink" x="0px" y="0px"
	 width="100%" viewBox="0 0 512 512" enable-background="new 0 0 512 512" xml:space="preserve">
<path fill="#F0F0F5" opacity="1.000000" stroke="none" 
	d="
M1.243974,460.275269 
	C1.000000,324.979095 1.000000,189.958206 1.000000,54.468658 
	C2.635857,51.767025 2.332636,48.946838 3.316487,46.483452 
	C12.616254,23.198479 28.880905,7.732525 53.724625,1.243994 
	C189.020889,1.000000 324.041779,1.000000 459.531342,1.000000 
	C467.138672,3.582024 474.406128,5.751071 480.899902,9.964391 
	C497.044617,20.439451 508.065796,34.525948 512.756104,53.724911 
	C513.000000,189.020889 513.000000,324.041779 513.000000,459.531342 
	C511.364075,462.232452 511.660126,465.050385 510.684509,467.515472 
	C501.442749,490.866730 485.047058,506.186676 460.275330,512.755981 
	C324.979095,513.000000 189.958206,513.000000 54.468658,513.000000 
	C50.571255,511.355072 46.774540,510.833282 43.277809,509.297791 
	C21.502687,499.735779 7.416492,483.659271 1.243974,460.275269 
z"/>
<path fill="#000000" opacity="0.000000" stroke="none" 
	d="
M513.000000,53.531342 
	C511.647949,55.121815 511.275665,53.809761 511.073761,53.039536 
	C504.336273,27.342100 487.686707,11.313909 462.747772,3.303451 
	C461.585266,2.930068 460.002228,3.254650 459.705444,1.332234 
	C476.597565,1.000000 493.196075,1.088386 509.791840,0.914655 
	C512.620728,0.885041 513.102539,1.562263 513.076782,4.266526 
	C512.922119,20.530685 513.000000,36.797054 513.000000,53.531342 
z"/>
<path fill="#000000" opacity="0.000000" stroke="none" 
	d="
M1.000000,460.468658 
	C2.349488,458.882507 2.715322,460.185760 2.928086,460.959900 
	C10.199698,487.417267 27.152117,504.092926 53.575462,511.266144 
	C53.980267,511.376038 54.255886,511.961853 54.295898,512.662781 
	C37.402420,513.000000 20.803915,512.911682 4.208154,513.085388 
	C1.379217,513.115051 0.897491,512.437683 0.923205,509.733459 
	C1.077854,493.469299 1.000000,477.202942 1.000000,460.468658 
z"/>
<path fill="#000000" opacity="0.000000" stroke="none" 
	d="
M460.468658,513.000000 
	C458.884430,511.652435 460.182861,511.285919 460.958771,511.071320 
	C487.378693,503.764069 504.178040,486.934662 511.267151,460.426971 
	C511.375427,460.022125 511.960754,459.744843 512.661743,459.704010 
	C513.000000,476.597565 512.911682,493.196075 513.085388,509.791840 
	C513.115051,512.620789 512.437744,513.102417 509.733459,513.076782 
	C493.469299,512.922119 477.202942,513.000000 460.468658,513.000000 
z"/>
<path fill="#000000" opacity="0.000000" stroke="none" 
	d="
M53.531342,1.000000 
	C55.120720,2.353562 53.809566,2.716360 53.037243,2.927625 
	C26.554226,10.171898 9.862784,27.106661 2.733448,53.571941 
	C2.624227,53.977386 2.039504,54.254742 1.338346,54.295937 
	C1.000000,37.402416 1.088390,20.803909 0.914651,4.208145 
	C0.885036,1.379199 1.562320,0.897492 4.266536,0.923205 
	C20.530691,1.077854 36.797058,1.000000 53.531342,1.000000 
z"/>
<path fill="#13131A" opacity="1.000000" stroke="none" 
	d="
M206.738953,406.255432 
	C206.909195,404.523132 207.018555,403.028503 207.018753,401.533875 
	C207.027206,338.894012 207.026764,276.254120 207.024719,213.614243 
	C207.024490,206.666763 210.446945,203.056229 217.422333,203.022415 
	C232.415573,202.949692 247.409515,202.964279 262.402924,203.016006 
	C269.320618,203.039871 272.981171,206.760635 272.999512,213.547806 
	C273.013458,218.711823 273.024017,223.875824 273.045807,229.039810 
	C273.046356,229.168762 273.161102,229.297211 273.449219,229.900253 
	C275.421875,227.629684 277.385803,225.587524 279.103912,223.356094 
	C290.110535,209.061142 305.323212,203.147980 322.618622,200.944885 
	C338.239807,198.955078 353.455200,199.802338 368.473236,204.937515 
	C383.462128,210.062744 394.123566,220.153534 401.721252,233.508270 
	C408.308289,245.086639 411.304199,257.884094 413.162964,271.108826 
	C414.849579,283.108582 414.994202,295.078674 414.997131,307.106232 
	C415.005280,340.258698 415.007965,373.411194 414.997467,406.563660 
	C414.995483,412.835510 411.794678,415.993683 405.494232,415.997009 
	C389.667664,416.005341 373.841095,416.001770 358.014526,415.998383 
	C350.358063,415.996765 347.018188,412.699677 347.009583,404.971527 
	C346.983246,381.315002 346.999969,357.658417 347.000000,334.001862 
	C347.000031,322.173584 347.441925,310.324219 346.877502,298.522949 
	C346.300201,286.452545 344.019440,274.575287 334.958008,265.559662 
	C326.648560,257.292175 316.086975,255.824188 305.043488,257.484253 
	C286.756287,260.233215 279.488647,273.691803 275.081268,289.481201 
	C273.417328,295.442261 272.914886,301.626038 272.940094,307.893097 
	C273.070007,340.212097 272.804108,372.533997 273.149414,404.849823 
	C273.227844,412.189789 268.553345,416.649933 261.410400,416.869110 
	C247.096664,417.308258 232.756729,417.182037 218.434097,416.925598 
	C210.762054,416.788239 207.752914,414.014587 206.909927,407.370453 
	C206.764725,406.815186 206.695938,406.654175 206.738953,406.255432 
z"/>
<path fill="#13131A" opacity="1.000000" stroke="none" 
	d="
M108.008804,405.443848 
	C108.001213,342.681763 107.991432,280.366028 108.009727,218.050308 
	C108.012863,207.377975 112.063667,202.566589 122.796783,202.900803 
	C136.113449,203.315475 149.452850,202.982971 162.782379,203.006699 
	C170.764847,203.020905 174.994080,207.311096 174.995224,215.400986 
	C175.004089,278.049957 174.964233,340.698975 175.034500,403.347870 
	C175.046616,414.145294 169.960114,416.576447 162.297836,416.860199 
	C148.820145,417.359283 135.308258,417.151001 121.815414,416.938904 
	C114.596924,416.825439 109.597595,413.341797 108.008804,405.443848 
z"/>
<path fill="#13131A" opacity="1.000000" stroke="none" 
	d="
M165.721008,105.241425 
	C175.784973,112.254997 181.743256,121.346680 184.090439,133.153549 
	C187.009476,147.837097 182.000092,160.131104 172.574905,170.495026 
	C166.304489,177.389954 157.937744,181.633789 148.196899,183.123276 
	C132.471359,185.527847 119.835442,180.098358 109.488998,168.881821 
	C96.854324,155.184631 95.376480,134.349258 104.702988,118.820206 
	C110.903145,108.496658 119.719933,101.559860 131.620392,99.029305 
	C143.653046,96.470642 155.162262,97.412155 165.721008,105.241425 
z"/>
<path fill="#FFFFFF" opacity="1.000000" stroke="none" 
	d="
M206.702667,406.104889 
	C206.850739,406.017761 206.977448,406.499451 206.905472,406.737854 
	C206.685287,406.814148 206.519470,406.663513 206.401413,406.481842 
	C206.372437,406.437256 206.499374,406.291351 206.702667,406.104889 
z"/>
</svg>