<svg version="1.1" id="Layer_1" xmlns="http://www.w3.org/2000/svg" xmlns:xlink="http://www.w3.org/1999/xlink" x="0px" y="0px"
	 width="100%" viewBox="0 0 512 512" enable-background="new 0 0 512 512" xml:space="preserve">
<path fill="#03A9F4" opacity="1.000000" stroke="none" 
	d="
M1.220478,419.329651 
	C1.000000,418.555542 1.000000,418.111115 1.000000,417.333313 
	C4.554773,414.808502 8.513147,415.497559 12.220360,415.905823 
	C30.303743,417.897278 48.144623,415.706909 65.795784,412.413391 
	C92.950020,407.346680 118.037300,396.806152 141.158493,381.668518 
	C143.053619,380.427734 145.239212,379.458069 146.820602,376.873749 
	C138.626587,375.880371 130.902542,374.172729 123.392021,371.518311 
	C92.026909,360.433167 70.442024,339.173737 57.687557,308.656006 
	C57.235050,307.573242 56.838539,306.480225 56.636719,305.329559 
	C55.919868,301.242493 58.072861,298.512909 62.123226,299.223511 
	C73.074081,301.144714 83.987892,300.034119 93.578773,299.333344 
	C82.394539,296.568146 71.434250,290.507111 61.364201,282.757690 
	C37.501884,264.394379 23.568401,240.262817 19.604364,210.385117 
	C19.166273,207.083130 18.591976,203.812897 18.743088,200.456238 
	C19.036798,193.932007 21.468742,192.321091 27.345465,195.071533 
	C36.599651,199.402725 46.209839,202.560745 56.278713,204.314438 
	C56.771011,204.400208 57.255180,204.512360 58.142582,204.312820 
	C54.516861,199.208572 49.210686,196.021912 45.322086,191.357788 
	C26.232128,168.460602 17.971016,142.143982 19.863369,112.635468 
	C20.788033,98.216667 24.697733,84.449257 31.571110,71.639572 
	C34.795292,65.630768 38.137955,65.363388 42.538898,70.507164 
	C66.928497,99.013489 95.461914,122.359833 128.554352,140.180496 
	C159.079697,156.618759 191.468994,167.238251 225.697586,172.372833 
	C231.779816,173.285202 237.928696,173.722000 244.031097,174.524368 
	C247.342041,174.959686 249.214081,173.647461 248.749435,170.030502 
	C247.899719,163.416245 247.325912,156.775772 247.745026,150.112946 
	C248.542816,137.429993 250.391235,124.961113 256.305603,113.063828 
	C260.614197,110.169548 261.665588,105.479149 264.083801,101.769859 
	C276.914276,82.089249 293.710602,66.935089 315.634430,58.404594 
	C353.641663,43.616108 388.634216,50.147556 420.556122,74.990242 
	C428.465424,87.333458 439.105255,82.412720 449.270325,79.346352 
	C462.175385,75.453453 474.831787,70.851707 486.815643,64.577370 
	C487.551086,64.192329 488.299774,63.825802 489.057831,63.481712 
	C490.326141,62.906010 491.602020,62.619942 492.838928,63.507908 
	C494.368469,64.605957 494.103943,66.126060 493.591614,67.570885 
	C491.808289,72.600044 488.936401,77.108704 486.661987,81.901649 
	C484.533356,86.387405 480.352173,89.650612 479.133026,95.056740 
	C474.858978,101.951073 469.270386,107.006744 462.633606,110.922340 
	C465.602386,109.363541 468.945892,109.009163 472.158600,108.302078 
	C483.692108,105.763657 494.924683,102.293282 505.888550,97.926491 
	C508.040436,97.069420 510.173737,95.943077 512.737305,97.760437 
	C513.000000,98.444443 513.000000,98.888893 513.000000,99.666672 
	C509.988190,110.134216 502.700226,117.394814 495.818085,124.774788 
	C487.305573,133.903030 478.657104,142.990707 468.410217,150.254654 
	C464.402191,153.095947 463.105682,156.612259 463.260925,161.344330 
	C464.157532,188.671234 460.612732,215.520142 453.705292,241.906265 
	C442.149689,286.048126 422.018097,325.977539 393.189270,361.316925 
	C362.508270,398.926788 324.594574,427.138855 279.692566,445.646301 
	C255.254532,455.719025 229.754410,461.976440 203.499039,465.335480 
	C182.581360,468.011627 161.546280,468.236267 140.657837,466.975861 
	C106.529366,464.916565 73.557533,457.025940 42.095695,443.238037 
	C29.858770,437.875336 18.136005,431.600647 6.615307,424.893097 
	C4.409835,423.609009 2.520054,422.042542 1.220478,419.329651 
z"/>
<path fill="#FFFFFF" opacity="0.000000" stroke="none" 
	d="
M513.000000,97.531342 
	C501.390930,102.116982 489.929535,106.744080 477.896179,109.487396 
	C471.300964,110.990959 464.727570,112.995399 456.794006,112.995224 
	C464.653870,107.636375 470.928650,101.916245 476.909973,95.417389 
	C480.476685,89.420563 485.082336,84.518211 488.156067,78.578087 
	C490.899658,73.275948 493.703552,68.005959 494.282745,61.344238 
	C487.290436,63.758240 481.364838,67.396858 475.031677,70.097046 
	C462.281860,75.533035 449.110748,79.529434 435.712952,82.906128 
	C432.459747,83.726044 429.962555,82.678139 427.617279,80.374397 
	C412.957916,65.974815 395.446503,56.762157 375.340881,52.861092 
	C353.588928,48.640587 332.421631,50.606979 312.046631,59.929394 
	C288.393219,70.751831 271.224640,88.015060 259.875580,111.266571 
	C259.509369,112.016823 259.068756,112.722801 258.389008,113.709579 
	C254.372986,123.050751 252.036041,132.392532 250.835571,142.202408 
	C249.536240,152.819962 249.913101,163.186401 251.966919,173.594116 
	C252.457199,176.078659 251.536774,177.113998 248.790237,177.055206 
	C238.740189,176.840027 228.800690,175.371307 218.948013,173.788101 
	C201.598648,171.000275 184.596420,166.517029 168.054688,160.512909 
	C141.418106,150.844696 116.591705,137.742493 93.593605,121.136665 
	C76.646027,108.899643 61.417179,94.754631 47.262962,79.475548 
	C44.545246,76.541847 41.425888,73.739235 39.390007,70.054398 
	C38.232861,67.960030 36.601852,66.908142 34.867004,70.287750 
	C28.788973,82.128166 24.704256,94.440941 22.862194,107.727364 
	C19.727379,130.338135 24.157848,151.540085 34.401859,171.401459 
	C41.094524,184.377396 50.580830,195.570404 62.634548,204.244858 
	C63.570271,204.918243 64.560829,205.515427 65.179138,206.611176 
	C49.275505,207.155457 35.248413,201.670410 21.473032,194.852753 
	C19.317278,235.902725 46.134865,284.816467 101.494873,299.637115 
	C97.221405,300.961731 93.107941,301.631622 88.864517,302.093811 
	C79.324013,303.132965 69.901733,303.259277 60.491039,301.072144 
	C58.216892,300.543579 57.634499,301.714996 58.424820,303.981171 
	C62.551861,315.815125 68.853958,326.355377 76.596924,336.177979 
	C86.240646,348.411835 98.313560,357.630066 112.094070,364.415741 
	C124.890053,370.716644 138.616348,374.338684 153.477875,375.125031 
	C147.553604,380.920746 140.815613,384.973877 134.083084,388.930267 
	C116.305969,399.377106 97.476067,407.355377 77.399559,412.263214 
	C64.338470,415.456116 51.166786,417.588196 37.671940,418.181427 
	C31.413673,418.456573 25.140205,419.201202 18.872007,418.931702 
	C13.164991,418.686310 7.482769,417.864258 1.394809,417.148193 
	C1.000000,279.891876 1.025665,142.783691 0.878815,5.675721 
	C0.874309,1.468069 1.918661,0.896095 5.820426,0.898834 
	C173.248871,1.016383 340.677429,1.024855 508.105804,0.866752 
	C512.615967,0.862493 513.117859,2.144962 513.095215,6.102211 
	C512.921814,36.421558 513.000000,66.742348 513.000000,97.531342 
z"/>
<path fill="#FFFFFF" opacity="0.000000" stroke="none" 
	d="
M1.000000,419.468658 
	C12.362089,425.044495 23.133463,432.172424 34.914165,437.450439 
	C57.837460,447.720673 81.487541,455.396790 106.247704,460.219849 
	C131.787186,465.194672 157.468918,465.766724 183.178711,464.782227 
	C204.545181,463.964111 225.602982,460.057617 246.333817,454.400177 
	C277.768250,445.821808 306.715149,432.008118 333.489716,413.678650 
	C343.891479,406.557739 353.465271,398.267822 362.885773,389.794678 
	C380.841675,373.644562 395.949249,355.180054 409.341919,335.218628 
	C430.524475,303.646698 445.089508,269.122681 453.714508,232.213364 
	C457.050140,217.938904 459.269928,203.368698 460.252960,188.596649 
	C460.826752,179.973831 461.507446,171.307846 460.738892,162.821884 
	C460.009888,154.772339 463.574982,150.321976 469.392303,146.176315 
	C480.086090,138.555542 488.746063,128.805054 497.570526,119.166992 
	C503.034454,113.199280 507.321411,106.443527 512.667114,100.098663 
	C513.000000,236.108170 512.974182,372.216370 513.121277,508.324402 
	C513.125793,512.532288 512.081055,513.103882 508.179504,513.101135 
	C340.584930,512.983643 172.990265,512.982117 5.395717,513.108704 
	C1.417798,513.111694 0.895254,511.959290 0.913664,508.399048 
	C1.066141,478.912445 1.000000,449.424713 1.000000,419.468658 
z"/>
<path fill="#03A9F4" opacity="1.000000" stroke="none" 
	d="
M258.473846,113.875702 
	C260.893280,104.976128 266.108643,97.281586 271.695221,89.927460 
	C284.943054,72.488060 302.049072,59.862942 322.993713,53.684105 
	C358.303375,43.267483 391.235992,48.544907 420.865753,71.240982 
	C422.836151,72.750298 425.114960,74.020973 426.431580,76.047546 
	C430.177826,81.813683 434.962585,81.337204 440.773834,79.748077 
	C459.837402,74.535027 478.266724,67.867050 495.407227,57.901131 
	C496.437897,57.301884 497.541962,56.828918 499.824860,55.694374 
	C493.243958,70.218597 488.478424,84.195625 477.354431,94.970619 
	C477.813385,89.483818 482.810760,86.354881 485.058990,81.549217 
	C487.620483,76.073891 491.161713,71.037056 492.842468,63.946594 
	C485.847687,67.123711 479.885468,69.921341 473.851349,72.554268 
	C460.516205,78.372940 446.580017,82.311867 432.455688,85.661713 
	C429.639374,86.329651 427.684021,85.233978 425.799530,83.324387 
	C411.482452,68.816734 394.257172,59.474861 374.412720,55.136288 
	C353.267151,50.513252 332.741669,52.721233 312.918518,61.526531 
	C289.836304,71.779472 272.784302,88.333679 261.171967,110.645302 
	C260.560547,111.820099 260.076874,113.100319 258.473846,113.875702 
z"/>
</svg>