<?xml version="1.0" standalone="no"?>
<!DOCTYPE svg PUBLIC "-//W3C//DTD SVG 20010904//EN"
 "http://www.w3.org/TR/2001/REC-SVG-20010904/DTD/svg10.dtd">
<svg version="1.0" xmlns="http://www.w3.org/2000/svg"
 width="564.000000pt" height="1001.000000pt" viewBox="0 0 564.000000 1001.000000"
 preserveAspectRatio="xMidYMid meet">

<g transform="translate(0.000000,1001.000000) scale(0.100000,-0.100000)"
fill="#FFFFFF" stroke="none">
<path d="M0 8330 l0 -1680 88 57 c319 206 404 268 572 423 254 234 354 344
555 615 128 173 196 276 285 430 80 141 274 434 353 533 112 141 233 256 397
376 36 27 68 53 72 60 14 22 8 328 -7 396 -30 128 -83 253 -145 345 -15 22
-39 59 -54 83 l-26 42 -1045 0 -1045 0 0 -1680z"/>
<path d="M2130 10005 c0 -3 24 -42 53 -88 134 -205 177 -353 177 -603 l0 -154
148 98 c81 54 176 116 212 137 87 51 128 84 235 183 122 114 330 349 366 415
9 16 -22 17 -591 17 -330 0 -600 -2 -600 -5z"/>
<path d="M3269 9878 c-131 -166 -356 -391 -455 -455 -41 -26 -161 -105 -267
-174 l-193 -126 -13 -94 c-20 -148 -108 -386 -181 -489 -10 -14 -100 -189
-200 -390 -100 -201 -196 -392 -213 -425 -16 -33 -41 -82 -55 -110 -14 -27
-58 -109 -98 -180 -40 -72 -84 -162 -98 -200 -28 -80 -78 -269 -96 -365 -7
-36 -28 -130 -47 -210 -66 -274 -76 -342 -81 -545 -5 -237 5 -342 59 -600 27
-132 37 -427 20 -586 -34 -310 -91 -487 -207 -639 -148 -195 -466 -354 -951
-475 l-193 -48 0 -1081 c0 -594 4 -1076 8 -1070 5 5 40 50 78 99 185 241 515
614 779 880 126 127 314 241 505 304 152 50 324 64 430 36 175 -47 304 -164
409 -372 36 -73 89 -243 126 -408 15 -66 28 -122 30 -125 2 -3 11 -58 20 -121
49 -341 198 -685 367 -845 58 -55 206 -164 222 -164 3 0 32 39 66 88 89 128
217 261 360 376 150 120 194 151 494 348 350 229 448 286 636 368 41 18 156
71 255 118 218 103 388 168 563 217 178 49 207 60 253 96 l39 31 0 889 0 889
-22 4 c-13 3 -66 8 -118 11 -165 11 -719 64 -880 85 -190 25 -344 52 -515 90
-71 16 -258 52 -415 79 -534 93 -735 151 -1070 309 -173 82 -301 181 -466 361
-202 220 -283 451 -272 780 5 157 18 205 74 278 32 42 120 99 201 129 65 25
425 111 623 150 57 11 288 89 390 132 256 107 334 152 522 300 174 136 214
163 347 241 136 79 370 188 496 231 170 57 450 111 700 134 228 21 355 37 383
47 l22 9 0 1160 0 1160 -1133 0 -1133 0 -105 -132z"/>
<path d="M2213 9022 c-126 -99 -232 -200 -316 -305 -95 -118 -272 -384 -372
-557 -147 -255 -377 -570 -573 -787 -87 -96 -358 -348 -458 -425 -72 -56 -418
-288 -472 -317 l-22 -12 0 -1409 c0 -931 3 -1410 10 -1410 5 0 99 23 207 51
454 117 752 266 896 447 154 192 227 514 214 931 -4 129 -12 214 -26 276 -46
210 -62 380 -58 596 4 219 12 277 80 559 19 80 43 183 52 230 53 259 96 382
186 543 37 67 161 309 275 537 114 228 246 487 294 575 98 179 151 312 174
434 18 96 19 111 7 111 -5 0 -49 -31 -98 -68z"/>
<path d="M5615 7650 c-23 -8 -145 -23 -385 -45 -268 -25 -557 -85 -740 -152
-131 -48 -394 -179 -515 -255 -55 -35 -161 -111 -235 -169 -74 -58 -162 -124
-195 -146 -183 -123 -565 -273 -860 -337 -410 -90 -481 -108 -570 -151 -95
-46 -138 -85 -172 -153 -26 -54 -28 -65 -31 -222 -3 -135 0 -182 16 -260 43
-207 123 -353 285 -521 193 -198 306 -272 602 -397 219 -92 448 -150 894 -227
141 -24 306 -55 366 -69 289 -65 558 -104 1005 -146 291 -27 554 -49 558 -46
1 2 1 745 0 1653 -3 1646 -3 1650 -23 1643z"/>
<path d="M1522 2909 c-191 -28 -483 -180 -632 -329 -271 -272 -566 -605 -798
-903 l-92 -118 0 -780 0 -779 1308 0 1307 0 39 157 c35 143 86 293 145 428 12
28 54 104 94 169 39 66 66 121 60 123 -24 8 -159 109 -214 161 -73 67 -129
145 -197 274 -81 154 -158 393 -182 568 -21 154 -103 486 -151 610 -36 94
-131 242 -191 297 -52 47 -137 93 -217 117 -59 17 -175 19 -279 5z"/>
<path d="M5600 2474 c-22 -19 -80 -40 -203 -75 -233 -66 -334 -104 -592 -225
-121 -56 -266 -122 -323 -147 -130 -57 -263 -135 -522 -307 -113 -75 -230
-151 -260 -170 -148 -92 -388 -288 -493 -402 -95 -104 -204 -256 -191 -268 24
-21 465 -233 627 -300 120 -50 393 -219 670 -415 54 -39 128 -91 165 -117 l67
-48 548 0 547 0 0 1250 c0 688 -2 1250 -4 1250 -3 0 -18 -12 -36 -26z"/>
<path d="M2977 838 c-100 -161 -163 -280 -200 -383 -14 -38 -32 -86 -40 -105
-13 -31 -65 -230 -82 -317 l-7 -33 922 0 922 0 -80 59 c-44 32 -99 72 -123 87
-24 16 -62 43 -84 60 -53 42 -307 204 -420 269 -49 28 -130 68 -180 89 -127
54 -296 134 -467 222 l-147 75 -14 -23z"/>
</g>
</svg>
