<svg version="1.1" id="Layer_1" xmlns="http://www.w3.org/2000/svg" xmlns:xlink="http://www.w3.org/1999/xlink" x="0px" y="0px"
	 width="100%" viewBox="0 0 512 512" enable-background="new 0 0 512 512" xml:space="preserve">
<path fill="#000000" opacity="0.000000" stroke="none" 
	d="
M284.000000,513.000000 
	C263.645782,513.000000 243.291550,513.000000 222.131836,512.756226 
	C228.938965,507.434753 233.952942,501.309235 233.168961,491.159210 
	C232.389877,481.072876 224.855026,473.001251 214.566147,473.000610 
	C186.071808,472.998779 157.571304,473.337219 129.086426,472.817993 
	C119.049538,472.635040 108.861977,471.159515 99.075890,468.858978 
	C81.258652,464.670471 67.598938,454.077759 56.652313,439.410217 
	C45.047218,423.860291 41.147434,406.114532 41.098019,387.437286 
	C40.874031,302.787994 40.941208,218.137695 41.087402,133.488083 
	C41.102680,124.641594 41.782425,115.714256 43.105637,106.968430 
	C46.237423,86.268730 57.140686,69.885147 73.473045,57.322262 
	C88.432472,45.815437 106.084816,41.172409 124.678459,41.092907 
	C183.499054,40.841412 242.323029,40.779510 301.141418,41.217411 
	C310.928864,41.290283 320.971710,43.291214 330.405365,46.069187 
	C344.193878,50.129539 355.666138,58.261513 365.102448,69.403816 
	C374.603302,80.622330 380.987335,93.083344 382.998444,107.671783 
	C383.801849,113.499733 384.292816,119.370049 385.020935,125.209236 
	C386.275391,135.268967 394.263092,140.530548 406.790283,141.174759 
	C414.727692,141.582932 425.090851,132.497192 424.955383,124.589973 
	C424.816681,116.495316 425.245880,108.235382 423.798431,100.346519 
	C418.460693,71.255043 404.710114,46.913963 381.589020,27.975359 
	C366.020996,15.223506 348.606415,6.758107 328.878571,2.924205 
	C328.155029,2.783593 327.621887,1.663582 327.000000,1.000002 
	C388.958710,1.000000 450.917389,1.000000 513.000000,1.000000 
	C513.000000,157.687546 513.000000,314.375122 512.690308,471.871948 
	C511.933380,472.024841 511.302368,471.428162 511.066681,470.703064 
	C508.169861,461.790405 506.227264,452.439301 502.286407,444.021545 
	C494.562988,427.524109 483.321808,413.642731 468.389648,402.779266 
	C449.680511,389.168030 429.172546,381.024292 405.864563,381.059082 
	C391.941315,381.079865 377.726349,380.012573 364.158661,382.385559 
	C338.035858,386.954437 315.987183,399.787750 298.866730,420.566315 
	C281.850220,441.218658 272.856079,464.594543 272.865753,491.530121 
	C272.868866,500.250977 275.421326,506.808899 283.146027,511.112183 
	C283.630829,511.382202 283.724396,512.354431 284.000000,513.000000 
M319.423370,311.947113 
	C326.270050,321.614288 334.137878,330.326569 344.033966,336.937683 
	C363.002502,349.609650 383.845764,353.363892 406.307159,350.104828 
	C424.442078,347.473511 439.639862,339.102020 452.527527,326.676971 
	C460.135773,319.341827 465.841949,310.389038 470.245880,300.538971 
	C478.065369,283.049500 478.995056,264.996490 475.180176,246.700989 
	C471.459747,228.858398 462.243439,214.019714 448.495972,201.815033 
	C440.531189,194.744049 431.545319,189.854248 421.821411,185.911835 
	C407.188293,179.979050 392.057587,179.830276 376.802887,182.047043 
	C357.859528,184.799820 341.919373,193.933121 329.175873,207.757187 
	C322.915924,214.547958 318.341461,223.137436 314.060913,231.456619 
	C305.281677,248.518753 304.950897,266.914642 308.857697,285.128815 
	C310.796143,294.166351 315.551544,302.599701 319.423370,311.947113 
M167.500000,171.000000 
	C207.629272,171.000000 247.758606,171.024765 287.887695,170.937363 
	C290.251404,170.932220 292.827179,170.469666 294.938629,169.457321 
	C303.923248,165.149536 306.421783,157.646896 306.213348,148.027222 
	C306.057343,140.827087 296.183319,130.840637 288.944427,130.874069 
	C237.660004,131.110840 186.373932,130.983109 135.088531,131.062637 
	C133.060272,131.065781 130.868988,131.649017 129.033905,132.539490 
	C120.295250,136.779999 117.759544,144.011459 117.756073,153.468048 
	C117.753197,161.276093 128.067886,171.614960 135.538528,171.157700 
	C145.823700,170.528168 156.176285,171.000000 167.500000,171.000000 
M186.500000,248.000000 
	C207.142975,248.000000 227.786194,248.044693 248.428574,247.934601 
	C250.623291,247.922897 252.993866,247.384903 254.974319,246.442612 
	C264.023773,242.136948 266.380493,234.565506 266.204315,224.993668 
	C266.071808,217.796707 256.152588,207.814560 248.915390,207.868271 
	C210.961029,208.150055 173.003418,207.976898 135.047165,208.064316 
	C133.022491,208.068985 130.841934,208.678192 129.003357,209.564697 
	C120.229561,213.795166 117.768326,221.069275 117.760811,230.502396 
	C117.754623,238.277954 128.079544,248.426041 135.563156,248.174362 
	C152.191925,247.615097 168.852432,247.999985 186.500000,248.000000 
M162.500000,284.000000 
	C153.343811,284.000031 144.186096,283.910797 135.032639,284.069183 
	C133.002350,284.104309 130.835678,284.694855 128.990631,285.573303 
	C119.924698,289.889740 117.597504,297.475861 117.817299,307.021820 
	C117.991302,314.579346 127.899666,324.167877 135.074280,324.119659 
	C173.029007,323.864563 210.986389,324.017578 248.942719,323.947601 
	C250.830795,323.944122 252.909576,323.554108 254.571854,322.703583 
	C262.142639,318.830017 266.346039,312.994019 266.090393,303.977020 
	C265.732361,291.347351 258.618134,284.000031 245.905441,284.000000 
	C218.436966,283.999939 190.968475,284.000000 162.500000,284.000000 
M232.499725,401.000000 
	C237.993439,400.999969 243.492188,401.134796 248.978256,400.929962 
	C251.015457,400.853851 253.180481,400.306671 255.017136,399.416840 
	C263.788544,395.167206 266.222534,387.874939 266.246368,378.445007 
	C266.265350,370.945496 256.029358,360.794281 248.862701,360.853271 
	C210.908813,361.165771 172.950958,360.982056 134.994644,361.053497 
	C133.108154,361.057037 131.041855,361.476990 129.368546,362.318268 
	C121.728516,366.159210 117.667641,372.083160 117.912766,381.060364 
	C118.257576,393.688477 125.364830,400.999969 138.106979,400.999969 
	C169.237930,401.000031 200.368896,401.000000 232.499725,401.000000 
z"/>
<path fill="#bf5700" opacity="1.000000" stroke="none" 
	d="
M326.531342,1.000002 
	C327.621887,1.663582 328.155029,2.783593 328.878571,2.924205 
	C348.606415,6.758107 366.020996,15.223506 381.589020,27.975359 
	C404.710114,46.913963 418.460693,71.255043 423.798431,100.346519 
	C425.245880,108.235382 424.816681,116.495316 424.955383,124.589973 
	C425.090851,132.497192 414.727692,141.582932 406.790283,141.174759 
	C394.263092,140.530548 386.275391,135.268967 385.020935,125.209236 
	C384.292816,119.370049 383.801849,113.499733 382.998444,107.671783 
	C380.987335,93.083344 374.603302,80.622330 365.102448,69.403816 
	C355.666138,58.261513 344.193878,50.129539 330.405365,46.069187 
	C320.971710,43.291214 310.928864,41.290283 301.141418,41.217411 
	C242.323029,40.779510 183.499054,40.841412 124.678459,41.092907 
	C106.084816,41.172409 88.432472,45.815437 73.473045,57.322262 
	C57.140686,69.885147 46.237423,86.268730 43.105637,106.968430 
	C41.782425,115.714256 41.102680,124.641594 41.087402,133.488083 
	C40.941208,218.137695 40.874031,302.787994 41.098019,387.437286 
	C41.147434,406.114532 45.047218,423.860291 56.652313,439.410217 
	C67.598938,454.077759 81.258652,464.670471 99.075890,468.858978 
	C108.861977,471.159515 119.049538,472.635040 129.086426,472.817993 
	C157.571304,473.337219 186.071808,472.998779 214.566147,473.000610 
	C224.855026,473.001251 232.389877,481.072876 233.168961,491.159210 
	C233.952942,501.309235 228.938965,507.434753 221.663177,512.756226 
	C181.312439,513.000000 140.624878,513.000000 99.804893,512.685486 
	C98.848618,511.917572 98.071144,511.206207 97.194130,511.048523 
	C75.696846,507.183960 56.871391,497.636139 40.803654,483.132233 
	C20.888981,465.155762 7.673142,443.082733 2.897265,416.348389 
	C2.799911,415.803345 1.655782,415.445282 1.000000,415.000000 
	C1.000000,309.979095 1.000000,204.958206 1.309903,99.809402 
	C2.066803,99.026955 2.696018,98.432182 2.933306,97.708847 
	C6.198871,87.754250 8.533766,77.384460 12.832413,67.903358 
	C20.011763,52.068573 31.014015,38.947567 44.538975,27.834290 
	C60.049686,15.089337 77.460480,6.732499 97.131371,2.923779 
	C97.851410,2.784362 98.381424,1.663482 99.000000,0.999998 
	C174.687561,1.000000 250.375122,1.000000 326.531342,1.000002 
z"/>
<path fill="#bf5700" opacity="1.000000" stroke="none" 
	d="
M284.467926,513.000000 
	C283.724396,512.354431 283.630829,511.382202 283.146027,511.112183 
	C275.421326,506.808899 272.868866,500.250977 272.865753,491.530121 
	C272.856079,464.594543 281.850220,441.218658 298.866730,420.566315 
	C315.987183,399.787750 338.035858,386.954437 364.158661,382.385559 
	C377.726349,380.012573 391.941315,381.079865 405.864563,381.059082 
	C429.172546,381.024292 449.680511,389.168030 468.389648,402.779266 
	C483.321808,413.642731 494.562988,427.524109 502.286407,444.021545 
	C506.227264,452.439301 508.169861,461.790405 511.066681,470.703064 
	C511.302368,471.428162 511.933380,472.024841 512.690308,472.340576 
	C513.000000,481.687561 513.000000,491.375122 512.756348,501.194397 
	C508.904999,504.875488 505.290741,508.418396 501.717804,512.002441 
	C501.598419,512.122192 501.896515,512.658081 502.000000,513.000000 
	C496.311951,513.000000 490.623932,513.000000 484.804810,512.755981 
	C484.227509,512.044678 483.861115,511.436462 483.322876,511.131714 
	C476.919434,507.505676 473.160919,502.401489 472.896027,494.709045 
	C472.711731,489.357452 472.140717,483.922028 470.913055,478.719788 
	C464.578217,451.875671 448.376770,433.418213 422.181244,424.837372 
	C405.728760,419.448059 388.630707,420.360443 371.561859,422.905853 
	C341.246979,427.426666 313.911041,458.324371 313.876923,489.752411 
	C313.867340,498.574188 311.711151,507.020233 302.371948,511.260712 
	C302.050934,511.406494 302.115265,512.401062 302.000000,513.000000 
	C296.311951,513.000000 290.623932,513.000000 284.467926,513.000000 
z"/>
<path fill="#000000" opacity="0.000000" stroke="none" 
	d="
M302.468628,513.000000 
	C302.115265,512.401062 302.050934,511.406494 302.371948,511.260712 
	C311.711151,507.020233 313.867340,498.574188 313.876923,489.752411 
	C313.911041,458.324371 341.246979,427.426666 371.561859,422.905853 
	C388.630707,420.360443 405.728760,419.448059 422.181244,424.837372 
	C448.376770,433.418213 464.578217,451.875671 470.913055,478.719788 
	C472.140717,483.922028 472.711731,489.357452 472.896027,494.709045 
	C473.160919,502.401489 476.919434,507.505676 483.322876,511.131714 
	C483.861115,511.436462 484.227509,512.044678 484.336853,512.755981 
	C423.645782,513.000000 363.291534,513.000000 302.468628,513.000000 
z"/>
<path fill="#000000" opacity="0.000000" stroke="none" 
	d="
M1.000000,415.468658 
	C1.655782,415.445282 2.799911,415.803345 2.897265,416.348389 
	C7.673142,443.082733 20.888981,465.155762 40.803654,483.132233 
	C56.871391,497.636139 75.696846,507.183960 97.194130,511.048523 
	C98.071144,511.206207 98.848618,511.917572 99.336235,512.685486 
	C66.406403,513.000000 33.812805,513.000000 1.000000,513.000000 
	C1.000000,480.646088 1.000000,448.291718 1.000000,415.468658 
z"/>
<path fill="#000000" opacity="0.000000" stroke="none" 
	d="
M98.531342,0.999998 
	C98.381424,1.663482 97.851410,2.784362 97.131371,2.923779 
	C77.460480,6.732499 60.049686,15.089337 44.538975,27.834290 
	C31.014015,38.947567 20.011763,52.068573 12.832413,67.903358 
	C8.533766,77.384460 6.198871,87.754250 2.933306,97.708847 
	C2.696018,98.432182 2.066803,99.026955 1.309903,99.340744 
	C1.000000,66.406403 1.000000,33.812801 1.000000,1.000000 
	C33.353897,1.000000 65.708290,1.000000 98.531342,0.999998 
z"/>
<path fill="#000000" opacity="0.000000" stroke="none" 
	d="
M502.482971,513.000000 
	C501.896515,512.658081 501.598419,512.122192 501.717804,512.002441 
	C505.290741,508.418396 508.904999,504.875488 512.756348,501.663086 
	C513.000000,505.587189 513.000000,509.174408 513.000000,513.000000 
	C509.657440,513.000000 506.311676,513.000000 502.482971,513.000000 
z"/>
<path fill="#bf5700" opacity="1.000000" stroke="none" 
	d="
M319.227966,311.626740 
	C315.551544,302.599701 310.796143,294.166351 308.857697,285.128815 
	C304.950897,266.914642 305.281677,248.518753 314.060913,231.456619 
	C318.341461,223.137436 322.915924,214.547958 329.175873,207.757187 
	C341.919373,193.933121 357.859528,184.799820 376.802887,182.047043 
	C392.057587,179.830276 407.188293,179.979050 421.821411,185.911835 
	C431.545319,189.854248 440.531189,194.744049 448.495972,201.815033 
	C462.243439,214.019714 471.459747,228.858398 475.180176,246.700989 
	C478.995056,264.996490 478.065369,283.049500 470.245880,300.538971 
	C465.841949,310.389038 460.135773,319.341827 452.527527,326.676971 
	C439.639862,339.102020 424.442078,347.473511 406.307159,350.104828 
	C383.845764,353.363892 363.002502,349.609650 344.033966,336.937683 
	C334.137878,330.326569 326.270050,321.614288 319.227966,311.626740 
M371.440399,226.920624 
	C369.410370,228.260483 367.352753,229.560608 365.354736,230.946640 
	C352.174500,240.089905 344.691986,259.074921 348.160583,274.325439 
	C353.177246,296.382233 372.641388,312.144165 395.820892,310.076721 
	C421.449066,307.790833 440.647003,284.911377 435.637085,257.827759 
	C430.251740,228.714447 399.034546,212.983871 371.440399,226.920624 
z"/>
<path fill="#bf5700" opacity="1.000000" stroke="none" 
	d="
M167.000000,171.000000 
	C156.176285,171.000000 145.823700,170.528168 135.538528,171.157700 
	C128.067886,171.614960 117.753197,161.276093 117.756073,153.468048 
	C117.759544,144.011459 120.295250,136.779999 129.033905,132.539490 
	C130.868988,131.649017 133.060272,131.065781 135.088531,131.062637 
	C186.373932,130.983109 237.660004,131.110840 288.944427,130.874069 
	C296.183319,130.840637 306.057343,140.827087 306.213348,148.027222 
	C306.421783,157.646896 303.923248,165.149536 294.938629,169.457321 
	C292.827179,170.469666 290.251404,170.932220 287.887695,170.937363 
	C247.758606,171.024765 207.629272,171.000000 167.000000,171.000000 
z"/>
<path fill="#bf5700" opacity="1.000000" stroke="none" 
	d="
M186.000000,248.000000 
	C168.852432,247.999985 152.191925,247.615097 135.563156,248.174362 
	C128.079544,248.426041 117.754623,238.277954 117.760811,230.502396 
	C117.768326,221.069275 120.229561,213.795166 129.003357,209.564697 
	C130.841934,208.678192 133.022491,208.068985 135.047165,208.064316 
	C173.003418,207.976898 210.961029,208.150055 248.915390,207.868271 
	C256.152588,207.814560 266.071808,217.796707 266.204315,224.993668 
	C266.380493,234.565506 264.023773,242.136948 254.974319,246.442612 
	C252.993866,247.384903 250.623291,247.922897 248.428574,247.934601 
	C227.786194,248.044693 207.142975,248.000000 186.000000,248.000000 
z"/>
<path fill="#bf5700" opacity="1.000000" stroke="none" 
	d="
M163.000000,284.000000 
	C190.968475,284.000000 218.436966,283.999939 245.905441,284.000000 
	C258.618134,284.000031 265.732361,291.347351 266.090393,303.977020 
	C266.346039,312.994019 262.142639,318.830017 254.571854,322.703583 
	C252.909576,323.554108 250.830795,323.944122 248.942719,323.947601 
	C210.986389,324.017578 173.029007,323.864563 135.074280,324.119659 
	C127.899666,324.167877 117.991302,314.579346 117.817299,307.021820 
	C117.597504,297.475861 119.924698,289.889740 128.990631,285.573303 
	C130.835678,284.694855 133.002350,284.104309 135.032639,284.069183 
	C144.186096,283.910797 153.343811,284.000031 163.000000,284.000000 
z"/>
<path fill="#bf5700" opacity="1.000000" stroke="none" 
	d="
M231.999786,401.000000 
	C200.368896,401.000000 169.237930,401.000031 138.106979,400.999969 
	C125.364830,400.999969 118.257576,393.688477 117.912766,381.060364 
	C117.667641,372.083160 121.728516,366.159210 129.368546,362.318268 
	C131.041855,361.476990 133.108154,361.057037 134.994644,361.053497 
	C172.950958,360.982056 210.908813,361.165771 248.862701,360.853271 
	C256.029358,360.794281 266.265350,370.945496 266.246368,378.445007 
	C266.222534,387.874939 263.788544,395.167206 255.017136,399.416840 
	C253.180481,400.306671 251.015457,400.853851 248.978256,400.929962 
	C243.492188,401.134796 237.993439,400.999969 231.999786,401.000000 
z"/>
<path fill="#000000" opacity="0.000000" stroke="none" 
	d="
M371.741394,226.684784 
	C399.034546,212.983871 430.251740,228.714447 435.637085,257.827759 
	C440.647003,284.911377 421.449066,307.790833 395.820892,310.076721 
	C372.641388,312.144165 353.177246,296.382233 348.160583,274.325439 
	C344.691986,259.074921 352.174500,240.089905 365.354736,230.946640 
	C367.352753,229.560608 369.410370,228.260483 371.741394,226.684784 
z"/>
</svg>