<svg version="1.1" id="Layer_1" xmlns="http://www.w3.org/2000/svg" xmlns:xlink="http://www.w3.org/1999/xlink" x="0px" y="0px"
	 width="100%" viewBox="0 0 512 512" enable-background="new 0 0 512 512" xml:space="preserve">
<path fill="#F0F0F5" opacity="1.000000" stroke="none" 
	d="
M371.300720,512.754639 
	C295.645782,513.000000 220.291550,513.000000 144.468658,513.000000 
	C139.442978,510.872620 134.527115,512.223022 129.795486,511.543091 
	C101.088463,507.418152 74.477921,498.472656 51.897270,479.414825 
	C25.333607,456.995392 10.781507,428.031921 4.695642,394.314240 
	C2.768713,383.638458 1.873392,372.881561 1.966130,362.029083 
	C1.990043,359.230652 2.500511,356.371826 1.247136,353.309448 
	C1.000000,309.312439 1.000000,265.624878 1.000000,221.468658 
	C2.069060,218.591278 1.305861,216.071655 1.223756,213.303406 
	C1.000000,196.645767 1.000000,180.291550 1.000000,163.468658 
	C2.764148,160.786682 1.994601,158.177643 1.957958,155.766205 
	C1.568165,130.114182 5.946355,105.363564 16.305363,81.849014 
	C27.599070,56.212711 45.684227,36.341766 69.686531,22.165609 
	C91.573692,9.238682 115.488922,2.645633 140.967422,1.990528 
	C141.802658,1.969053 142.630722,1.926982 143.690033,1.247243 
	C219.020889,1.000000 294.041779,1.000000 369.531342,1.000000 
	C374.722290,3.211344 379.806000,1.811930 384.709106,2.419827 
	C412.009796,5.804621 437.430725,14.092774 459.404114,31.065760 
	C483.254517,49.488621 499.065155,73.422813 507.153564,102.515282 
	C509.794098,112.012749 511.485474,121.629944 512.754639,131.699432 
	C513.000000,214.354233 513.000000,296.708466 513.000000,379.531342 
	C510.987030,382.996735 512.081482,386.473145 511.600128,389.702057 
	C505.130859,433.101166 484.956268,467.936920 447.110138,491.120239 
	C425.459686,504.382599 401.516205,511.184418 376.010620,512.003540 
	C374.530396,512.051086 373.002167,511.744629 371.300720,512.754639 
z"/>
<path fill="#000000" opacity="0.000000" stroke="none" 
	d="
M143.531342,1.000000 
	C144.406967,4.358498 141.786987,2.868307 140.542267,2.937303 
	C118.522667,4.157866 97.375778,9.345848 77.782372,19.207844 
	C54.396809,30.978552 36.090698,48.670788 23.105356,71.553314 
	C13.965211,87.659912 8.798176,105.089096 5.902064,123.347481 
	C4.019989,135.212936 2.842089,147.068176 2.981215,159.069092 
	C2.999717,160.665070 3.515495,162.468964 1.378099,163.308746 
	C1.000000,110.242538 1.033397,57.484997 0.916956,4.727788 
	C0.909976,1.565450 1.683150,0.915603 4.761810,0.923031 
	C50.861893,1.034264 96.962334,1.000000 143.531342,1.000000 
z"/>
<path fill="#000000" opacity="0.000000" stroke="none" 
	d="
M1.000000,353.468658 
	C4.367986,352.588440 2.983935,355.249268 2.917862,356.450928 
	C2.461938,364.742645 3.104819,373.028748 4.152543,381.170563 
	C6.019782,395.680786 8.886160,410.022339 14.275285,423.779266 
	C20.286432,439.123932 28.479719,452.929016 39.562160,465.254333 
	C50.901066,477.864868 63.920815,488.109772 79.054504,495.438507 
	C93.278755,502.326843 108.391281,506.726715 124.099007,509.089355 
	C130.081482,509.989227 135.990204,511.227570 142.074493,510.990662 
	C143.195572,510.947021 143.981567,511.406128 144.308441,512.626953 
	C97.567223,513.000000 51.134331,512.959290 4.701913,513.088196 
	C1.475094,513.097168 0.922635,512.227478 0.928436,509.212372 
	C1.028012,457.454193 1.000000,405.695709 1.000000,353.468658 
z"/>
<path fill="#000000" opacity="0.000000" stroke="none" 
	d="
M371.468658,513.000000 
	C370.466888,510.119781 372.710175,511.093384 373.932922,511.034454 
	C399.008118,509.825958 422.677429,503.541168 444.500671,491.033936 
	C463.959473,479.881836 479.430450,464.486359 490.937378,445.254120 
	C501.204926,428.093414 507.242004,409.455383 510.261932,389.671875 
	C510.772461,386.327271 509.427856,382.339111 512.635620,379.692627 
	C513.000000,423.097900 512.956848,466.195923 513.087524,509.293427 
	C513.097229,512.507080 512.245544,513.079834 509.218109,513.072876 
	C463.458008,512.967834 417.697632,513.000000 371.468658,513.000000 
z"/>
<path fill="#000000" opacity="0.000000" stroke="none" 
	d="
M513.000000,131.531342 
	C510.837341,132.876236 511.121796,131.143463 511.020691,130.042221 
	C509.322723,111.547577 503.888489,94.092506 495.989532,77.401932 
	C491.059235,66.984131 484.489105,57.608524 476.650391,49.093842 
	C465.715759,37.216320 453.584229,26.791069 439.059235,19.689234 
	C425.780060,13.196525 411.888519,8.216555 397.127625,5.941841 
	C388.581848,4.624906 380.136475,2.630794 371.406342,2.977740 
	C370.462250,3.015258 369.899994,2.401849 369.685364,1.372020 
	C416.425659,1.000000 462.851379,1.038271 509.276733,0.915846 
	C512.448547,0.907482 513.084717,1.696509 513.076477,4.765160 
	C512.963074,46.864098 513.000000,88.963440 513.000000,131.531342 
z"/>
<path fill="#F0F0F5" opacity="1.000000" stroke="none" 
	d="
M1.000000,213.444168 
	C2.756152,215.367752 2.049586,217.917084 1.274705,220.725601 
	C1.000000,218.629440 1.000000,216.258896 1.000000,213.444168 
z"/>
<path fill="#13131A" opacity="1.000000" stroke="none" 
	d="
M50.001934,153.276535 
	C52.036663,147.468430 51.058125,141.789871 51.818287,136.283173 
	C55.074528,112.694588 62.618423,91.306602 80.716034,74.811836 
	C93.687729,62.988983 109.160538,56.346130 126.238129,52.969006 
	C142.423737,49.768272 158.793137,49.500629 175.207657,48.879330 
	C225.624634,46.971016 276.048706,48.175926 326.462891,48.255733 
	C341.758209,48.279942 357.199310,48.237133 372.466492,50.055214 
	C389.016296,52.026051 405.378540,55.057381 420.048065,63.582687 
	C439.186798,74.705322 452.272522,90.879250 458.928467,112.027481 
	C462.287415,122.700081 464.316711,133.594467 465.129425,144.865845 
	C468.708862,194.508545 466.256317,244.204575 466.970886,293.868195 
	C467.167480,307.531036 467.338226,321.209534 466.918640,334.862335 
	C466.325195,354.172699 466.312592,373.608215 461.913879,392.551941 
	C456.199402,417.162384 443.044647,436.754333 421.137360,449.962952 
	C408.658447,457.486908 394.991669,461.246704 380.597015,463.121216 
	C371.933441,464.249390 363.271698,464.533295 354.592987,465.119019 
	C327.844452,466.924286 301.069092,465.102722 274.347382,466.220703 
	C265.923950,466.573120 257.448547,467.454071 249.084610,466.866669 
	C222.997177,465.034607 196.877960,467.060577 170.825409,465.844116 
	C150.242050,464.882996 129.505295,464.470245 109.701981,457.094452 
	C89.964767,449.743317 74.953362,437.088715 64.540833,418.951111 
	C57.229538,406.215576 53.624168,392.301575 51.927383,377.761627 
	C50.762211,367.777130 50.308044,357.790344 49.928169,347.757111 
	C47.836544,292.513062 49.429951,237.253860 49.167747,182.003998 
	C49.123215,172.620941 50.059200,163.184097 50.001934,153.276535 
z"/>
<path fill="#F0F0F5" opacity="1.000000" stroke="none" 
	d="
M389.299927,268.381012 
	C388.353058,287.599274 382.163177,304.785126 373.357849,321.173492 
	C365.284424,336.199738 354.173004,348.610809 341.097565,359.513489 
	C325.838226,372.237061 308.548828,380.605255 289.360168,385.254333 
	C274.446503,388.867615 259.455536,389.676605 244.074387,388.205292 
	C227.736786,386.642487 212.366028,382.170135 197.995529,374.860321 
	C174.661957,362.991394 156.432159,345.381958 143.196228,322.656952 
	C134.840103,308.310120 129.507751,292.791809 127.197723,276.564850 
	C123.620857,251.438950 126.862648,226.934555 137.087387,203.475159 
	C145.191330,184.881638 157.362930,169.275497 172.536682,156.167236 
	C190.054886,141.033646 210.711563,131.694794 233.325317,127.140800 
	C243.956161,124.999947 254.911621,124.185211 265.783356,125.062927 
	C291.729828,127.157677 315.509094,135.229889 336.569183,150.977570 
	C354.989441,164.751328 369.007233,181.935364 378.391357,202.885559 
	C384.161438,215.767349 387.762573,229.189606 389.156616,243.330551 
	C389.971405,251.595367 390.174347,259.755127 389.299927,268.381012 
z"/>
<path fill="#F0F0F5" opacity="1.000000" stroke="none" 
	d="
M372.757782,97.737915 
	C379.542145,91.511757 387.302979,88.696777 396.055389,89.038361 
	C415.970001,89.815544 428.978638,109.358948 425.272308,125.800232 
	C422.444672,138.343506 415.791321,146.582443 403.802368,149.957016 
	C384.168732,155.483383 365.567078,143.549103 363.874359,123.449539 
	C363.031464,113.441261 366.077911,105.281425 372.757782,97.737915 
z"/>
<path fill="#000000" opacity="1.000000" stroke="none" 
	d="
M176.745804,233.672913 
	C179.210205,223.243607 184.193420,214.437866 190.276642,206.332962 
	C202.590256,189.927078 218.868881,179.329880 238.877533,174.600220 
	C264.426697,168.560898 287.715576,174.016663 308.646515,189.287613 
	C325.258423,201.407440 335.801331,217.929535 340.453918,237.957306 
	C346.417084,263.626617 340.880280,287.009918 325.372467,308.090820 
	C313.370087,324.406555 296.910980,334.337006 277.679779,339.606720 
	C263.721802,343.431488 249.543518,342.867371 235.638336,338.857849 
	C219.217590,334.123047 205.124390,325.397400 194.034195,312.394257 
	C182.967804,299.419006 176.107742,284.500305 173.843811,267.323181 
	C172.336014,255.883179 173.536850,244.954346 176.745804,233.672913 
z"/>
</svg>