<?xml version="1.0" standalone="no"?>
<!DOCTYPE svg PUBLIC "-//W3C//DTD SVG 20010904//EN"
 "http://www.w3.org/TR/2001/REC-SVG-20010904/DTD/svg10.dtd">
<svg version="1.0" xmlns="http://www.w3.org/2000/svg"
 width="211.000000pt" height="93.000000pt" viewBox="0 0 211.000000 93.000000"
 preserveAspectRatio="xMidYMid meet">

<g transform="translate(0.000000,93.000000) scale(0.100000,-0.100000)"
fill="#F0F0F5" stroke="none">
<path d="M275 833 c-3 -48 -8 -93 -10 -100 -5 -14 -97 -43 -139 -43 -29 0 -29
-1 -13 -17 19 -19 97 -24 130 -9 14 7 17 3 17 -25 0 -26 -16 -56 -70 -128 -54
-72 -70 -101 -70 -127 0 -47 17 -43 75 16 27 28 53 50 57 50 4 0 8 -50 8 -110
0 -119 -7 -133 -50 -110 -41 22 -35 -2 10 -41 74 -63 76 -60 71 135 l-3 168
38 39 c43 44 36 54 -9 12 l-28 -28 6 80 c4 44 8 85 10 90 1 6 25 16 53 24 35
9 49 17 46 26 -8 20 -29 25 -63 15 -27 -7 -31 -6 -31 10 0 10 5 31 10 46 12
30 -1 84 -25 104 -11 9 -14 -5 -20 -77z m-15 -308 c0 -35 -4 -47 -21 -55 -11
-7 -23 -9 -27 -6 -5 6 37 106 45 106 2 0 3 -20 3 -45z"/>
<path d="M1417 892 c-43 -48 -62 -147 -36 -193 13 -23 14 -21 17 33 2 48 7 61
31 80 37 32 108 55 122 41 14 -14 -6 -109 -25 -120 -18 -12 -84 -14 -91 -3 -4
6 10 17 29 25 35 15 42 28 30 59 -8 21 -24 21 -24 0 0 -8 -12 -31 -26 -50 -24
-31 -25 -37 -14 -63 6 -17 9 -35 5 -41 -5 -8 1 -7 16 2 13 7 37 13 53 13 23 0
36 8 54 35 13 19 26 47 29 63 6 31 7 31 35 16 16 -8 31 -8 59 1 22 8 41 11 44
9 2 -3 -9 -38 -25 -78 -56 -137 -75 -305 -41 -360 19 -30 28 5 34 131 9 211
44 310 122 348 25 12 47 26 50 30 10 16 -34 21 -62 7 -50 -26 -166 -57 -187
-51 -11 4 -29 17 -39 30 -22 29 -42 30 -107 5 -54 -20 -63 -14 -40 30 13 24 8
24 -13 1z"/>
<path d="M1196 838 c4 -7 16 -25 27 -39 15 -21 17 -31 8 -47 -11 -20 -10 -20
16 -6 16 7 40 14 56 14 17 0 27 5 27 14 0 22 -28 46 -53 46 -12 0 -35 7 -51
15 -35 18 -39 19 -30 3z"/>
<path d="M640 825 c-88 -22 -178 -62 -157 -70 22 -9 56 -2 127 24 33 12 80 20
116 21 101 0 99 6 99 -296 0 -285 -1 -289 -60 -261 -42 20 -44 15 -7 -28 15
-19 34 -44 43 -56 20 -29 34 -19 54 41 14 41 16 89 13 309 -3 259 -3 259 -27
285 -42 45 -105 55 -201 31z"/>
<path d="M1755 715 c-30 -15 -30 -15 19 -9 35 4 51 2 57 -8 19 -29 4 -442 -15
-434 -50 20 -48 21 -27 -15 10 -19 24 -51 30 -71 15 -46 39 -68 52 -47 15 23
10 55 -12 83 l-21 26 21 43 c12 25 24 74 27 118 8 91 -11 275 -31 306 -18 27
-55 30 -100 8z"/>
<path d="M610 654 l-55 -23 42 -1 c33 0 41 -3 37 -15 -4 -9 14 -3 50 16 31 17
56 35 56 40 0 17 -74 7 -130 -17z"/>
<path d="M440 568 c-8 -181 -6 -266 7 -279 7 -7 16 -9 20 -5 5 4 10 83 11 175
4 150 2 169 -15 189 -18 22 -18 22 -23 -80z"/>
<path d="M1528 636 c-21 -7 -39 -12 -40 -11 -2 1 -16 5 -32 9 -25 6 -28 5 -17
-7 10 -13 3 -20 -42 -46 -36 -20 -61 -29 -73 -24 -18 6 -18 6 0 -15 25 -29 42
-27 96 9 41 28 46 29 57 13 11 -15 13 -14 22 10 10 24 15 26 70 26 67 0 82 11
49 34 -27 19 -41 19 -90 2z"/>
<path d="M1750 595 c30 -36 -32 -279 -102 -405 l-30 -55 35 34 c51 48 94 136
123 247 29 116 30 155 6 177 -25 22 -50 24 -32 2z"/>
<path d="M1175 563 c-75 -16 -72 -12 -37 -33 39 -24 39 -33 6 -128 -36 -104
-36 -154 -2 -188 37 -38 67 -28 100 33 28 52 79 173 73 173 -2 0 -22 -26 -44
-57 -21 -32 -52 -71 -68 -86 -26 -24 -31 -26 -42 -13 -16 19 -16 102 0 156 12
38 26 57 79 103 17 15 19 21 9 33 -11 14 -34 16 -74 7z"/>
<path d="M651 543 c-31 -11 -45 -12 -50 -4 -8 13 -35 -37 -46 -87 -5 -23 -2
-40 9 -57 13 -20 21 -23 58 -19 97 11 110 15 104 31 -4 8 5 28 19 45 29 34 31
55 9 86 -18 25 -41 27 -103 5z m74 -30 c-11 -46 -48 -92 -84 -104 -41 -14 -51
-3 -51 60 0 32 3 42 13 38 8 -3 31 3 53 13 60 28 78 26 69 -7z"/>
<path d="M1482 520 l-42 -30 -1 27 c0 25 -3 22 -26 -23 -18 -36 -24 -59 -19
-78 10 -39 29 -32 49 19 24 57 97 121 97 85 0 -6 -18 -30 -40 -54 -41 -45 -48
-64 -29 -83 12 -12 9 -186 -3 -198 -3 -4 -19 2 -35 12 l-28 18 33 -42 c39 -49
46 -52 64 -20 12 22 14 202 2 239 -4 15 1 18 28 18 l33 1 -23 19 -24 20 37 34
c42 40 42 60 -1 64 -21 2 -43 -7 -72 -28z"/>
<path d="M1552 343 c2 -4 14 -29 26 -55 22 -49 52 -65 52 -27 0 32 -18 57 -51
75 -17 8 -29 12 -27 7z"/>
<path d="M1351 299 c-25 -40 -27 -72 -6 -89 12 -10 16 -7 25 16 6 16 23 42 38
58 25 26 25 28 5 22 -15 -5 -24 -2 -31 10 -9 16 -13 14 -31 -17z"/>
</g>
</svg>
