<svg version="1.1" id="Layer_1" xmlns="http://www.w3.org/2000/svg" xmlns:xlink="http://www.w3.org/1999/xlink" x="0px" y="0px"
	 width="100%" viewBox="0 0 512 512" enable-background="new 0 0 512 512" xml:space="preserve">
<path fill="#F0F0F5" opacity="1.000000" stroke="none" 
	d="
M512.688171,97.770844 
	C513.000000,99.066673 513.000000,100.133339 513.000000,101.600006 
	C499.992859,120.526291 484.727417,136.920197 466.624084,150.552658 
	C463.053345,153.241547 462.319336,156.546631 462.453979,160.571442 
	C463.373932,188.075470 459.847992,215.071960 452.850586,241.629166 
	C440.422119,288.798920 418.442627,331.028412 386.476227,367.885345 
	C352.539703,407.013794 310.811768,434.795227 261.766449,451.330475 
	C238.981094,459.012360 215.526245,463.855011 191.450363,465.588470 
	C153.962769,468.287598 116.932213,466.266876 80.595123,455.934235 
	C52.541218,447.956940 26.037947,436.540894 1.295496,420.263031 
	C1.000000,419.250000 1.000000,418.500000 1.000000,417.375000 
	C4.265366,415.831573 7.614656,416.500275 10.890040,416.742279 
	C46.709221,419.389221 80.890900,413.006317 113.488815,398.101959 
	C126.080795,392.344696 138.041565,385.428802 149.716400,376.883179 
	C147.589050,375.831024 145.666504,375.820404 143.836975,375.515656 
	C103.269318,368.757507 74.848999,346.533356 58.715649,308.665558 
	C58.258514,307.592590 57.812775,306.508667 57.538460,305.372528 
	C56.571751,301.368805 57.656746,299.690063 61.607796,300.259186 
	C73.533806,301.976990 85.382912,301.700439 96.160446,299.660126 
	C56.362206,286.303314 30.509134,259.127838 21.406488,216.731552 
	C20.221170,211.210846 19.427607,205.561829 19.594887,199.869904 
	C19.759701,194.261795 21.379040,193.167023 26.377573,195.642853 
	C37.512932,201.158310 49.251366,204.479141 62.048347,206.007812 
	C50.280872,197.319916 41.224667,186.660416 34.497456,174.294724 
	C16.153067,140.574860 15.335287,106.305534 32.532711,71.828392 
	C35.291046,66.298523 37.063549,66.078590 41.281147,70.718597 
	C54.967453,85.775650 69.107071,100.316902 85.183235,112.912781 
	C127.347878,145.949341 174.912750,166.150452 227.936752,173.591980 
	C233.217560,174.333099 238.516235,174.926590 243.816116,175.433578 
	C249.722610,175.998642 250.341476,175.414383 249.537125,169.584930 
	C247.456161,154.503662 248.631363,139.699600 252.484848,125.015961 
	C263.170776,84.297508 301.282318,51.486034 343.231293,47.783638 
	C376.024200,44.889351 405.347992,53.301048 429.353241,76.850815 
	C431.800842,79.251938 434.261108,79.709206 437.494293,78.967094 
	C456.460358,74.613815 474.459625,67.763908 491.560944,58.501110 
	C493.811951,57.281895 496.271393,54.771324 498.768494,57.021877 
	C500.972961,59.008724 499.138794,61.784695 498.266022,63.998753 
	C491.201508,81.920647 479.956024,96.775909 464.968323,108.824104 
	C463.617157,109.910248 462.304230,111.121651 460.089661,111.695480 
	C475.873596,109.025040 490.820862,105.092545 505.227600,99.180534 
	C507.495361,98.249908 509.708069,96.830345 512.688171,97.770844 
z"/>
<path fill="#000000" opacity="0.000000" stroke="none" 
	d="
M513.000000,97.531342 
	C500.114990,102.395157 487.568329,107.846542 474.108093,110.445709 
	C468.273071,111.572449 462.440979,112.714394 455.602875,114.044907 
	C458.954712,111.433380 461.604553,109.369347 464.253815,107.304535 
	C480.060425,94.985062 491.277496,79.344315 497.898590,60.453941 
	C498.221588,59.532352 500.194427,58.246349 498.311157,57.104073 
	C496.990387,56.302990 495.700256,57.517395 494.705444,58.131855 
	C482.731476,65.528008 469.835785,70.848244 456.485992,75.083473 
	C449.473297,77.308250 442.306793,79.049019 435.205902,80.994446 
	C433.094147,81.573013 431.499268,81.267288 429.797821,79.418243 
	C416.362885,64.818192 399.480957,55.559097 380.434875,51.406193 
	C357.932037,46.499546 335.469452,47.549931 313.834045,56.965630 
	C288.706116,67.901283 270.780945,86.091843 259.194397,110.614792 
	C254.654358,120.223824 252.141693,130.499756 250.871918,141.169159 
	C249.537369,152.382950 249.670792,163.401535 251.980011,174.425003 
	C252.492844,176.873047 251.006927,176.893234 249.115417,177.060669 
	C243.454849,177.561783 237.847275,176.555222 232.385727,175.784439 
	C218.975739,173.891922 205.595291,171.618851 192.468521,168.050583 
	C176.332108,163.664200 160.706436,158.011078 145.423660,151.202332 
	C129.198746,143.973831 114.066002,135.001740 99.356895,125.113205 
	C80.022980,112.115540 63.117435,96.398895 47.249992,79.521805 
	C44.231464,76.311203 40.791836,73.300201 38.419979,69.620537 
	C36.685318,66.929405 35.876534,68.159134 35.100979,69.653610 
	C29.146772,81.127220 24.645767,93.042053 22.869431,106.003372 
	C21.916876,112.953827 21.782593,119.864761 22.081030,126.763214 
	C22.989719,147.767883 29.749134,166.806427 42.259796,183.757217 
	C48.599365,192.346756 55.831512,200.040009 64.635056,206.173767 
	C65.116234,206.509018 65.397530,207.131134 66.083527,208.026520 
	C50.080498,206.404831 35.319321,202.486465 21.552067,194.690475 
	C18.480110,239.382782 51.298965,287.675659 101.438530,299.290436 
	C99.016777,302.479187 95.168968,301.208984 92.228386,301.741333 
	C81.728951,303.642059 71.077110,303.671936 60.543102,301.152649 
	C57.629597,300.455841 57.789398,301.896637 58.572582,304.218628 
	C62.259037,315.148224 67.761261,325.103302 74.747261,334.188965 
	C84.730606,347.172791 97.330719,357.189209 111.963280,364.368469 
	C122.369522,369.474060 133.378113,373.001892 145.097763,374.181763 
	C147.857193,374.459564 150.762665,374.769684 154.436035,375.198456 
	C138.324326,387.407776 121.524475,396.629913 103.657440,403.992493 
	C88.245377,410.343445 72.151825,414.444092 55.752792,416.797241 
	C42.568153,418.689087 29.138439,420.067078 15.816222,418.745636 
	C11.176907,418.285492 6.322481,418.997467 1.400195,417.137512 
	C1.000000,279.891876 1.025665,142.783691 0.878815,5.675721 
	C0.874309,1.468069 1.918661,0.896095 5.820426,0.898834 
	C173.248871,1.016383 340.677429,1.024855 508.105804,0.866752 
	C512.615967,0.862493 513.117859,2.144962 513.095215,6.102211 
	C512.921814,36.421558 513.000000,66.742348 513.000000,97.531342 
z"/>
<path fill="#000000" opacity="0.000000" stroke="none" 
	d="
M1.000000,420.468658 
	C6.726494,420.321320 10.556239,424.583221 15.105902,427.154816 
	C32.368095,436.911804 50.410004,444.762726 69.199623,450.986603 
	C85.925636,456.526947 103.111214,460.277313 120.475105,462.869232 
	C142.000427,466.082306 163.817978,465.894775 185.439514,464.755554 
	C211.145767,463.401093 236.358810,458.277130 260.871033,450.059052 
	C290.546234,440.110046 317.846283,425.762177 342.758209,406.795563 
	C354.403778,397.929260 365.567017,388.483582 375.553284,377.835022 
	C392.330811,359.944763 407.260529,340.596008 419.396454,319.177002 
	C431.397217,297.996521 441.298553,275.954742 448.177063,252.548447 
	C452.502899,237.828568 455.714508,222.934387 458.142731,207.778000 
	C460.819580,191.069595 461.255768,174.327103 460.905518,157.516342 
	C460.833923,154.078506 462.025940,151.850601 464.618195,150.047592 
	C477.578247,141.033356 488.266388,129.664276 498.757660,117.978172 
	C503.564240,112.624184 506.844635,106.067444 512.719238,101.708336 
	C513.000000,237.441620 512.973938,372.883270 513.121216,508.324738 
	C513.125793,512.533325 512.080017,513.103821 508.179169,513.101074 
	C340.584808,512.983643 172.990341,512.982117 5.396008,513.108643 
	C1.418741,513.111633 0.894846,511.960175 0.913573,508.399353 
	C1.066895,479.246002 1.000000,450.091492 1.000000,420.468658 
z"/>
</svg>