<svg version="1.1" id="Layer_1" xmlns="http://www.w3.org/2000/svg" xmlns:xlink="http://www.w3.org/1999/xlink" x="0px" y="0px"
	 width="100%" viewBox="0 0 109 95" enable-background="new 0 0 109 95" xml:space="preserve">
<path fill="#FEFEFE" opacity="0.000000" stroke="none" 
	d="
M69.000000,96.000000 
	C46.000000,96.000000 23.500000,96.000000 1.000000,96.000000 
	C1.000000,64.333336 1.000000,32.666668 1.000000,1.000000 
	C37.333332,1.000000 73.666664,1.000000 110.000000,1.000000 
	C110.000000,32.666668 110.000000,64.333336 110.000000,96.000000 
	C96.500000,96.000000 83.000000,96.000000 69.000000,96.000000 
M46.072090,79.756172 
	C43.015072,81.270042 39.958057,82.783913 35.934380,84.776489 
	C38.299374,85.332504 39.769787,85.885597 41.273342,85.998924 
	C53.425049,86.914803 61.775356,78.847031 61.989948,65.783432 
	C62.156513,55.643608 62.023239,45.498856 62.023239,35.126118 
	C65.995911,33.759007 69.954628,32.529057 73.807007,31.026474 
	C76.576920,29.946098 79.204903,28.501877 81.896202,27.219957 
	C79.307053,25.143534 76.720100,23.064335 74.119225,21.002703 
	C74.031792,20.933401 73.803780,21.041464 73.641289,21.066856 
	C74.785957,25.147072 70.614632,27.963566 61.856453,29.024023 
	C58.528820,14.513231 56.775421,12.742599 50.098560,17.150579 
	C55.996090,18.989311 55.995937,18.989313 56.131203,26.200901 
	C56.140575,26.700535 56.073513,27.218073 56.179653,27.696764 
	C56.908161,30.982409 55.288349,32.251221 52.320457,33.341770 
	C43.597286,36.547100 35.076988,40.303474 26.360731,43.529232 
	C22.934603,44.797195 19.199497,45.230286 15.151670,46.146164 
	C14.905733,48.742813 16.794516,50.877968 19.861368,50.923038 
	C22.522234,50.962151 25.320328,49.926304 27.854069,48.874725 
	C37.157932,45.013344 46.376938,40.947495 56.031261,36.784672 
	C56.031261,46.131397 56.099266,54.392582 56.010750,62.652092 
	C55.933445,69.864998 52.708248,75.403946 46.072090,79.756172 
M57.806942,11.270969 
	C61.765999,10.101761 65.764046,9.044468 69.657913,7.688129 
	C70.688301,7.329220 72.149200,5.969813 72.069084,5.211786 
	C71.963219,4.210167 70.524353,2.555303 69.676140,2.566123 
	C66.313667,2.609017 62.783714,2.657195 59.635834,3.684222 
	C52.829792,5.904761 46.220921,8.729646 39.346573,11.378541 
	C44.935722,14.410576 50.999233,12.506496 57.806942,11.270969 
z"/>
<path fill="#f0f0f5" opacity="1.000000" stroke="none" 
	d="
M46.365112,79.533279 
	C52.708248,75.403946 55.933445,69.864998 56.010750,62.652092 
	C56.099266,54.392582 56.031261,46.131397 56.031261,36.784672 
	C46.376938,40.947495 37.157932,45.013344 27.854069,48.874725 
	C25.320328,49.926304 22.522234,50.962151 19.861368,50.923038 
	C16.794516,50.877968 14.905733,48.742813 15.151670,46.146164 
	C19.199497,45.230286 22.934603,44.797195 26.360731,43.529232 
	C35.076988,40.303474 43.597286,36.547100 52.320457,33.341770 
	C55.288349,32.251221 56.908161,30.982409 56.179653,27.696764 
	C56.073513,27.218073 56.140575,26.700535 56.131203,26.200901 
	C55.995937,18.989313 55.996090,18.989311 50.098560,17.150579 
	C56.775421,12.742599 58.528820,14.513231 61.856453,29.024023 
	C70.614632,27.963566 74.785957,25.147072 73.641289,21.066856 
	C73.803780,21.041464 74.031792,20.933401 74.119225,21.002703 
	C76.720100,23.064335 79.307053,25.143534 81.896202,27.219959 
	C79.204903,28.501877 76.576920,29.946098 73.807007,31.026474 
	C69.954628,32.529057 65.995911,33.759007 62.023239,35.126118 
	C62.023239,45.498856 62.156513,55.643608 61.989948,65.783432 
	C61.775356,78.847031 53.425049,86.914803 41.273342,85.998924 
	C39.769787,85.885597 38.299374,85.332504 35.934380,84.776489 
	C39.958057,82.783913 43.015072,81.270042 46.365112,79.533279 
z"/>
<path fill="#f0f0f5" opacity="1.000000" stroke="none" 
	d="
M57.407394,11.407495 
	C50.999233,12.506496 44.935722,14.410576 39.346573,11.378541 
	C46.220921,8.729646 52.829792,5.904761 59.635834,3.684222 
	C62.783714,2.657195 66.313667,2.609017 69.676140,2.566123 
	C70.524353,2.555303 71.963219,4.210167 72.069084,5.211786 
	C72.149200,5.969813 70.688301,7.329220 69.657913,7.688129 
	C65.764046,9.044468 61.765999,10.101761 57.407394,11.407495 
z"/>
</svg>