<?xml version="1.0" standalone="no"?>
<!DOCTYPE svg PUBLIC "-//W3C//DTD SVG 20010904//EN"
 "http://www.w3.org/TR/2001/REC-SVG-20010904/DTD/svg10.dtd">
<svg version="1.0" xmlns="http://www.w3.org/2000/svg"
 width="472.000000pt" height="500.000000pt" viewBox="0 0 472.000000 500.000000"
 preserveAspectRatio="xMidYMid meet">

<g transform="translate(0.000000,500.000000) scale(0.100000,-0.100000)"
fill="#1F1F29" stroke="none">
<path d="M10 2500 l0 -2500 2355 0 2355 0 0 2500 0 2500 -2355 0 -2355 0 0
-2500z m2470 2340 c0 -123 1 -130 20 -130 19 0 20 7 20 130 l0 130 1080 0
1080 0 0 -930 0 -930 -35 0 c-62 0 -139 -21 -225 -62 -119 -57 -221 -159 -278
-278 -54 -114 -66 -174 -60 -306 4 -85 11 -124 32 -178 39 -101 108 -198 186
-261 99 -81 186 -116 343 -140 l37 -6 0 -924 0 -925 -1080 0 -1079 0 -3 137
c-3 122 -5 138 -20 141 -16 3 -18 -9 -18 -137 l0 -141 -1220 0 -1220 0 0 135
0 135 679 0 680 0 93 40 c507 220 956 660 1188 1165 230 501 280 1046 144
1588 -165 657 -644 1239 -1267 1537 l-125 60 -696 0 -696 0 0 140 0 140 1220
0 1220 0 0 -130z m-931 -243 c315 -159 554 -347 777 -609 279 -327 467 -762
526 -1218 16 -121 15 -426 -1 -550 -36 -270 -101 -488 -221 -735 -226 -467
-602 -843 -1075 -1076 l-140 -69 -685 0 -685 0 -3 525 -2 525 135 0 c113 0
135 2 135 15 0 13 -22 15 -135 15 l-135 0 0 135 0 135 945 0 945 0 0 95 0 94
37 6 c161 25 263 75 368 180 133 132 192 285 182 465 -18 298 -246 547 -529
577 l-58 6 0 93 0 94 -945 0 -945 0 0 140 0 140 135 0 c113 0 135 2 135 15 0
13 -22 15 -135 15 l-135 0 0 525 0 525 698 -2 697 -3 114 -58z m346 -1407 l0
-75 -65 -8 c-69 -9 -83 -15 -72 -34 5 -9 19 -9 47 -3 22 5 52 10 68 10 l27 0
0 -581 0 -581 -67 3 c-44 3 -67 0 -70 -8 -4 -11 12 -16 95 -28 l42 -7 0 -74 0
-74 -930 0 -930 0 0 770 0 770 928 -2 927 -3 0 -75z m140 -125 c109 -28 203
-81 280 -159 118 -119 169 -243 169 -406 0 -106 -17 -178 -66 -274 -39 -78
-162 -201 -243 -243 -65 -34 -164 -63 -214 -63 l-31 0 0 580 0 580 23 0 c12 0
50 -7 82 -15z m2645 -163 l0 -178 -42 -12 c-101 -27 -159 -95 -166 -192 -5
-71 10 -120 51 -167 34 -38 97 -72 135 -73 22 0 22 0 22 -180 l0 -180 -38 0
c-112 0 -263 72 -364 172 -119 120 -177 274 -165 446 10 154 68 273 186 385
96 90 236 153 349 156 l32 1 0 -178z m0 -408 l0 -186 -32 6 c-35 7 -90 47
-120 87 -30 39 -34 117 -10 172 24 53 90 107 134 107 l28 0 0 -186z"/>
<path d="M1556 2998 c-56 -41 -64 -52 -47 -63 12 -7 120 66 121 82 0 26 -20
21 -74 -19z"/>
<path d="M1376 2798 c-33 -57 -43 -98 -24 -98 12 0 72 101 73 124 1 27 -27 12
-49 -26z"/>
<path d="M417 2783 c-4 -3 -7 -134 -7 -290 0 -276 0 -283 20 -283 19 0 20 7
20 94 l0 94 37 -19 c46 -24 67 -24 120 0 50 23 73 63 73 127 0 41 -5 51 -39
85 -34 35 -44 39 -88 39 -28 0 -58 -6 -69 -15 -10 -8 -22 -15 -26 -15 -5 0 -8
43 -8 95 0 73 -3 95 -13 95 -8 0 -17 -3 -20 -7z m184 -200 c87 -51 49 -183
-53 -183 -98 0 -136 138 -51 184 37 20 69 20 104 -1z"/>
<path d="M1300 2495 c0 -70 2 -75 21 -75 15 0 19 4 15 16 -3 9 -6 42 -6 75 0
46 -3 59 -15 59 -12 0 -15 -15 -15 -75z"/>
<path d="M1345 2280 c-8 -13 54 -130 70 -130 24 0 23 13 -1 52 -14 21 -29 50
-34 63 -10 26 -24 32 -35 15z"/>
<path d="M1515 2050 c-9 -15 10 -35 66 -70 44 -27 50 -28 56 -13 4 9 2 18 -5
21 -6 2 -31 19 -56 38 -50 38 -52 39 -61 24z"/>
</g>
</svg>
