<svg version="1.1" id="Layer_1" xmlns="http://www.w3.org/2000/svg" xmlns:xlink="http://www.w3.org/1999/xlink" x="0px" y="0px"
	 width="100%" viewBox="0 0 1051 657" enable-background="new 0 0 1051 657" xml:space="preserve">
<path fill="#13131a" opacity="1.000000" stroke="none" 
	d="
M653.000000,658.000000 
	C435.333405,658.000000 218.166794,658.000000 1.000146,658.000000 
	C1.000097,439.000122 1.000097,220.000259 1.000049,1.000293 
	C351.333099,1.000195 701.666199,1.000195 1051.999512,1.000098 
	C1051.999634,219.999695 1051.999634,438.999390 1051.999756,657.999512 
	C919.166687,658.000000 786.333313,658.000000 653.000000,658.000000 
M250.046509,461.912781 
	C250.059525,468.280182 250.072540,474.647552 250.061569,481.950134 
	C250.039642,521.183533 250.002106,560.416931 250.011185,599.650330 
	C250.012695,606.166748 250.790558,606.951477 257.120544,606.984924 
	C264.766296,607.025391 272.412842,606.916138 280.988373,606.906372 
	C360.577332,606.944153 440.166290,606.989685 519.755249,607.005371 
	C526.403687,607.006653 527.008972,606.341187 527.012512,599.347656 
	C527.030945,562.716675 527.014648,526.085632 527.010498,489.454651 
	C527.010254,487.668457 527.010437,485.882233 527.010437,483.685638 
	C529.443115,493.518555 531.154785,502.893921 534.106262,511.861237 
	C540.476807,531.216736 550.151123,548.749268 565.356567,563.625549 
	C571.658508,569.266785 577.555542,575.458008 584.335327,580.450317 
	C608.567749,598.294128 636.007629,606.876892 666.033020,606.972290 
	C709.011475,607.108887 751.990601,607.024719 794.969482,607.033386 
	C796.135498,607.033630 797.304749,606.954346 798.466919,607.016479 
	C802.574951,607.235840 804.208252,605.165222 804.030151,601.235779 
	C803.939697,599.241272 804.034363,597.238586 804.033936,595.239624 
	C804.017883,517.111389 804.001038,438.983154 803.982361,360.854919 
	C803.980347,352.525726 803.875366,344.195190 803.994934,335.867859 
	C804.056274,331.597687 802.299805,329.626892 797.055847,330.059570 
	C760.743164,330.059570 724.430420,330.059570 688.117737,330.059570 
	C688.057556,329.434082 687.997375,328.808594 687.937195,328.183105 
	C690.064514,327.600555 692.169556,326.914551 694.322510,326.450928 
	C725.720093,319.690247 751.658936,303.831512 772.196655,279.262146 
	C791.851562,255.748825 802.959290,228.431061 803.736511,197.915268 
	C804.702576,159.985367 803.906311,122.010559 803.930603,83.108353 
	C803.957642,75.461784 804.021118,67.815117 804.001343,60.168663 
	C803.982239,52.753525 803.377075,52.067188 796.100403,52.106380 
	C754.051392,52.332836 712.002686,52.614136 669.167725,52.676044 
	C663.779480,52.544968 658.391174,52.413891 652.065979,52.242676 
	C642.074158,52.264145 632.082275,52.285614 621.137756,52.209984 
	C591.880920,52.169239 562.623962,52.168850 533.367493,52.047241 
	C528.600281,52.027424 526.954895,54.187225 526.971985,58.745266 
	C527.086243,89.166031 527.074951,119.587265 527.079346,150.944351 
	C527.049316,160.621643 527.019287,170.298935 526.499878,179.981171 
	C526.499878,179.981171 526.010559,179.976501 526.000977,179.098969 
	C525.297852,173.742233 524.594727,168.385513 523.773071,162.256012 
	C516.825378,130.113647 500.758148,103.420303 475.040222,82.973434 
	C450.268707,63.278976 422.037598,52.767288 390.038635,52.906101 
	C346.209778,53.096237 302.379547,52.962040 258.549927,52.989826 
	C250.663147,52.994827 250.061279,53.605789 250.058731,61.589355 
	C250.031204,148.248718 250.015518,234.908081 250.013000,321.567444 
	C250.012772,329.441040 250.578598,329.980927 258.650513,329.986237 
	C293.480896,330.009125 328.311371,329.982574 363.141602,330.056396 
	C366.101044,330.062683 369.059174,330.676849 371.156158,331.022919 
	C369.175720,331.239899 367.176453,331.348663 365.217682,331.690002 
	C331.032043,337.646942 302.801880,354.050385 280.889740,380.852539 
	C261.895844,404.085144 251.605606,430.900269 250.046509,461.912781 
z"/>
<path fill="#1f1f29" opacity="1.000000" stroke="none" 
	d="
M564.964417,563.101196 
	C550.151123,548.749268 540.476807,531.216736 534.106262,511.861237 
	C531.154785,502.893921 529.443115,493.518555 527.010437,483.685638 
	C527.010437,485.882233 527.010254,487.668457 527.010498,489.454651 
	C527.014648,526.085632 527.030945,562.716675 527.012512,599.347656 
	C527.008972,606.341187 526.403687,607.006653 519.755249,607.005371 
	C440.166290,606.989685 360.577332,606.944153 280.677124,606.601807 
	C285.206207,602.648438 289.709473,598.750793 292.905579,593.410706 
	C294.210449,591.230530 296.552979,589.626282 298.562622,587.924316 
	C301.097473,585.777588 304.060791,584.073730 306.340485,581.699768 
	C315.811707,571.837036 324.929413,561.631714 334.495026,551.863647 
	C343.810883,542.350708 353.498352,533.200867 363.051971,523.921753 
	C379.005371,508.426788 394.986328,492.960114 410.937225,477.462585 
	C411.764374,476.658905 412.349335,475.608185 413.165131,474.790283 
	C419.574371,468.364838 426.006104,461.961853 432.448334,455.569489 
	C433.387543,454.637573 434.606689,453.937347 435.377716,452.894348 
	C441.329620,444.843323 447.753845,437.296936 456.357758,431.882111 
	C457.435486,431.203857 458.169220,429.967316 459.034515,428.965454 
	C461.525726,426.080902 463.819061,422.997894 466.523529,420.330933 
	C472.065796,414.865601 477.990601,409.783386 483.450287,404.240448 
	C489.125916,398.478210 494.305847,392.228485 499.965302,386.449280 
	C502.852905,383.500580 506.592072,381.384216 509.470184,378.428101 
	C520.205322,367.401947 530.610596,356.052948 541.412659,345.094238 
	C546.637451,339.793732 552.468567,335.090912 558.491211,330.095947 
	C586.635986,330.074463 614.314758,330.074463 641.993530,330.074463 
	C642.002930,329.562592 642.012390,329.050751 642.021790,328.538879 
	C641.632568,328.254272 641.281311,327.819916 640.847778,327.709900 
	C638.435059,327.097687 635.989868,326.612946 633.578552,325.995850 
	C616.373474,321.592865 600.043579,315.280457 586.018066,303.693359 
	C587.902527,300.281403 589.317566,296.867950 591.658936,294.298645 
	C596.891418,288.556610 602.575195,283.224915 608.096802,277.747833 
	C610.331604,275.531067 612.513306,273.241791 614.911682,271.213104 
	C619.469116,267.358124 625.693481,264.535645 628.440857,259.701691 
	C632.432495,252.678467 638.035095,248.015869 643.993347,243.247925 
	C647.051147,240.801010 649.927063,238.071198 652.578064,235.186920 
	C655.340454,232.181427 657.301819,228.321198 660.376587,225.745773 
	C666.932434,220.254532 674.517517,215.977341 678.424194,207.735474 
	C679.424500,205.625137 681.776001,204.127411 683.588074,202.435455 
	C687.635620,198.656281 692.113953,195.605927 695.826355,191.141968 
	C703.609192,181.783539 712.936890,173.706467 721.664246,165.137878 
	C730.842041,156.126999 740.020996,147.116547 749.277649,138.187042 
	C753.313049,134.294220 757.741394,130.795364 761.638855,126.775856 
	C767.473999,120.757996 772.922913,114.367027 778.697632,108.288216 
	C780.601379,106.284286 783.175171,104.927505 785.149841,102.978271 
	C791.464111,96.745377 797.641174,90.373421 803.871216,84.055145 
	C803.906311,122.010559 804.702576,159.985367 803.736511,197.915268 
	C802.959290,228.431061 791.851562,255.748825 772.196655,279.262146 
	C751.658936,303.831512 725.720093,319.690247 694.322510,326.450928 
	C692.169556,326.914551 690.064514,327.600555 687.937195,328.183105 
	C687.997375,328.808594 688.057556,329.434082 688.117737,330.059570 
	C724.430420,330.059570 760.743164,330.059570 797.286743,330.339966 
	C795.877930,331.351166 794.289795,332.535980 792.588806,332.729767 
	C786.916687,333.375916 782.624084,336.004974 779.228882,340.531738 
	C778.179626,341.930634 776.577942,343.163757 774.964111,343.842773 
	C770.549011,345.700348 766.697449,347.719849 767.755432,353.583557 
	C767.846863,354.090149 767.364624,354.927765 766.898193,355.272949 
	C761.076416,359.582123 755.149841,363.751862 749.387390,368.137756 
	C747.638794,369.468719 744.875916,371.528687 745.050659,372.950928 
	C745.651123,377.838989 742.491028,379.240723 739.324280,381.105225 
	C737.764221,382.023712 736.071106,383.095093 735.083557,384.538757 
	C731.634888,389.580750 724.581665,391.078552 722.536011,397.516998 
	C722.264893,398.370422 720.760986,399.067841 719.692688,399.392761 
	C714.200134,401.063110 711.143860,405.212830 707.956299,409.650024 
	C704.617432,414.297913 700.974609,419.270294 696.288208,422.251709 
	C691.786499,425.115601 688.105652,428.090332 685.125793,432.475708 
	C681.150696,438.325806 677.610718,444.771454 670.059326,447.136932 
	C668.928528,447.491150 667.474060,449.331543 667.509399,450.441681 
	C667.645081,454.698853 665.446289,456.581818 661.845581,458.132324 
	C659.842468,458.994873 658.510559,461.312561 656.704773,462.760742 
	C653.932983,464.983643 650.994263,466.996948 648.165771,469.150909 
	C646.899414,470.115295 644.630310,471.279877 644.694763,472.225616 
	C645.075562,477.810883 641.517517,479.988647 637.385376,482.110565 
	C635.982117,482.831207 635.139160,484.566315 633.842407,485.586639 
	C630.924500,487.882568 627.797668,489.917328 624.927917,492.268463 
	C623.504517,493.434662 621.449036,495.058258 621.439636,496.486542 
	C621.413391,500.458832 619.792480,502.421814 616.236511,503.928345 
	C614.082214,504.841095 612.608948,507.263092 610.670166,508.806549 
	C607.890686,511.019257 604.942017,513.018066 602.113220,515.170776 
	C600.848633,516.133057 598.632568,517.295410 598.677002,518.284912 
	C598.912476,523.532349 595.952148,525.869995 591.744385,527.871887 
	C589.922058,528.738892 588.828491,531.027100 587.190002,532.417725 
	C584.839844,534.412476 582.506287,536.625916 579.773804,537.916382 
	C576.880981,539.282593 575.343689,540.796509 575.012024,544.134949 
	C574.839417,545.872375 573.349487,548.066162 571.815063,548.980774 
	C564.693481,553.225342 563.793762,554.752075 564.964417,563.101196 
z"/>
<path fill="#1f1f29" opacity="1.000000" stroke="none" 
	d="
M372.017914,331.008606 
	C369.059174,330.676849 366.101044,330.062683 363.141602,330.056396 
	C328.311371,329.982574 293.480896,330.009125 258.650513,329.986237 
	C250.578598,329.980927 250.012772,329.441040 250.013000,321.567444 
	C250.015518,234.908081 250.031204,148.248718 250.058731,61.589355 
	C250.061279,53.605789 250.663147,52.994827 258.549927,52.989826 
	C302.379547,52.962040 346.209778,53.096237 390.038635,52.906101 
	C422.037598,52.767288 450.268707,63.278976 475.040222,82.973434 
	C500.758148,103.420303 516.825378,130.113647 523.418945,162.648376 
	C517.772095,163.190430 512.974426,164.350983 508.956329,168.279755 
	C506.200714,170.974121 503.026855,173.370392 499.693359,175.301636 
	C497.182373,176.756348 495.414185,177.906158 497.007507,180.992523 
	C498.752014,184.371780 496.863007,185.412659 494.034698,186.825241 
	C490.609039,188.536194 487.551697,191.086823 484.565155,193.552856 
	C478.764099,198.342804 473.101746,203.302078 467.426392,208.242279 
	C464.726593,210.592377 461.253113,212.593384 459.667511,215.571152 
	C456.387665,221.730728 452.230499,226.620514 446.333099,230.386490 
	C442.693451,232.710709 439.400208,235.756348 436.454163,238.942902 
	C432.701782,243.001587 430.113464,248.416077 425.807587,251.603973 
	C421.595978,254.722092 417.401825,256.608337 420.568146,262.063599 
	C416.076050,264.641846 412.082336,266.631165 408.427795,269.118835 
	C404.943909,271.490295 401.691040,274.248779 398.593750,277.115021 
	C397.489288,278.137054 396.766052,279.923279 396.558105,281.454315 
	C396.380585,282.761658 397.190063,284.203064 397.689850,286.055542 
	C390.859711,287.705261 385.214447,290.580872 382.068634,296.922882 
	C381.685699,297.694916 380.552216,298.354492 379.649292,298.566376 
	C374.115448,299.864899 371.008423,302.352142 374.287872,307.270782 
	C366.396606,313.265747 359.015778,318.872955 351.634949,324.480164 
	C351.606079,324.929291 351.577240,325.378387 351.548401,325.827515 
	C360.121124,326.866730 368.693848,327.905914 377.266571,328.945099 
	C377.239716,329.449493 377.212860,329.953857 377.186005,330.458221 
	C375.463318,330.641693 373.740601,330.825134 372.017914,331.008606 
z"/>
<path fill="#1f1f29" opacity="1.000000" stroke="none" 
	d="
M558.025146,330.117493 
	C552.468567,335.090912 546.637451,339.793732 541.412659,345.094238 
	C530.610596,356.052948 520.205322,367.401947 509.470184,378.428101 
	C506.592072,381.384216 502.852905,383.500580 499.965302,386.449280 
	C494.305847,392.228485 489.125916,398.478210 483.450287,404.240448 
	C477.990601,409.783386 472.065796,414.865601 466.523529,420.330933 
	C463.819061,422.997894 461.525726,426.080902 459.034515,428.965454 
	C458.169220,429.967316 457.435486,431.203857 456.357758,431.882111 
	C447.753845,437.296936 441.329620,444.843323 435.377716,452.894348 
	C434.606689,453.937347 433.387543,454.637573 432.448334,455.569489 
	C426.006104,461.961853 419.574371,468.364838 413.165131,474.790283 
	C412.349335,475.608185 411.764374,476.658905 410.937225,477.462585 
	C394.986328,492.960114 379.005371,508.426788 363.051971,523.921753 
	C353.498352,533.200867 343.810883,542.350708 334.495026,551.863647 
	C324.929413,561.631714 315.811707,571.837036 306.340485,581.699768 
	C304.060791,584.073730 301.097473,585.777588 298.562622,587.924316 
	C296.552979,589.626282 294.210449,591.230530 292.905579,593.410706 
	C289.709473,598.750793 285.206207,602.648438 280.212433,606.584473 
	C272.412842,606.916138 264.766296,607.025391 257.120544,606.984924 
	C250.790558,606.951477 250.012695,606.166748 250.011185,599.650330 
	C250.002106,560.416931 250.039642,521.183533 250.394562,481.377075 
	C251.989014,479.364777 253.800354,478.127899 254.417297,476.451477 
	C257.176300,468.954468 262.159698,463.732391 269.496887,460.775116 
	C274.158691,458.896118 277.357300,455.973083 278.189331,450.757294 
	C278.369019,449.631104 279.369354,448.544464 280.200226,447.628876 
	C284.418671,442.980133 288.519592,438.160156 294.986542,436.448151 
	C295.556335,436.297302 296.456299,435.528534 296.401428,435.169159 
	C295.792084,431.178802 298.838318,429.120636 301.108826,427.079620 
	C305.673462,422.976196 308.216095,416.545807 315.034088,414.971161 
	C318.767853,414.108826 322.150299,412.705963 319.469971,407.983398 
	C321.103912,406.850525 322.454071,406.153015 323.505493,405.144196 
	C328.171783,400.666901 332.760529,396.108521 337.356598,391.558533 
	C338.176910,390.746490 338.807220,389.725922 339.683563,388.990112 
	C342.630127,386.515930 345.373779,383.606384 348.713013,381.845795 
	C352.346436,379.930145 355.099884,378.059784 355.736237,373.613464 
	C355.965973,372.008392 357.790039,370.564880 359.045776,369.193390 
	C360.144501,367.993378 361.431488,366.954956 362.696869,365.920502 
	C365.677277,363.484161 368.423035,360.573975 371.769897,358.823029 
	C375.425598,356.910522 378.162018,354.993530 378.727814,350.547791 
	C378.918152,349.052246 380.494324,347.635529 381.657379,346.388184 
	C382.874268,345.083099 384.331024,343.994110 385.727264,342.865509 
	C388.721283,340.445496 391.471161,337.533875 394.825348,335.798126 
	C398.806000,333.738190 401.864685,331.608124 402.270630,326.729279 
	C402.368713,325.550598 403.663574,324.365112 404.619873,323.390594 
	C405.871460,322.115173 407.313812,321.022034 408.708862,319.893463 
	C411.701752,317.472290 414.443573,314.553406 417.793793,312.809998 
	C421.758087,310.747040 424.839630,308.660126 425.259430,303.762115 
	C425.371887,302.450195 426.770020,301.139313 427.807251,300.045471 
	C428.927216,298.864380 430.787964,298.189392 431.498962,296.853638 
	C433.628448,292.852844 436.971344,290.790100 441.109924,289.487091 
	C444.845947,288.310852 447.236786,285.908020 448.207245,281.852295 
	C448.664429,279.941589 450.341400,278.273743 451.636597,276.630615 
	C452.440765,275.610352 453.524689,274.791626 454.553833,273.971252 
	C457.698059,271.464905 461.023346,269.163605 463.996613,266.471558 
	C466.495575,264.209015 468.673157,261.572449 470.853882,258.984253 
	C472.312805,257.252747 473.464020,255.264893 474.877197,253.490723 
	C475.691833,252.468018 476.707916,251.588058 477.713226,250.738388 
	C480.420776,248.450012 482.969788,245.882690 485.964844,244.053329 
	C488.616364,242.433777 491.069519,241.297226 489.162262,238.469193 
	C493.321411,234.551865 497.071381,230.895157 500.964508,227.397842 
	C503.480072,225.138046 506.012787,222.787766 508.893036,221.075623 
	C511.558167,219.491348 514.056824,218.376328 511.924133,215.210953 
	C513.771606,213.853683 515.309021,212.730347 516.839905,211.598343 
	C520.237915,209.085709 523.632751,206.568726 527.025879,204.516876 
	C527.021484,244.144470 527.005676,283.308655 527.032532,322.472839 
	C527.037170,329.219299 527.776001,329.897949 534.529663,329.964050 
	C542.361267,330.040710 550.193298,330.068512 558.025146,330.117493 
M397.260498,485.764709 
	C397.260498,485.764709 397.408356,486.043884 397.408356,486.043884 
	C397.408356,486.043884 397.360992,485.733978 397.260498,485.764709 
M374.515167,508.934143 
	C374.515167,508.934143 374.226105,508.788269 374.226105,508.788269 
	C374.226105,508.788269 374.447296,509.014954 374.515167,508.934143 
M420.019897,462.972229 
	C420.019897,462.972229 420.044495,463.004822 420.019897,462.972229 
M442.990265,439.962372 
	C442.990265,439.962372 443.030670,439.967651 442.990265,439.962372 
M465.980103,417.027771 
	C465.980103,417.027771 465.955505,416.995178 465.980103,417.027771 
z"/>
<path fill="#1f1f29" opacity="1.000000" stroke="none" 
	d="
M565.160522,563.363403 
	C563.793762,554.752075 564.693481,553.225342 571.815063,548.980774 
	C573.349487,548.066162 574.839417,545.872375 575.012024,544.134949 
	C575.343689,540.796509 576.880981,539.282593 579.773804,537.916382 
	C582.506287,536.625916 584.839844,534.412476 587.190002,532.417725 
	C588.828491,531.027100 589.922058,528.738892 591.744385,527.871887 
	C595.952148,525.869995 598.912476,523.532349 598.677002,518.284912 
	C598.632568,517.295410 600.848633,516.133057 602.113220,515.170776 
	C604.942017,513.018066 607.890686,511.019257 610.670166,508.806549 
	C612.608948,507.263092 614.082214,504.841095 616.236511,503.928345 
	C619.792480,502.421814 621.413391,500.458832 621.439636,496.486542 
	C621.449036,495.058258 623.504517,493.434662 624.927917,492.268463 
	C627.797668,489.917328 630.924500,487.882568 633.842407,485.586639 
	C635.139160,484.566315 635.982117,482.831207 637.385376,482.110565 
	C641.517517,479.988647 645.075562,477.810883 644.694763,472.225616 
	C644.630310,471.279877 646.899414,470.115295 648.165771,469.150909 
	C650.994263,466.996948 653.932983,464.983643 656.704773,462.760742 
	C658.510559,461.312561 659.842468,458.994873 661.845581,458.132324 
	C665.446289,456.581818 667.645081,454.698853 667.509399,450.441681 
	C667.474060,449.331543 668.928528,447.491150 670.059326,447.136932 
	C677.610718,444.771454 681.150696,438.325806 685.125793,432.475708 
	C688.105652,428.090332 691.786499,425.115601 696.288208,422.251709 
	C700.974609,419.270294 704.617432,414.297913 707.956299,409.650024 
	C711.143860,405.212830 714.200134,401.063110 719.692688,399.392761 
	C720.760986,399.067841 722.264893,398.370422 722.536011,397.516998 
	C724.581665,391.078552 731.634888,389.580750 735.083557,384.538757 
	C736.071106,383.095093 737.764221,382.023712 739.324280,381.105225 
	C742.491028,379.240723 745.651123,377.838989 745.050659,372.950928 
	C744.875916,371.528687 747.638794,369.468719 749.387390,368.137756 
	C755.149841,363.751862 761.076416,359.582123 766.898193,355.272949 
	C767.364624,354.927765 767.846863,354.090149 767.755432,353.583557 
	C766.697449,347.719849 770.549011,345.700348 774.964111,343.842773 
	C776.577942,343.163757 778.179626,341.930634 779.228882,340.531738 
	C782.624084,336.004974 786.916687,333.375916 792.588806,332.729767 
	C794.289795,332.535980 795.877930,331.351166 797.753967,330.370972 
	C802.299805,329.626892 804.056274,331.597687 803.994934,335.867859 
	C803.875366,344.195190 803.980347,352.525726 803.982361,360.854919 
	C804.001038,438.983154 804.017883,517.111389 804.033936,595.239624 
	C804.034363,597.238586 803.939697,599.241272 804.030151,601.235779 
	C804.208252,605.165222 802.574951,607.235840 798.466919,607.016479 
	C797.304749,606.954346 796.135498,607.033630 794.969482,607.033386 
	C751.990601,607.024719 709.011475,607.108887 666.033020,606.972290 
	C636.007629,606.876892 608.567749,598.294128 584.335327,580.450317 
	C577.555542,575.458008 571.658508,569.266785 565.160522,563.363403 
z"/>
<path fill="#1f1f29" opacity="1.000000" stroke="none" 
	d="
M803.900879,83.581741 
	C797.641174,90.373421 791.464111,96.745377 785.149841,102.978271 
	C783.175171,104.927505 780.601379,106.284286 778.697632,108.288216 
	C772.922913,114.367027 767.473999,120.757996 761.638855,126.775856 
	C757.741394,130.795364 753.313049,134.294220 749.277649,138.187042 
	C740.020996,147.116547 730.842041,156.126999 721.664246,165.137878 
	C712.936890,173.706467 703.609192,181.783539 695.826355,191.141968 
	C692.113953,195.605927 687.635620,198.656281 683.588074,202.435455 
	C681.776001,204.127411 679.424500,205.625137 678.424194,207.735474 
	C674.517517,215.977341 666.932434,220.254532 660.376587,225.745773 
	C657.301819,228.321198 655.340454,232.181427 652.578064,235.186920 
	C649.927063,238.071198 647.051147,240.801010 643.993347,243.247925 
	C638.035095,248.015869 632.432495,252.678467 628.440857,259.701691 
	C625.693481,264.535645 619.469116,267.358124 614.911682,271.213104 
	C612.513306,273.241791 610.331604,275.531067 608.096802,277.747833 
	C602.575195,283.224915 596.891418,288.556610 591.658936,294.298645 
	C589.317566,296.867950 587.902527,300.281403 585.701416,303.559326 
	C576.132751,295.267914 565.947571,287.555359 557.927185,278.021667 
	C540.059387,256.782562 529.939148,231.957764 528.053345,203.691589 
	C530.268860,196.375000 533.325073,190.670273 541.462341,188.725433 
	C543.865601,188.151031 545.419312,183.948990 547.321899,181.379456 
	C548.518372,179.763641 549.538513,178.007889 550.822083,176.468674 
	C552.178833,174.841766 553.614441,173.220291 555.266846,171.914459 
	C557.768433,169.937561 560.295776,167.807755 563.162170,166.524734 
	C566.809326,164.892197 569.892090,163.373001 570.803650,158.893570 
	C571.224304,156.826141 573.030090,154.988861 574.384705,153.179657 
	C575.460938,151.742325 576.661560,150.322647 578.062927,149.220642 
	C580.691711,147.153534 583.296875,144.860245 586.293701,143.505554 
	C590.331909,141.680038 593.621033,139.873230 593.829346,134.741776 
	C593.887390,133.310989 595.500122,131.842926 596.615295,130.582718 
	C597.800659,129.243088 599.171631,128.039551 600.586792,126.937355 
	C603.262695,124.853249 605.830811,122.504410 608.804199,120.959229 
	C612.926331,118.817062 616.874451,117.038376 616.835815,111.363434 
	C616.827393,110.118431 618.443115,108.766579 619.494263,107.634247 
	C620.824402,106.201462 622.271301,104.854691 623.795288,103.629417 
	C626.193604,101.701248 628.477783,99.432487 631.207458,98.159752 
	C635.774353,96.030403 640.113159,94.143440 639.753113,87.990196 
	C639.709351,87.242661 640.041992,86.176834 640.586609,85.737381 
	C645.580811,81.707413 650.257385,77.048203 655.810791,74.002441 
	C663.915588,69.557358 664.520142,60.268131 670.077332,54.332542 
	C670.300232,54.094501 670.006836,53.373074 669.953918,52.876862 
	C712.002686,52.614136 754.051392,52.332836 796.100403,52.106380 
	C803.377075,52.067188 803.982239,52.753525 804.001343,60.168663 
	C804.021118,67.815117 803.957642,75.461784 803.900879,83.581741 
M714.581543,168.324524 
	C714.362671,168.343994 714.143799,168.363449 713.924927,168.382904 
	C713.953491,168.509766 713.982117,168.636612 714.010742,168.763474 
	C714.214478,168.679703 714.418152,168.595947 714.581543,168.324524 
M736.969971,145.324295 
	C737.097229,145.503922 737.224548,145.683548 737.351868,145.863159 
	C737.446655,145.774353 737.541382,145.685547 737.636169,145.596756 
	C737.461365,145.462402 737.286621,145.328049 736.969971,145.324295 
M691.581543,191.324524 
	C691.362671,191.343979 691.143799,191.363434 690.924866,191.382919 
	C690.953491,191.509766 690.982117,191.636627 691.010742,191.763474 
	C691.214478,191.679703 691.418152,191.595932 691.581543,191.324524 
M760.634277,122.504471 
	C760.433960,122.411575 760.233704,122.318680 760.033386,122.225754 
	C759.995361,122.350632 759.957336,122.475502 759.919312,122.600380 
	C760.138306,122.629768 760.357361,122.659149 760.634277,122.504471 
M783.276367,99.855995 
	C783.369385,99.656296 783.462402,99.456604 783.555420,99.256897 
	C783.431458,99.218269 783.307434,99.179649 783.183472,99.141037 
	C783.153992,99.359848 783.124451,99.578659 783.276367,99.855995 
z"/>
<path fill="#1f1f29" opacity="1.000000" stroke="none" 
	d="
M371.587036,331.015747 
	C373.740601,330.825134 375.463318,330.641693 377.186005,330.458221 
	C377.212860,329.953857 377.239716,329.449493 377.266571,328.945099 
	C368.693848,327.905914 360.121124,326.866730 351.548401,325.827515 
	C351.577240,325.378387 351.606079,324.929291 351.634949,324.480164 
	C359.015778,318.872955 366.396606,313.265747 374.287872,307.270782 
	C371.008423,302.352142 374.115448,299.864899 379.649292,298.566376 
	C380.552216,298.354492 381.685699,297.694916 382.068634,296.922882 
	C385.214447,290.580872 390.859711,287.705261 397.689850,286.055542 
	C397.190063,284.203064 396.380585,282.761658 396.558105,281.454315 
	C396.766052,279.923279 397.489288,278.137054 398.593750,277.115021 
	C401.691040,274.248779 404.943909,271.490295 408.427795,269.118835 
	C412.082336,266.631165 416.076050,264.641846 420.568146,262.063599 
	C417.401825,256.608337 421.595978,254.722092 425.807587,251.603973 
	C430.113464,248.416077 432.701782,243.001587 436.454163,238.942902 
	C439.400208,235.756348 442.693451,232.710709 446.333099,230.386490 
	C452.230499,226.620514 456.387665,221.730728 459.667511,215.571152 
	C461.253113,212.593384 464.726593,210.592377 467.426392,208.242279 
	C473.101746,203.302078 478.764099,198.342804 484.565155,193.552856 
	C487.551697,191.086823 490.609039,188.536194 494.034698,186.825241 
	C496.863007,185.412659 498.752014,184.371780 497.007507,180.992523 
	C495.414185,177.906158 497.182373,176.756348 499.693359,175.301636 
	C503.026855,173.370392 506.200714,170.974121 508.956329,168.279755 
	C512.974426,164.350983 517.772095,163.190430 523.478271,163.034760 
	C524.594727,168.385513 525.297852,173.742233 526.035400,179.672455 
	C526.376282,180.156036 526.682800,180.066132 526.989258,179.976227 
	C527.019287,170.298935 527.049316,160.621643 527.400269,150.344055 
	C532.052856,145.731491 535.794983,140.940048 542.142334,139.654083 
	C542.728088,139.535431 542.769836,136.685730 543.046448,135.101074 
	C543.325500,133.502502 543.210205,130.705368 543.908020,130.487885 
	C549.620300,128.707520 553.300049,124.543793 557.264099,120.498268 
	C558.766907,118.964577 561.391174,118.514168 563.525269,117.620117 
	C564.974548,117.012962 566.460327,116.493050 568.308594,115.790047 
	C567.302307,113.904411 566.195801,112.659912 566.041687,111.306877 
	C565.890015,109.976181 566.391479,107.539871 567.145691,107.302567 
	C572.501587,105.617462 576.123474,101.977150 579.716675,97.930275 
	C581.228027,96.228134 584.054016,95.659782 586.327148,94.679733 
	C587.786438,94.050552 589.327209,93.610573 591.333252,92.910721 
	C590.286011,90.913528 589.177551,89.551964 588.906921,88.040421 
	C588.698364,86.875381 589.257385,84.617958 589.963074,84.395676 
	C595.469360,82.661324 599.212646,78.883278 602.949158,74.756882 
	C604.473206,73.073753 607.333069,72.585060 609.605713,71.600372 
	C611.035828,70.980759 612.503967,70.449158 613.955444,69.877930 
	C610.981323,62.492493 610.957581,62.441917 617.800476,59.230320 
	C620.812744,57.816536 622.817688,55.953976 622.090454,52.307083 
	C632.082275,52.285614 642.074158,52.264145 652.659424,52.462379 
	C654.585632,53.530708 655.918396,54.379333 659.347839,56.562908 
	C656.773621,58.143291 654.633118,59.139717 652.900024,60.614811 
	C651.308533,61.969341 650.103577,63.799961 648.822510,65.492195 
	C646.986328,67.917984 645.592468,70.808289 643.374146,72.788002 
	C638.817932,76.854149 633.776123,80.370972 629.075867,84.284042 
	C627.731750,85.403046 626.824951,87.072395 625.805115,88.549751 
	C624.349548,90.658264 623.344543,93.244362 621.486694,94.873253 
	C617.832458,98.077202 613.529724,100.540535 609.866943,103.736229 
	C607.178955,106.081390 605.140320,109.157539 602.710815,111.815155 
	C598.585632,116.327766 594.455261,120.840324 590.183655,125.212784 
	C587.143066,128.325119 583.728638,131.075546 580.729736,134.224350 
	C576.557800,138.604889 573.398254,144.639404 568.389893,147.366074 
	C561.512451,151.110291 557.394104,156.490692 553.236206,162.536011 
	C550.964722,165.838654 547.909363,169.171692 544.421509,170.944885 
	C537.952759,174.233521 534.035889,179.284760 530.815247,185.431259 
	C528.542603,189.768600 527.137085,195.227371 520.250305,194.927612 
	C518.797546,194.864380 517.122925,197.072372 515.766174,198.446701 
	C514.494446,199.734848 513.682190,201.490967 512.367371,202.719803 
	C505.601166,209.043747 498.726257,215.251190 491.913239,221.525345 
	C487.287018,225.785660 482.526276,229.918488 478.131042,234.407303 
	C467.948059,244.807037 457.692688,255.156982 447.977234,265.985168 
	C442.415070,272.184448 433.959869,275.742767 431.065918,284.398315 
	C430.842712,285.065948 429.795502,285.420868 429.238800,286.020874 
	C427.160980,288.260437 425.136993,290.549805 423.073883,292.803162 
	C422.199951,293.757629 421.406464,295.289032 420.359955,295.503906 
	C410.379608,297.553101 409.009369,308.766449 401.329559,313.202026 
	C400.970154,313.409607 400.974396,314.178131 400.633453,314.498016 
	C398.917816,316.107727 397.139526,317.650482 395.391174,319.225525 
	C392.386139,321.932617 389.139740,324.423065 386.443420,327.409607 
	C382.436157,331.848114 378.831116,336.648865 375.013580,341.261230 
	C374.732178,341.601227 374.133911,341.729523 373.656128,341.848602 
	C368.516327,343.129395 365.541443,346.730835 363.308594,351.246460 
	C362.669708,352.538483 361.786438,353.916290 360.639496,354.715881 
	C354.550171,358.961304 351.047089,366.240143 343.757874,369.062378 
	C343.339630,369.224274 343.096863,369.800171 342.727722,370.133942 
	C335.868011,376.336304 332.680298,386.101227 323.418365,390.016418 
	C322.638428,390.346130 322.328125,391.663055 321.647858,392.376648 
	C319.961700,394.145386 318.233032,395.879486 316.438049,397.537201 
	C313.887024,399.893188 311.139221,402.046356 308.688416,404.498871 
	C297.656036,415.538849 286.685303,426.640625 275.721497,437.748871 
	C271.659088,441.864807 266.411102,445.435211 263.973969,450.374512 
	C260.845123,456.715698 256.369720,459.601044 250.093018,460.971100 
	C251.605606,430.900269 261.895844,404.085144 280.889740,380.852539 
	C302.801880,354.050385 331.032043,337.646942 365.217682,331.690002 
	C367.176453,331.348663 369.175720,331.239899 371.587036,331.015747 
z"/>
<path fill="#1f1f29" opacity="1.000000" stroke="none" 
	d="
M250.069763,461.441956 
	C256.369720,459.601044 260.845123,456.715698 263.973969,450.374512 
	C266.411102,445.435211 271.659088,441.864807 275.721497,437.748871 
	C286.685303,426.640625 297.656036,415.538849 308.688416,404.498871 
	C311.139221,402.046356 313.887024,399.893188 316.438049,397.537201 
	C318.233032,395.879486 319.961700,394.145386 321.647858,392.376648 
	C322.328125,391.663055 322.638428,390.346130 323.418365,390.016418 
	C332.680298,386.101227 335.868011,376.336304 342.727722,370.133942 
	C343.096863,369.800171 343.339630,369.224274 343.757874,369.062378 
	C351.047089,366.240143 354.550171,358.961304 360.639496,354.715881 
	C361.786438,353.916290 362.669708,352.538483 363.308594,351.246460 
	C365.541443,346.730835 368.516327,343.129395 373.656128,341.848602 
	C374.133911,341.729523 374.732178,341.601227 375.013580,341.261230 
	C378.831116,336.648865 382.436157,331.848114 386.443420,327.409607 
	C389.139740,324.423065 392.386139,321.932617 395.391174,319.225525 
	C397.139526,317.650482 398.917816,316.107727 400.633453,314.498016 
	C400.974396,314.178131 400.970154,313.409607 401.329559,313.202026 
	C409.009369,308.766449 410.379608,297.553101 420.359955,295.503906 
	C421.406464,295.289032 422.199951,293.757629 423.073883,292.803162 
	C425.136993,290.549805 427.160980,288.260437 429.238800,286.020874 
	C429.795502,285.420868 430.842712,285.065948 431.065918,284.398315 
	C433.959869,275.742767 442.415070,272.184448 447.977234,265.985168 
	C457.692688,255.156982 467.948059,244.807037 478.131042,234.407303 
	C482.526276,229.918488 487.287018,225.785660 491.913239,221.525345 
	C498.726257,215.251190 505.601166,209.043747 512.367371,202.719803 
	C513.682190,201.490967 514.494446,199.734848 515.766174,198.446701 
	C517.122925,197.072372 518.797546,194.864380 520.250305,194.927612 
	C527.137085,195.227371 528.542603,189.768600 530.815247,185.431259 
	C534.035889,179.284760 537.952759,174.233521 544.421509,170.944885 
	C547.909363,169.171692 550.964722,165.838654 553.236206,162.536011 
	C557.394104,156.490692 561.512451,151.110291 568.389893,147.366074 
	C573.398254,144.639404 576.557800,138.604889 580.729736,134.224350 
	C583.728638,131.075546 587.143066,128.325119 590.183655,125.212784 
	C594.455261,120.840324 598.585632,116.327766 602.710815,111.815155 
	C605.140320,109.157539 607.178955,106.081390 609.866943,103.736229 
	C613.529724,100.540535 617.832458,98.077202 621.486694,94.873253 
	C623.344543,93.244362 624.349548,90.658264 625.805115,88.549751 
	C626.824951,87.072395 627.731750,85.403046 629.075867,84.284042 
	C633.776123,80.370972 638.817932,76.854149 643.374146,72.788002 
	C645.592468,70.808289 646.986328,67.917984 648.822510,65.492195 
	C650.103577,63.799961 651.308533,61.969341 652.900024,60.614811 
	C654.633118,59.139717 656.773621,58.143291 659.347839,56.562908 
	C655.918396,54.379333 654.585632,53.530708 653.127869,52.482445 
	C658.391174,52.413891 663.779480,52.544968 669.560791,52.776451 
	C670.006836,53.373074 670.300232,54.094501 670.077332,54.332542 
	C664.520142,60.268131 663.915588,69.557358 655.810791,74.002441 
	C650.257385,77.048203 645.580811,81.707413 640.586609,85.737381 
	C640.041992,86.176834 639.709351,87.242661 639.753113,87.990196 
	C640.113159,94.143440 635.774353,96.030403 631.207458,98.159752 
	C628.477783,99.432487 626.193604,101.701248 623.795288,103.629417 
	C622.271301,104.854691 620.824402,106.201462 619.494263,107.634247 
	C618.443115,108.766579 616.827393,110.118431 616.835815,111.363434 
	C616.874451,117.038376 612.926331,118.817062 608.804199,120.959229 
	C605.830811,122.504410 603.262695,124.853249 600.586792,126.937355 
	C599.171631,128.039551 597.800659,129.243088 596.615295,130.582718 
	C595.500122,131.842926 593.887390,133.310989 593.829346,134.741776 
	C593.621033,139.873230 590.331909,141.680038 586.293701,143.505554 
	C583.296875,144.860245 580.691711,147.153534 578.062927,149.220642 
	C576.661560,150.322647 575.460938,151.742325 574.384705,153.179657 
	C573.030090,154.988861 571.224304,156.826141 570.803650,158.893570 
	C569.892090,163.373001 566.809326,164.892197 563.162170,166.524734 
	C560.295776,167.807755 557.768433,169.937561 555.266846,171.914459 
	C553.614441,173.220291 552.178833,174.841766 550.822083,176.468674 
	C549.538513,178.007889 548.518372,179.763641 547.321899,181.379456 
	C545.419312,183.948990 543.865601,188.151031 541.462341,188.725433 
	C533.325073,190.670273 530.268860,196.375000 527.818237,203.688141 
	C527.499878,204.048203 527.028870,204.053482 527.028870,204.053482 
	C523.632751,206.568726 520.237915,209.085709 516.839905,211.598343 
	C515.309021,212.730347 513.771606,213.853683 511.924133,215.210953 
	C514.056824,218.376328 511.558167,219.491348 508.893036,221.075623 
	C506.012787,222.787766 503.480072,225.138046 500.964508,227.397842 
	C497.071381,230.895157 493.321411,234.551865 489.162262,238.469193 
	C491.069519,241.297226 488.616364,242.433777 485.964844,244.053329 
	C482.969788,245.882690 480.420776,248.450012 477.713226,250.738388 
	C476.707916,251.588058 475.691833,252.468018 474.877197,253.490723 
	C473.464020,255.264893 472.312805,257.252747 470.853882,258.984253 
	C468.673157,261.572449 466.495575,264.209015 463.996613,266.471558 
	C461.023346,269.163605 457.698059,271.464905 454.553833,273.971252 
	C453.524689,274.791626 452.440765,275.610352 451.636597,276.630615 
	C450.341400,278.273743 448.664429,279.941589 448.207245,281.852295 
	C447.236786,285.908020 444.845947,288.310852 441.109924,289.487091 
	C436.971344,290.790100 433.628448,292.852844 431.498962,296.853638 
	C430.787964,298.189392 428.927216,298.864380 427.807251,300.045471 
	C426.770020,301.139313 425.371887,302.450195 425.259430,303.762115 
	C424.839630,308.660126 421.758087,310.747040 417.793793,312.809998 
	C414.443573,314.553406 411.701752,317.472290 408.708862,319.893463 
	C407.313812,321.022034 405.871460,322.115173 404.619873,323.390594 
	C403.663574,324.365112 402.368713,325.550598 402.270630,326.729279 
	C401.864685,331.608124 398.806000,333.738190 394.825348,335.798126 
	C391.471161,337.533875 388.721283,340.445496 385.727264,342.865509 
	C384.331024,343.994110 382.874268,345.083099 381.657379,346.388184 
	C380.494324,347.635529 378.918152,349.052246 378.727814,350.547791 
	C378.162018,354.993530 375.425598,356.910522 371.769897,358.823029 
	C368.423035,360.573975 365.677277,363.484161 362.696869,365.920502 
	C361.431488,366.954956 360.144501,367.993378 359.045776,369.193390 
	C357.790039,370.564880 355.965973,372.008392 355.736237,373.613464 
	C355.099884,378.059784 352.346436,379.930145 348.713013,381.845795 
	C345.373779,383.606384 342.630127,386.515930 339.683563,388.990112 
	C338.807220,389.725922 338.176910,390.746490 337.356598,391.558533 
	C332.760529,396.108521 328.171783,400.666901 323.505493,405.144196 
	C322.454071,406.153015 321.103912,406.850525 319.469971,407.983398 
	C322.150299,412.705963 318.767853,414.108826 315.034088,414.971161 
	C308.216095,416.545807 305.673462,422.976196 301.108826,427.079620 
	C298.838318,429.120636 295.792084,431.178802 296.401428,435.169159 
	C296.456299,435.528534 295.556335,436.297302 294.986542,436.448151 
	C288.519592,438.160156 284.418671,442.980133 280.200226,447.628876 
	C279.369354,448.544464 278.369019,449.631104 278.189331,450.757294 
	C277.357300,455.973083 274.158691,458.896118 269.496887,460.775116 
	C262.159698,463.732391 257.176300,468.954468 254.417297,476.451477 
	C253.800354,478.127899 251.989014,479.364777 250.406555,480.909485 
	C250.072540,474.647552 250.059525,468.280182 250.069763,461.441956 
z"/>
<path fill="#1f1f29" opacity="1.000000" stroke="none" 
	d="
M621.614136,52.258533 
	C622.817688,55.953976 620.812744,57.816536 617.800476,59.230320 
	C610.957581,62.441917 610.981323,62.492493 613.955444,69.877930 
	C612.503967,70.449158 611.035828,70.980759 609.605713,71.600372 
	C607.333069,72.585060 604.473206,73.073753 602.949158,74.756882 
	C599.212646,78.883278 595.469360,82.661324 589.963074,84.395676 
	C589.257385,84.617958 588.698364,86.875381 588.906921,88.040421 
	C589.177551,89.551964 590.286011,90.913528 591.333252,92.910721 
	C589.327209,93.610573 587.786438,94.050552 586.327148,94.679733 
	C584.054016,95.659782 581.228027,96.228134 579.716675,97.930275 
	C576.123474,101.977150 572.501587,105.617462 567.145691,107.302567 
	C566.391479,107.539871 565.890015,109.976181 566.041687,111.306877 
	C566.195801,112.659912 567.302307,113.904411 568.308594,115.790047 
	C566.460327,116.493050 564.974548,117.012962 563.525269,117.620117 
	C561.391174,118.514168 558.766907,118.964577 557.264099,120.498268 
	C553.300049,124.543793 549.620300,128.707520 543.908020,130.487885 
	C543.210205,130.705368 543.325500,133.502502 543.046448,135.101074 
	C542.769836,136.685730 542.728088,139.535431 542.142334,139.654083 
	C535.794983,140.940048 532.052856,145.731491 527.412842,149.876038 
	C527.074951,119.587265 527.086243,89.166031 526.971985,58.745266 
	C526.954895,54.187225 528.600281,52.027424 533.367493,52.047241 
	C562.623962,52.168850 591.880920,52.169239 621.614136,52.258533 
z"/>
<path fill="#1f1f29" opacity="1.000000" stroke="none" 
	d="
M526.744568,179.978699 
	C526.682800,180.066132 526.376282,180.156036 526.040161,180.111237 
	C526.010559,179.976501 526.499878,179.981171 526.744568,179.978699 
z"/>
<path fill="#1f1f29" opacity="1.000000" stroke="none" 
	d="
M527.025879,204.516876 
	C527.028870,204.053482 527.499878,204.048203 527.735046,204.051636 
	C529.939148,231.957764 540.059387,256.782562 557.927185,278.021667 
	C565.947571,287.555359 576.132751,295.267914 585.652222,303.940918 
	C600.043579,315.280457 616.373474,321.592865 633.578552,325.995850 
	C635.989868,326.612946 638.435059,327.097687 640.847778,327.709900 
	C641.281311,327.819916 641.632568,328.254272 642.021790,328.538879 
	C642.012390,329.050751 642.002930,329.562592 641.993530,330.074463 
	C614.314758,330.074463 586.635986,330.074463 558.491211,330.095978 
	C550.193298,330.068512 542.361267,330.040710 534.529663,329.964050 
	C527.776001,329.897949 527.037170,329.219299 527.032532,322.472839 
	C527.005676,283.308655 527.021484,244.144470 527.025879,204.516876 
z"/>
<path fill="#1f1f29" opacity="1.000000" stroke="none" 
	d="
M397.310730,485.749329 
	C397.360992,485.733978 397.408356,486.043884 397.408356,486.043884 
	C397.408356,486.043884 397.260498,485.764709 397.310730,485.749329 
z"/>
<path fill="#1f1f29" opacity="1.000000" stroke="none" 
	d="
M374.481232,508.974548 
	C374.447296,509.014954 374.226105,508.788269 374.226105,508.788269 
	C374.226105,508.788269 374.515167,508.934143 374.481232,508.974548 
z"/>
<path fill="#1f1f29" opacity="1.000000" stroke="none" 
	d="
M420.032196,462.988525 
	C420.044495,463.004822 420.019897,462.972229 420.032196,462.988525 
z"/>
<path fill="#1f1f29" opacity="1.000000" stroke="none" 
	d="
M443.010468,439.965027 
	C443.030670,439.967651 442.990265,439.962372 443.010468,439.965027 
z"/>
<path fill="#1f1f29" opacity="1.000000" stroke="none" 
	d="
M465.967804,417.011475 
	C465.955505,416.995178 465.980103,417.027771 465.967804,417.011475 
z"/>
<path fill="#1f1f29" opacity="1.000000" stroke="none" 
	d="
M714.601685,168.418350 
	C714.418152,168.595947 714.214478,168.679703 714.010742,168.763474 
	C713.982117,168.636612 713.953491,168.509766 713.924927,168.382904 
	C714.143799,168.363449 714.362671,168.343994 714.601685,168.418350 
z"/>
<path fill="#1f1f29" opacity="1.000000" stroke="none" 
	d="
M737.040894,145.259003 
	C737.286621,145.328049 737.461365,145.462402 737.636169,145.596741 
	C737.541382,145.685547 737.446655,145.774353 737.351868,145.863159 
	C737.224548,145.683548 737.097229,145.503922 737.040894,145.259003 
z"/>
<path fill="#1f1f29" opacity="1.000000" stroke="none" 
	d="
M691.601685,191.418350 
	C691.418152,191.595932 691.214478,191.679703 691.010742,191.763489 
	C690.982117,191.636627 690.953491,191.509766 690.924927,191.382904 
	C691.143799,191.363434 691.362671,191.343979 691.601685,191.418350 
z"/>
<path fill="#1f1f29" opacity="1.000000" stroke="none" 
	d="
M760.605347,122.596504 
	C760.357361,122.659149 760.138306,122.629768 759.919312,122.600372 
	C759.957336,122.475502 759.995361,122.350632 760.033386,122.225769 
	C760.233704,122.318680 760.433960,122.411575 760.605347,122.596504 
z"/>
<path fill="#1f1f29" opacity="1.000000" stroke="none" 
	d="
M783.185669,99.826736 
	C783.124451,99.578659 783.153992,99.359848 783.183472,99.141029 
	C783.307434,99.179649 783.431458,99.218269 783.555420,99.256897 
	C783.462402,99.456604 783.369385,99.656296 783.185669,99.826736 
z"/>
</svg>